<?xml version="1.0" encoding="utf-8"?>
<!-- Designed by Vexels.com - 2016 All Rights Reserved - https://vexels.com/terms-and-conditions/  -->

<svg version="1.1" id="Layer_1" xmlns="http://www.w3.org/2000/svg" xmlns:xlink="http://www.w3.org/1999/xlink" x="0px" y="0px"
	 width="1200px" height="1200px" viewBox="0 0 1200 1200" enable-background="new 0 0 1200 1200" xml:space="preserve">
<path fill="#222232" d="M1017.14,1067.962L814.305,892.043c-0.106-0.916-0.234-1.773-0.375-2.747
	c-8.839-63.821-54.008-38.29-54.008-38.29L595.988,702.778c0,0,6.867-21.598,4.906-42.21c-1.96-20.613-1.96-18.664-13.757-32.397
	c-11.785-13.734-4.894-18.652,0-43.197c4.931-24.532,5.881-64.794,5.881-64.794c17.666,24.544,88.364-11.773,99.164-24.544
	c10.799-12.759,18.663-11.773,18.663-11.773c0.974,19.626,18.652,53.009,34.345,75.594c15.706,22.572,37.316,55.955,37.316,55.955
	c-7.877-49.077-70.688-129.576-58.925-143.322c11.796-13.757,12.782-36.318,9.848-47.129c-2.981-10.788,1.948-8.827-5.904-20.612
	c-0.376-0.552-0.646-0.987-0.963-1.492c5.047-6.643,9.296-14.719,11.468-23.851c3.687-15.577,7.419-5.201,7.419-5.201
	c2.97,12.608,55.616,76.369,74.149,94.175c18.535,17.806,60.076,60.087,60.076,60.087c-2.231-15.577-39.311-48.22-45.239-59.348
	c-5.939-11.116-38.572-51.154-51.178-73.398c-11.187-19.779-34.639-37.163-39.757-40.801c-0.188-0.999-0.529-2.406-1.022-4.438
	c-1.502-6.057-4.19-13.264-6.737-18.875c0.434-0.857,0.621-1.456,0.621-1.456c-1.959-11.796-14.73-36.33-27.479-48.102
	c-12.771-11.797-8.827-15.718-12.771-20.625c-3.932-4.906-5.904-0.986-11.785-2.946c-5.88-1.96-1.948-7.853-2.946-14.72
	c-0.963-6.867-3.932-8.827-3.932-8.827c2.969-5.892-1.96-13.757-8.839-24.555c-6.867-10.8-11.773-12.76-16.668-18.664
	c-4.894-5.869,3.933-13.734-0.986-23.547c-4.919-9.813-8.839,0-17.667-4.906c-8.838-4.907-9.824-7.853-19.637-23.57
	c-9.825-15.705-21.586-42.198-32.386-57.916c-10.811-15.705-20.612-12.759-56.954-26.493c-36.317-13.733-87.366,5.881-87.366,5.881
	c-28.453-7.853-16.68,17.666-16.68,17.666c-15.717,11.785-17.69,75.594-17.69,75.594c-5.869-4.906-13.734,0-13.734,0
	c6.879-21.598-13.722-21.598-13.722-21.598c3.897-42.21-25.553-55.944-25.553-55.944c-35.332-36.329-75.571,8.827-75.571,8.827
	c-44.181,33.383-18.663,70.675-18.663,70.675c-7.841,33.371,10.788,24.545,10.788,24.545c-3.909,3.932,8.826,7.853,8.826,7.853
	l6.891,8.838c-3.909,4.906,14.719,6.879,7.853,15.706c-6.867,8.827,4.919,18.651,4.919,18.651
	c-10.823,12.771,19.626,8.839,19.626,8.839c-4.894,6.867,5.892,12.759,5.892,12.759c-3.956,11.773-0.962,61.836,1.972,83.447
	c2.97,21.586-8.839,35.343-8.839,35.343s-3.897,38.266-10.787,55.944c-6.879,17.666-0.986,21.598-14.719,20.613
	c-13.734-0.987-3.933,15.705-7.865,23.57c-3.921,7.841-13.734,9.813-22.561,5.881c-8.85-3.921-11.784,5.892-16.691,13.745
	c-4.931,7.853,3.92,13.734-12.76,4.906c-16.703-8.838-30.437-8.838-30.437-8.838c-1.972-18.64-19.65-1.948-19.65-1.948
	c-17.654,14.707-2.911,17.654-2.911,17.654c-12.782,18.663,16.669,46.154,16.669,46.154c3.92,3.909,9.237,4.837,14.215,4.555
	l214.995,486.533c-1.926,1.197-4.273,2.677-7.348,4.648c-16.692,10.8-31.423,5.881-52.998,17.678
	c-21.598,11.773-24.567,19.626-25.542,41.212c-0.986,21.61,96.218,19.65,109.951,17.678c1.35-0.188,2.641-0.352,3.909-0.493
	c11.644-1.279,19.649-0.493,19.649-0.493c12.759,4.918,69.701-3.921,69.701-3.921c12.76-37.304,3.933-77.553,0-87.366
	c-3.944-9.825,2.923-25.531,7.854-36.318c4.906-10.811,1.971-12.771-2.947-16.704c-4.906-3.92,1.96-17.666,3.933-28.452
	c1.948-10.812-10.811-20.636-22.572-24.545c-11.81-3.945-14.732-9.825-13.746-30.438c0.975-20.624,6.879-21.586,3.909-38.289
	c-2.934-16.68,35.332-3.921,23.57-5.881c-11.772-1.971,4.906,1.96,4.906,1.96s113.895,73.622,121.725,75.57
	c7.865,1.984,28.476,3.944,37.304,6.891c8.85,2.934,3.921,4.906,12.771,15.705c8.827,10.788,21.598,10.788,17.666,14.719
	c-3.932,3.921,23.559,14.732,24.534,21.598c0.974,6.879,9.824,5.892,18.675,9.813c8.815,3.932,14.707,0,20.612,2.958
	c5.881,2.934,14.732,4.894,18.64,15.694c3.932,10.811,5.892,29.462,6.855,41.223c0.998,11.797-17.666,28.489-22.56,53.034
	c-4.906,24.532,3.92,48.102,25.53,40.25c21.598-7.865,50.04-28.477,59.876-45.168c9.802-16.692,12.759-31.423,18.64-42.222
	c5.904-10.788,27.491-51.049,27.491-51.049l79.526,65.781l20.613,11.784L1017.14,1067.962z M707.887,370.001
	c13.734-8.85,15.694-32.409,15.694-32.409c1.409,0,2.664-0.141,3.791-0.375c9.778,20.835,0.552,39.769-9.367,52.294
	C706.045,387.89,707.887,370.001,707.887,370.001z M362.364,854.927c-2.172,4.754-2.923,10.67-2.771,17.044l-140.739-320.85
	c0.727-0.317,1.173-0.505,1.173-0.505l17.655,9.825l3.932-7.865c0,0-7.853-4.894-4.894-6.879c2.946-1.948,10.799-4.894,19.638-6.855
	c8.838-1.972,24.545-6.879,41.2-9.825c7.641-1.338,21.281-9.707,33.783-18.358c-6.268,16.68-4.367,35.378,33.5,37.574
	c1.432,2.664,2.429,5.07,2.429,7.277c0,11.797-4.907,51.061-12.759,61.86c-7.853,10.8-6.867,12.759-10.8,29.439
	c-3.932,16.692-8.838,34.37-10.811,50.075c-1.971,15.706-4.882,20.625-11.761,32.398c-6.878,11.761,9.79,41.223,13.734,63.808
	c3.944,22.572,12.771,38.289,26.505,44.159C375.123,843.154,367.27,844.14,362.364,854.927z M431.091,1025.74
	c-0.716,2.325-1.209,4.073-1.62,5.494L375.64,908.547c4.062,1.655,7.865,2.958,9.308,8.241
	c2.923,10.799,20.613,21.586,29.439,30.425c8.839,8.827,6.855,14.72,9.825,30.426c2.946,15.717,8.827,9.825,7.842,21.597
	C431.091,1011.009,435,1012.993,431.091,1025.74z"/>
</svg>
