<?xml version="1.0" encoding="utf-8"?>
<!-- Designed by Vexels.com - 2016 All Rights Reserved - https://vexels.com/terms-and-conditions/  -->

<svg version="1.1" id="Capa_1" xmlns="http://www.w3.org/2000/svg" xmlns:xlink="http://www.w3.org/1999/xlink" x="0px" y="0px"
	 width="400px" height="400px" viewBox="0 0 1200 1200" enable-background="new 0 0 1200 1200" xml:space="preserve">
<g>
	<path fill="#4D456A" d="M947.472,468.555c0-14.933-0.598-29.273-1.805-53.203c-1.173-23.906-2.973-29.297-9.543-45.445
		c-6.58-16.142-5.986,8.392-10.191-10.777c-2.107-9.628-8.02-22.818-13.758-34.222c-0.412-15.846,0.126-32.016-0.575-38.687
		c-1.208-11.368-8.968-12.562-11.365-14.95c-2.401-2.418-9.579-2.418-12.567-10.782c-2.984-8.37,2.99-9.564,5.383-32.292
		c2.365-22.714-15.556-27.488-22.122-38.86c-6.576-11.343-23.91-13.145-38.271-13.755c-14.352-0.59-24.518,4.783-32.298,8.391
		c-7.764,3.579-10.73-2.416-20.303-5.979c-9.549-3.608-8.99-5.368-22.126,0c-13.137,5.369-23.309,9.557-23.309,9.557
		s0.601,10.152-2.399,0c-2.997-10.167-11.357-3.579-16.158-8.383c-4.783-4.784-2.379-7.173,5.368-21.517
		c7.793-14.361-2.385-21.539,0-33.488c2.399-11.978,2.399-37.681-3.579-48.422c-5.982-10.758-18.521-19.73-26.291-20.925
		c-7.77-1.19-29.284-4.218-38.868-4.784c-9.589-0.589-21.539,7.169-30.501,15.539c-8.972,8.392-10.164,16.733-12.56,26.904
		c-2.403,10.147,1.789,41.862,1.789,41.862c-7.758,20.335,8.976,36.46,8.976,36.46c-3.586,17.367,13.768,32.906,13.768,32.906
		c-5.664,18.385-17.172,28.487-25.635,28.075c-8.432-0.412-13.945,8.477-22.826,16.495c-8.881,8.019-13.957,8.021-22.417,15.627
		c-8.412,7.608-10.521,20.274-18.561,31.289c-8.029,11-9.304,11-21.97,17.737c-12.693,6.758-9.736,25.337-18.605,31.687
		c-8.873,6.342-13.949,0-21.562,2.519c-7.594,2.544-7.594,16.495-14.349,16.495c-6.77,0-11.838,7.624-16.506,9.739
		c-4.632,2.106-13.496,1.281-23.213,2.534c-9.736,1.242-17.341,13.934-20.712,15.194c-3.394,1.257-27.918-3.37-34.682-2.955
		c-6.757,0.437-11.82,11-14.784,12.259c-2.938,1.262-21.965,0.844-27.028,0c-5.086-0.846-5.914-3.37-11.43-13.52
		c-5.48-10.127-23.237-13.1-26.194-15.21c-2.957-2.107-5.906-4.651-2.106-7.19c3.8-2.523,2.106-12.675,2.106-12.675
		s-28.747,1.267-32.143,1.267c-3.365,0-1.247,5.492,2.981,8.037c4.216,2.522,1.261,13.956,1.261,13.956s20.732-2.548,0.411,1.69
		c-20.274,4.214-14.338,47.725-14.338,47.725c-13.941,7.648,18.161,16.495,18.161,16.495l-2.299,702.262h9.911l12.264-692.96
		c5.926-0.437,10.318-4.783,10.318-4.783l2.233,14.451l5.575-10.014c0,0,5.548,13.384,21.135,15.598
		c15.623,2.219,17.862-6.696,23.432-10.011c5.583-3.353,14.496,3.314,25.638,6.671c11.161,3.34,16.718-2.244,26.761-8.886
		c10.035-6.726,26.719,3.3,32.29,3.3c5.608,0,16.735-3.3,21.185-6.67c4.458-3.354,30.084-6.672,36.773-5.591
		c6.684,1.134,6.684-4.429,12.264-12.212c5.584-7.817,17.842-6.714,25.649-8.951c7.785-2.244,21.179-8.915,36.784-22.277
		c15.577-13.363,46.811-37.899,46.811-37.899c-2.262,4.456,15.577,17.823,11.122,26.772c-4.469,8.914,5.558,28.948,5.558,28.948
		s-5.558,1.107-8.886,8.934c-3.357,7.777,8.886,45.677,8.886,45.677s0,0-21.153,0c-21.181,0-7.828,12.262-14.478,18.95
		c-6.703,6.679-10.041,7.825-11.174,24.541c-1.108,16.69-4.441,35.667-3.327,52.355c1.112,16.707-1.117,20.077-1.117,20.077
		s4.442,0,14.484,3.326c10.042,3.344,6.696,12.277,6.696,12.277s14.471-8.934-2.229,7.782
		c-16.722,16.714-76.92,121.484-95.852,138.199c0,0-13.369,41.227-15.613,59.063c-2.226,17.824,7.8,35.667,12.255,50.164
		c4.486,14.49,12.267,17.817,22.288,51.265c10.043,33.43,11.169,50.155,20.082,69.093c8.918,18.926,28.966,27.86,22.282,30.091
		c-6.677,2.202-1.14,26.759-1.14,26.759s-10.015,15.604-16.682,20.038c-6.7,4.449-21.197,6.717-42.345,5.587
		c-21.194-1.138-32.354,3.369-22.313,21.162c1.366,2.414,3.932,4.737,7.343,6.956c-7.412,0.476-12.814,1.653-17.67,2.737V1150
		h358.366c-7.865-5.542-15.604-15.627-19.266-35.841c-6.707-36.766-46.8,6.676-46.8,6.676s-2.284,0-6.088-0.024l-4.956-329.706
		c3.07,7,5.418,12.263,6.589,14.345c5.541,10.044,16.699,35.665,22.288,51.265c5.574,15.608,0,23.409,2.21,34.556
		c2.242,11.149,8.949,13.372,11.165,33.427c2.22,20.063,27.862,46.81,23.38,57.938c-4.43,11.17,12.265,40.118,10.044,59.067
		c-2.234,18.973,3.349,43.491-1.117,57.984c-4.442,14.47,0,38.983,0,38.983c0.948,4.198,2.022,7.913,3.191,11.327h75.472
		c0.52-4.245,2.239-12.411,6.943-21.323c5.986-11.389,10.77-28.728,12.571-48.467c1.785-19.705,1.198-37.051,2.379-57.391
		c1.202-20.298-8.359-46.005-16.132-90.281c-7.786-44.245-9.588-41.246-19.76-59.173c-10.149-17.952-8.333-4.193-5.954-16.171
		c2.39-11.933-4.195-16.731-8.974-24.494c-4.794-7.755-3.609-28.686-1.191-43.072c2.397-14.344-4.208-17.3-5.37-23.885
		c-1.219-6.58,1.771-8.365-1.827-29.926c-3.572-21.489-5.37-64.56-5.37-83.687c0-19.144,7.197-22.737,7.197-22.737l-0.61,75.959
		c0.61,6.56,9.565,13.731,9.565,13.731s32.876,0,38.862-1.191c0.898-0.177,1.688-0.501,2.441-0.868
		c4.196-2.307,5.941-7.522,5.941-7.522l1.789-101.623c-1.202-7.174-7.791-9.002-7.791-9.002l-2.383-12.514
		c-6.453-6.127-18.429-5.477-28.105-3.565l-6.554-16.171c0,0,0.573-7.189,2.379-16.146c1.796-8.972-2.379-5.39,8.953-14.95
		c11.382-9.562,25.71-25.687,30.491-50.83c4.78-25.103,8.388-27.518,8.388-27.518c4.783,10.176,7.189,43.665,6.568,50.86
		c-0.585,7.169-4.797,9.556-4.797,9.556c0.62,17.956,13.188,0,13.188,0C953.467,511.629,947.472,483.501,947.472,468.555z
		 M692.509,1117.503c-4.072-0.6-11.568-1.78-21.258-3.368c-0.832-0.957-1.606-2.062-2.127-3.327
		c-3.368-7.799,7.782-50.134,7.782-66.894c0-16.668-10.023-24.467-18.961-34.531c-8.914-10.04-1.125-20.055-3.314-32.317
		c-2.264-12.26-5.579-23.386-7.805-46.789c-2.261-23.428-22.285-81.345-37.906-100.315c-15.596-18.952-17.825-14.472-2.212-18.952
		c15.605-4.45,30.062-18.951,45.659-37.877c15.615-18.951,44.585-55.744,57.981-57.963c7.545-1.259,21.147,24.537,32.579,49.012
		l9.603,356.543C735.97,1120.459,708.215,1119.748,692.509,1117.503z M886.268,584.217c-5.158,1.385-8.753,2.733-8.753,2.733
		c1.191-7.149-13.153-39.466-13.153-44.854c0-5.369,6.568-0.586,6.568-0.586l6.585,23.906L886.268,584.217z M900.423,302.67
		c-0.313-0.632-0.575-1.125-0.775-1.526c-2.992-5.954-11.978-4.78-13.159-19.143c-1.221-14.315,12.547-0.565,12.547-0.565
		C903.442,287.872,902.511,296.018,900.423,302.67z"/>
</g>
</svg>
