<?xml version="1.0" encoding="utf-8"?>
<!-- Designed by Vexels.com - 2016 All Rights Reserved - https://vexels.com/terms-and-conditions/  -->

<svg version="1.1" id="Layer_1" xmlns="http://www.w3.org/2000/svg" xmlns:xlink="http://www.w3.org/1999/xlink" x="0px" y="0px"
	 width="300" height="300px" viewBox="0 0 1200 1200" enable-background="new 0 0 1200 1200" xml:space="preserve">
<path fill="#FFFFFF" d="M141.34,417.03c6.202-33.223,29.037,6.271,29.037,6.271v135.104c-62.84,66.366-50.258,115.37-22.835,132.981
	c29.049,18.714,39.454,52.008,39.454,52.008c-2.067,41.548,20.782,137.129,20.782,137.129c14.566,24.929,20.808-4.133,20.808-4.133
	c-10.391-10.377-12.5-89.395-12.5-89.395c4.204-27.009,24.957,29.104,24.957,29.104c6.298,33.294,19.996,24.86,33.541,4.658
	C260.458,900.133,239.54,1017.17,215.411,1150h11.781c27.658-152.219,51.043-283.532,64.727-360.828
	c10.184-21.401,17.722-41.686,17.722-41.686c20.794,20.823,76.923,47.819,87.313,108.095c10.39,60.248,41.535,29.09,47.776,45.737
	c6.202,16.619,49.872,68.585,72.748,99.73c22.807,31.213,62.343,14.58,54.006,70.68c-2.481,16.701,2.314,27.422,10.156,34.396
	c-11.369,15.916-20.036,30.675-25.177,43.876h520.695V265.941c-37.676,45.71-47.46,22.008-65.912,58.897
	c-7.4,14.773-10.583,28.155-12.539,41.714c-31.186,29.903-46.855,46.344-46.855,46.344c-27.05-10.392-22.862,4.133-41.603,14.551
	c-18.7,10.363-14.511,8.31-39.523,2.053c-24.888-6.2-64.368-10.349-89.338-8.282c-24.929,2.081-60.235-16.647-83.07-29.076
	c-22.903-12.5-79.017-74.856-79.017-74.856c-4.133-20.767,27.024-33.225,27.024-33.225c16.605,2.067,22.862-31.186,22.862-31.186
	c49.913-37.441,33.28-87.326,8.296-139.224C652.5,61.66,575.646,92.789,552.784,103.234c-22.862,10.418-39.482,20.782-45.71-4.161
	c-6.27-24.943-22.89-47.831-43.629-47.831c-20.823,0-52.007-12.457-157.965,41.548c-105.999,54.088-157.938,187.084-176.653,272.303
	C110.086,450.324,141.34,417.03,141.34,417.03z M623.064,904.046c-62.012-98.062-136.77-210.524-136.77-210.524
	c24.942,14.511,83.138-6.27,110.132,4.106c27.038,10.404,18.742,37.429,20.81,56.115c2.066,18.713,4.161,45.723-4.204,68.613
	c-8.282,22.862,6.27,16.592,10.432,58.166C624.292,888.392,623.919,896.275,623.064,904.046z M679.551,995.921
	c-2.275-3.886-4.699-7.911-7.208-12.127c8.764-1.255,17.17-3.059,24.157-4.727C690.864,984.621,685.173,990.271,679.551,995.921z
	 M694.158,911.681c-10.445-10.363-18.741-22.821-14.58-45.67c4.135-22.888,43.629-8.337,51.939-20.794
	c8.337-12.471-2.053-60.276-2.053-101.824v-0.193c17.776-14.676,38.199-37.18,57.229-60.317c-2.066,26.624-2.948,59.339-2.066,99.44
	c-21.195,56.926-41.342,110.202-51.085,135.957C716.964,916.325,699.684,917.234,694.158,911.681z M757.617,920.004
	c9.178-21.594,19.32-48.287,29.518-76.868c0.854,14.388,1.791,29.271,3.018,45.173C780.534,897.9,769.51,908.539,757.617,920.004z
	 M727.383,711.106c-3.872-33.17-12.429-67.442-18.755-92.454c-5.306-21.483-41.934-41.203-73.864-55.286l165.381,1.253
	c-3.914,7.801,1.295,14.154,7.95,18.798c-5.594,10.679-11.755,28.18-16.44,56.706C768.765,669.213,743.824,694.968,727.383,711.106z
	 M807.613,656.659c25.397-32.881,44.456-60.855,44.456-60.855c-8.296,25.536-26.79,76.868-47.212,132.003
	C804.567,702.824,805.243,678.501,807.613,656.659z M945.597,475.253c1.53-9.026,21.236-29.174,45.82-51.222
	c-1.254,5.898-2.784,12.072-4.755,18.645c-14.704,49.1-19.65,29.477-34.382,73.699c-2.563,7.662-4.933,15.517-7.207,23.44
	l-43.12-2.204l-2.273-21.76C921.44,512.213,942.799,492.272,945.597,475.253z M906.129,570.848l29.972,0.882
	c-7.331,27.12-14.345,53.882-23.082,77.198c-14.704,39.262-58.926,157.085-88.348,201.306c-2.314,3.43-5.787,7.716-10.113,12.594
	c-2.743-23.247-5.403-50.037-7.304-77.846c30.634-91.033,57.272-180.868,57.272-180.868s-10.308-2.096,12.512-2.096
	C899.887,602.019,906.129,570.848,906.129,570.848z M519.531,410.843c37.4-22.918,66.519,24.915,114.323,58.154
	c47.805,33.252,97.662,47.831,160.061,37.441c62.342-10.404,76.812,2.08,76.812,2.08c1.64,1.283,3.212,2.357,4.782,3.322
	l-8.875,21.594c-35.361-2.935-215.086-1.695-313.547-2.977c-22.352-9.618-46.014-22.821-58.485-42.733
	C473.794,454.472,482.145,433.691,519.531,410.843z M182.846,427.448c4.149,6.243,12.459,4.161,33.239,10.363
	c20.808,6.27,0,51.98-2.053,74.842c-2.053,22.876-31.186,33.28-31.186,33.28V427.448z"/>
</svg>
