<?xml version="1.0" encoding="utf-8"?>
<!-- Designed by Vexels.com - 2016 All Rights Reserved - https://vexels.com/terms-and-conditions/  -->

<svg version="1.1" id="Layer_1" xmlns="http://www.w3.org/2000/svg" xmlns:xlink="http://www.w3.org/1999/xlink" x="0px" y="0px"
	 width="1200px" height="1200px" viewBox="0 0 1200 1200" enable-background="new 0 0 1200 1200" xml:space="preserve">
<g>
	<path fill="#222232" d="M560.891,596.732c-0.169,0.089-0.288,0.149-0.288,0.149S560.722,596.831,560.891,596.732z"/>
	<path fill="#222232" d="M624.887,1150c8.287-21.319,11.52-37.962,12.256-50.556c65.836-98.635,117.049-175.94,120.401-182.676
		c9.808-19.617,5.451-42.497,5.451-42.497l-33.903-93.521c1.284-0.359,2.348-0.687,2.994-1.044c3.283-1.841,4.387-5.859,5.133-8.406
		c0.726-2.567,4.377-5.471,9.869-5.859c5.471-0.369,15.727,8.037,24.133,13.897c8.387,5.859,17.916,18.275,24.87,19.01
		c6.914,0.747,9.113-5.839,9.113-5.839s-0.726-3.303,1.85,0.706c2.527,4.029,14.624,10.605,22.651,16.106
		c5.591,3.81,27.556,16.235,40.489,23.488c0.308,1.621,0.725,2.854,1.213,3.581c4.377,6.566,7.321,16.067,8.794,28.521
		c1.432,12.455,4.755,36.579,5.093,44.976c0.368,8.396,4.048,15.36,6.943,23.039c2.935,7.68,0.756,12.057,0,23.776
		c-0.696,11.679,4.755,25.198,13.161,40.568c8.436,15.349,23.766,1.124,38.061-8.774c14.246-9.859,14.962-13.888,21.916-25.955
		c6.953-12.067,29.993-12.435,37.305-16.454c7.312-4.029,27.785-22.304,36.19-34.38c8.416-12.047,8.416-18.653,7.332-34.341
		c-1.094-15.738-15.37-12.455-24.502-9.172c-9.143,3.303-23.776,6.943-31.445,8.406c-7.68,1.462-23.039,5.152-30.719,7.699
		c-7.7,2.557-12.445-6.585-12.445-6.585c-9.878-12.067-13.877-49.741-14.594-74.601c-0.737-24.88,0-108.622,0-108.622
		c7.67-10.226,14.623-137.829,12.037-151.01c-2.536-13.151-11.679-17.906-18.265-20.094c-6.585-2.189-22.672,0.368-40.975,3.303
		c-18.265,2.904-46.796,10.604-64.702,16.792c-17.896,6.227-35.485,8.038-59.25,18.294c-23.736,10.226-47.164,24.512-57.42,29.993
		c-10.216,5.472-26.661,16.444-35.425,23.02c-8.784,6.606-12.832,14.266-12.832,14.266s-46.815-103.479-59.947-129.443
		c-13.171-25.945-30.362-23.388-30.362-23.388s-11.698-5.114-22.313,13.151c-10.584,18.274-0.726,43.513-0.726,43.513
		s2.925,6.586,4.02,8.803c1.113,2.169,14.266,35.445,17.587,43.861c2.845,7.342-1.81,10.505-3.034,11.182
		c0.944-0.468,3.71-1.751-0.657,1.989c-5.104,4.386,2.935,9.122,2.935,9.122c-3.501,2.984-4.775,7.928-5.173,12.435
		c-4.736,0.09-8.983,1.114-14.236-0.737c-8.376-2.904-31.784-27.058-49.352-41.692c-9.241-7.689-28.978-21.249-47.502-34.191
		L404.329,423c2.895-4.825,6.446-10.445,11.092-16.992c12.415-17.549,28.899-53.033,34.013-58.136
		c5.123-5.133,11.709-14.624,12.803-21.21c1.094-6.586,6.586-22.303,9.5-55.579c2.935-33.286,0-40.947,6.198-66.164
		c6.248-25.249,11.37-35.495,17.916-46.099c6.596-10.595,11.738-27.785,12.435-36.569c0.737-8.753-7.65-15.698-7.65-15.698
		c-1.094-7.709-8.406-6.605-8.406-6.605c-2.576-4.736-10.982-0.338-10.982-0.338c-10.237-5.511-13.927,13.888-13.927,13.888
		s-4.357-0.747-10.206,3.272c-5.849,4.02,0,23.05,1.065,29.268c1.134,6.198-3.621,16.076-5.452,25.596
		c-1.831,9.51-12.794,49.003-17.916,57.768c-5.123,8.774-20.115,33.624-25.596,43.88c-5.482,10.216-17.568,52.287-20.483,61.429
		c-1.303,4.019-5.701,8.883-10.754,13.579L272.747,50l-2.059,0.735l105.529,299.156c-5.999,5.372-12.455,10.356-15.609,13.351
		c-6.257,5.829-13.17,30.331-21.975,36.18c-8.754,5.859-33.654,17.2-44.248,27.078c-10.615,9.869-12.067,37.286-12.067,37.286
		c-7.322,0-10.604-3.651-12.803-8.794c-2.199-5.104-23.767-0.716-23.767-0.716c-6.585-12.416-25.934-3.283-25.934-3.283
		s-10.246,2.557-22.71,6.208c-12.405,3.661-40.588,25.954-43.155,49.372c-2.547,23.397,1.87,52.644,22.701,63.617
		c20.832,10.982,50.804,9.49,62.514,4.755c11.698-4.755,12.803-3.283,19.378-5.849c6.586-2.567,2.557,27.426-0.358,32.181
		c-2.915,4.755-1.453,28.153,0,33.645c1.491,5.471,1.86,17.926,0.358,26.323c-1.472,8.396,3.292,46.437,12.097,58.872
		c8.754,12.444,7.292,19.727,9.849,28.868c2.557,9.143,30.362,63.27,38.399,77.903c8.049,14.614,10.595,21.179,24.861,36.568
		c14.266,15.361,15.737,6.944,17.18,6.198c1.472-0.716,4.755-3.263,13.171-7.302c8.436-4.038,24.144-10.236,31.087-13.907
		c1.442-0.756,4.387-2.636,8.158-5.133c3.342,6.953,11.967,10.615,11.967,10.615s-2.228,20.482-4.029,27.795
		c-1.85,7.312,1.801,4.387,6.555,11.709c4.755,7.312,6.238,5.84,12.455,13.52c6.218,7.69,10.973,9.878,21.547,16.832
		c10.615,6.944,4.417,2.925,8.437,1.463c3.998-1.463,17.528-5.859,27.068-7.332c3.68-0.547,5.64-1.343,6.705-2.109
		c3.084,2.726,4.397,8.128,6.467,10.177c2.885,2.915,17.16,15.718,21.199,16.077c4.009,0.347,9.51-6.576,10.953-9.869
		c1.463-3.292,8.416-36.201,9.143-43.154c0.746-6.934-8.049-11.669-8.049-11.669l-1.382-9.222c0.557-0.418,1.104-0.885,1.751-1.403
		c6.237-5.104,4.556-19.08,4.377-28.441l80.927,229.371l0.14,0.259c0.059,0.14,4.019,6.009,5.142,19.13 M634.526,1103.333
		c-1.104,11.888-4.348,27.018-11.689,45.84 M562.065,557.387c0,0-10.972-16.473-14.992-39.125
		c-4.029-22.661-0.358-24.133,5.859-29.625c6.208-5.482,18.653-2.178,18.653-2.178c18.264,6.187,62.532,118.839,62.532,118.839
		c8.406,16.096,5.85,24.133,5.85,24.133c-5.153,1.472-12.067-2.566-23.418-8.037c-6.187-2.995-10.177-2.845-13.757-1.761
		c2.894-4.655,6.326-10.873,7.918-16.176c2.895-9.888-11.698-10.594-11.698-10.594c0.725-7.68-20.881-4.039-20.881-4.039
		L562.065,557.387z M488.898,803.113c0.368-4.755,0.368-7.69-1.094-12.435c-0.289-0.994-0.966-1.84-1.87-2.557
		c2.904-2.725,5.083-4.715,5.929-5.123c2.914-1.442,1.432,5.461,0,7.68c-1.463,2.179,0.328,4.387,5.481,5.492
		c5.104,1.074,7.67,6.586,7.67,6.586s10.585-8.416,0.747,1.442c-9.909,9.878-5.521,36.22-7.352,31.097
		c-1.801-5.133-7.283-10.237-9.143-15.36C487.445,814.812,488.539,807.868,488.898,803.113z M501.343,904.93
		c-1.085-5.67-2.935-15.857-2.935-18.433c0-3.681,3.701-5.87,8.078-4.029c2.994,1.234,1.691,14.563,0.577,22.781L501.343,904.93z
		 M544.129,889.034c0,0-8.406,42.786-11.669,44.975c-3.323,2.208-8.078-1.084-12.466-6.943c-2.198-2.925-4.367-8.267-6.018-12.903
		c0.478-13.172,6.516-25.626,10.038-26.601c4.029-1.065,7.302-1.065,12.425-1.801C541.572,885.015,544.129,889.034,544.129,889.034z
		 M408.468,514.989c-12.783-12.454-33.276-34.758-36.559-46.079c-3.303-11.341,17.558-21.935,21.945-28.162
		c2.447-3.492,5.043-8.476,9.013-15.28l40.956,116.043C428.304,530.657,414.178,520.501,408.468,514.989z M751.008,863.368
		c13.072,20.712-1.095,52.336-1.095,52.336l-113.159,168.339c-1.363-10.882-4.655-16.264-5.302-17.23l-82.688-234.385
		c0.369-2.029,1.135-3.213,2.676-2.994c0.776,0.109,1.532,0.238,2.248,0.348c6.059,0.865,10.834,1.472,28.472,4.407
		c19.737,3.292,75.326-2.188,91.79-10.972c16.454-8.775,24.86-24.502,33.276-32.541c3.92-3.73,8.824-5.958,13.351-7.471
		L751.008,863.368z M836.66,737.645c-4.736-5.114-10.983-7.66-14.246-12.416c-3.322-4.755-30.371-17.19-30.371-17.19
		c2.178-0.746,11.341-16.454,13.529-19.01c2.188-2.567,12.803-2.945,19.737-5.501c6.983-2.547,12.464-7.66,19.388-15.718
		c6.944-8.038,4.765,20.453,5.511,28.162c0.717,7.66,0,6.237,1.463,8.028c1.462,1.831,3.631,2.577,3.273,9.51
		c-0.359,6.964,3.651,26.333,9.132,48.994c0.835,3.382,1.462,7.233,1.959,11.37C855.402,758.914,840.161,741.416,836.66,737.645z"/>
</g>
</svg>
