<?xml version="1.0" encoding="utf-8"?>
<!-- Designed by Vexels.com - 2017 All Rights Reserved - https://vexels.com/terms-and-conditions/  -->

<svg version="1.1" id="Layer_1" xmlns="http://www.w3.org/2000/svg" xmlns:xlink="http://www.w3.org/1999/xlink" x="0px" y="0px"
	 width="1200px" height="1200px" viewBox="0 0 1200 1200" enable-background="new 0 0 1200 1200" xml:space="preserve">
<path fill="#282727" d="M663.631,697.046c0,0-11.514,0.819-19.744-0.829c-8.22-1.643-13.973-9.868-21.377-20.555
	c-7.403-10.687-13.971-46.869-12.33-51.803c1.653-4.932,11.514-7.401,12.33-11.511c0.822-4.11-7.399-18.088-16.438-23.025
	c-9.049-4.932-51.801-18.089-51.801-18.089c2.46-4.937,3.284-41.937,3.284-41.937s10.69-0.819,16.445,0
	c5.753,0.821,10.687-4.112,9.868-17.269c-0.826-13.154,2.467-28.776,4.934-36.177c2.465-7.401,5.753-11.511,6.58-18.088
	c0.256-2.013-0.304-3.516-1.147-4.702L798.213,51.912L794.449,50L590.905,450.319c-1.16-0.56-2.102-0.784-2.102-0.784
	c-10.702,3.293-11.511,25.494-11.511,25.494c-6.58,11.511-14.8,28.778-14.8,28.778s-8.22-7.401-10.687-11.511
	c-2.47-4.115,2.467-17.267,2.467-17.267c23.839-24.668,1.643-46.052,1.643-46.052c-32.896-18.081-37.832,25.494-37.832,25.494
	c-4.11,0.824-7.394,9.044-7.394,9.044c-18.907-4.11-27.138,14.8-32.074,22.203c-4.934,7.396-13.154,20.558-18.079,23.022
	c-4.934,2.467-6.587,2.467-4.934,8.225c1.643,5.756,6.572,37.001,8.22,43.578c1.638,6.58,6.572,6.58,13.159,9.044
	c6.57,2.467,19.727,3.291,19.727,3.291c-4.932,30.426,18.912,38.644,18.912,38.644c-18.912,55.918-5.758,48.517-5.758,48.517
	c3.291-18.093,14.807-48.517,14.807-48.517l5.718,1.905c-23.047,137.463-79.93,453.284-128.602,534.406l3.622,2.166
	c48.26-80.431,104.306-388.579,128.052-529.432c2.386,9.508,6.836,23.847,6.836,23.847l4.924-1.641
	c-5.756-5.756-8.225-30.426-8.225-30.426s0,0,6.584,0c6.572,0,27.132,17.267,27.132,17.267s-5.75,15.621-11.514,27.14
	c-5.758,11.506-8.215,11.506-14.797,20.55s2.467,14.802,7.404,16.448c4.927,1.645,13.157,3.293,18.907,4.931
	c5.756,1.643,10.69,5.753,22.201,7.399c11.506,1.646,9.873-9.037,4.939-11.506c-4.934-2.469-12.335-9.871-18.098-18.091
	c-5.753-8.22,5.763-15.621,5.763-15.621c2.462,4.11,9.866,13.152,14.802,20.555c4.934,7.396,4.934,19.736,4.934,28.778
	c0,9.044,2.46,10.69,5.753,18.091c3.289,7.396,13.978,0,23.028-4.115c9.037-4.105,30.414-19.736,30.414-19.736
	C674.318,698.687,663.631,697.046,663.631,697.046z"/>
</svg>
