<?xml version="1.0" encoding="utf-8"?>
<!--Designed by Vexels.com - 2017 All Rights Reserved - https://vexels.com/terms-and-conditions/-->
<svg version="1.1" id="Layer_1" xmlns="http://www.w3.org/2000/svg" xmlns:xlink="http://www.w3.org/1999/xlink" x="0px" y="0px"
	 viewBox="0 0 1200 1200" enable-background="new 0 0 1200 1200" xml:space="preserve">
<g>
	<path fill="#202E50" d="M761.151,636.526c0.815,0.203,0.79,0.837,0.869,1.419c-9.093,8.429-18.194,16.851-27.268,25.297
		c-1.043,0.971-2.457,1.729-2.643,3.293c-4.526,1.192-8.994,1.612-13.785,0.876c-9.187-1.411-18.456-2.438-27.727-3.301
		c-5.758-0.536-11.434-1.936-17.29-1.536c-6.335-3.119-11.949-7.167-17.446-11.365c-0.085-1.003-0.689-1.387-1.748-1.226
		c-0.435-0.29-0.87-0.581-1.305-0.871c-0.155-1.388-0.92-2.108-2.511-1.926c-0.192-0.027-0.373-0.084-0.542-0.171
		c-0.074-1.327-1.136-1.951-2.142-2.691c-15.233-11.209-30.477-22.404-45.621-33.713c-2.24-1.672-4.052-2.281-6.754-0.865
		c-6.256,3.279-12.769,6.155-18.947,9.547c-2.065,1.134-4.865,1.528-6.04,3.886c-8.468,1.648-16.892,3.546-25.425,4.834
		c-4.001,0.603-6.218,2.057-6.732,5.678c-1.577,0.654-2.435,2.167-4.333,2.58c-3.932,0.855-7.772,2.066-11.654,3.116
		c-11.77,3.183-23.706,5.895-34.49,11.604c-5.707,3.021-11.688,5.606-17.52,8.434c-5.066,2.457-10.095,4.978-15.14,7.47
		c8.724-0.895,17.357-0.337,25.931-0.772c9.087-0.461,18.201-1.255,27.351-0.98c2.984,0.09,5.988-0.853,9.052-0.63
		c1.779,0.129,2.742-1.044,3.728-2.102c5.578-5.988,11.15-11.98,16.697-17.993c1.299-1.408,2.43-1.799,3.995-0.204
		c3.727,3.798,7.761,7.352,11.339,11.26c7.83,8.555,16.501,16.295,25.856,23.432c9.516,7.26,18.942,14.62,28.421,21.92
		c2.149,1.655,4.355,3.247,6.536,4.868c0.255-0.247,0.51-0.493,0.765-0.74c-12.547-12.221-25.094-24.443-37.641-36.664
		c0.334-0.302,0.668-0.603,1.002-0.905c2.507,1.698,4.973,3.45,7.53,5.082c6.407,4.089,12.043,9.181,19.158,12.349
		c1.76,1.49,3.661,2.864,5.254,4.491c5.466,5.582,10.839,11.241,16.219,16.893c4.716,4.954,9.332,9.989,14.106,14.895
		c4.856,4.99,9.851,9.867,14.785,14.793c-0.817,1.968-2.517,0.659-3.486,0.491c-9.427-1.629-18.798-3.527-28.217-5.202
		c-2.276-0.405-4.518-1.119-7.029-0.247c-10.903,3.786-21.901,7.344-32.817,11.1c-2.524,0.869-3.96,0.602-5.601-1.621
		c-7.164-9.702-14.689-19.18-21.878-28.867c-1.808-2.435-4.443-4.556-4.752-7.779c-0.784-8.178-1.6-16.355-2.261-24.542
		c-0.175-2.166-1.111-2.231-2.931-1.553c-6.103,2.274-12.234,4.486-18.352,6.725c-1.332,0.487-2.304,1.404-3.336,2.278
		c-6.233,5.282-12.504,10.526-18.748,15.796c-0.878,0.741-1.653,1.512-2.887,0.466c-2.977-2.522-5.971-5.027-8.987-7.51
		c-1.144-0.942-1.155-1.694-0.291-2.964c1.514-2.227,3.912-3.669,5.519-5.753c1.236-1.603,1.511-2.878-1.401-3.331
		c-9.702-1.508-19.396-3.074-29.047-4.833c-5.693-1.038-10.791-1.034-16.254,1.755c-7.95,4.058-16.607,6.938-24.821,10.588
		c-4.068,1.808-8.73,2.881-11.818,6.149c-3.968,4.199-7.658,8.619-11.446,12.959c-1.063,1.218-1.982,1.492-3.429,0.293
		c-3.188-2.641-6.473-5.193-9.84-7.64c-5.167-3.755-9.422-8.778-16.802-9.409c-4.888-0.418-9.722-1.389-14.567-2.182
		c-1.862-0.305-3.556-0.542-1.775-3.048c5.597-7.878,10.975-15.887,16.385-23.875c3.069-4.531,7.271-8.79,8.846-13.737
		c9.729-30.559,18.725-61.308,24.627-92.727c0.282-1.5,0.893-2.561,1.991-3.592c8.337-7.827,16.837-15.52,24.874-23.599
		c3.931-3.952,8.594-7.377,11.867-11.757c8.158-10.918,15.821-22.145,23.758-33.203c1.032-1.438,1.15-2.727,0.499-4.249
		c-3.604-8.427-7.13-16.883-10.826-25.276c-0.518-1.176-0.433-2.892-2.315-3.348c-0.516-1.719,0.855-3.259,0.562-4.957
		c1.502,0.343,2.728,1.118,3.979,1.933c7.721,5.027,14.819,10.841,23.204,15.039c7.313,3.661,14.407,7.687,21.683,11.412
		c8.766,4.488,15.358,11.349,22.643,17.405c9.774,8.124,18.994,16.807,28.481,25.221c6.29,5.579,12.625,11.116,18.962,16.65
		c0.633,0.552,1.358,1.079,2.145,1.41c6.165,2.589,12.92,3.982,18.536,7.686c4.162,4.376,9.606,7.359,14.403,11.044
		c2.083,1.6,3.88,3.875,6.826,4.12c9.759,0.809,19.534,1.458,29.302,2.168c1.896,0.217,3.653,0.638,5.289,1.696
		c18.092,11.702,36.261,23.303,54.314,35.055c3.892,2.534,8.35,4.432,11.408,7.978c4.364,11.475,8.731,22.95,13.09,34.427
		c0.679,1.789,1.827,2.099,3.835,1.574c5.694-1.49,11.212-3.556,17.119-4.37C755.931,637.77,758.89,638.542,761.151,636.526z
		 M656.488,610.589c18.141,5.821,36.282,11.643,55.293,17.744C699.279,618.904,675.836,611.347,656.488,610.589z"/>
	<path fill="#5F6681" d="M250.406,756.143c14.848-2.789,29.721-5.467,44.586-8.182c0.855-0.156,1.868-0.592,2.397,0.282
		c0.485,0.801-0.273,1.586-0.79,2.189c-1.744,2.031-4.13,3.547-5.723,5.711h27.855c2.622-0.258,5.245-0.513,7.866-0.774
		c1.374-0.137,2.724-0.487,4.085-0.737c-1.108-2.215-2.174-4.448-3.336-6.639c-1.4-2.638-4.341-1.998-6.665-2.316
		c-6.357-0.87-12.782-1.317-19.14-2.184c-5.174-0.706-9.065-3.999-13.407-6.309c-1.975-1.051,0.425-1.691,0.996-2.081
		c6.901-4.705,13.886-9.305,20.846-13.937c10.031-6.676,20.034-13.386,30.118-19.995c1.261-0.827,1.765-1.712,2.145-3.034
		c4.993-17.357,9.928-34.731,15.257-52.003c1.148-3.719,3.702-7.098,5.775-10.549c4.641-7.73,9.366-15.418,14.099-23.101
		c2.676-4.344,7.096-7.259,10.846-10.696c2.343-2.148,3.811-4.521,4.734-7.355c6.522-20.007,13.133-39.989,20.43-59.774
		c2.514-6.816,4.842-13.689,7.28-20.528c0.374-1.048,0.465-2.244,1.892-3.286c1.253,7.191,2.462,14.126,3.816,21.9
		c4.23-5.296,7.935-9.931,11.635-14.568c2.015-2.526,3.865-5.179,6.068-7.558c4.59-4.957,4.207-11.243,5.582-17.019
		c2.204-9.253,4.048-18.581,5.881-27.904c0.849-4.316,1.314-8.696,1.954-13.048c-0.515-1.72,0.856-3.26,0.564-4.958
		c-0.789-0.569-1.495,0.382-2.267,0.103c-0.484,0.26-0.968,0.52-1.452,0.781c-2.262,3.742-6.532,5.504-9.834,8.206
		c-4.634,3.792-9.7,7.142-14.581,10.682c1.141,0.075,1.524,0.603,1.291,1.636c-1.479,6.562-2.975,13.121-4.359,19.7
		c-0.29,1.377-0.818,1.834-2.281,1.364c-0.711-0.228-1.483-0.294-2.217-0.468c-9.161-2.178-6.624-2.424-10.756,5.104
		c-7.967,14.514-9.652,30.584-13.712,46.058c-2.564,9.776-4.569,19.674-7.031,29.474c-0.693,2.759-3.355,4.558-5.22,6.717
		c-3.841,4.448-7.772,8.83-11.73,13.192c-0.44,0.485-1.291,0.657-1.951,0.975c-0.016,0.211-0.045,0.421-0.087,0.629
		c-1.521,3.394-4.655,5.692-7.033,8.49c-3.336,3.925-3.202,8.706-4.274,13.102c-4.375,17.935-8.301,35.962-12.37,53.959
		c-0.498,2.205-2.458,3.518-3.855,5.059c-8.803,9.714-17.832,19.256-26.782,28.858c-1.262,1.354-2.61,1.986-4.675,1.297
		c-2.247-0.749-4.613-1.267-6.974-1.642c-3.018-0.479-3.29-1.599-1.587-3.756c5.636-7.135,11.021-14.442,16.846-21.444
		c2.773-3.334,3.908-6.405,2.326-10.542c-1.537-4.021-2.362-8.278-3.372-12.457c-0.913-3.777,1.86-6.652,3.283-9.789
		c2.674-5.894,5.718-11.651,8.712-17.419c0.96-1.849,0.795-3.451-0.021-5.321c-3.008-6.893-5.916-13.826-8.681-20.804
		c-1.452-3.663,0.03-7.386,0.548-11.009c1.521-10.642,3.435-21.236,5.12-31.859c0.178-1.122,0.525-2.03,1.491-2.69
		c10.442-7.127,20.892-14.244,31.349-21.352c0.184-0.125,0.49-0.098,0.739-0.142c5.878-4.156,9.053-10.337,13.748-15.38
		c4.132-5.292,8.275-10.577,12.377-15.888c0.336-0.435,0.397-1.048,0.585-1.578c-4.764,1.297-7.394,5.179-10.955,7.865
		c-8.105,6.114-15.565,12.939-23.561,19.181c-7.467,5.829-13.669,12.861-21.151,18.593c-8.799,6.741-13.938,15.698-19.555,24.438
		c-8.289,12.9-16.542,25.82-24.804,38.735c-0.641,1.002-1.238,2.027-1.833,3.053c-2.017,3.477-1.761,3.782,2.408,4.218
		c8.396,0.879,16.779,1.861,25.158,2.865c2.49,0.298,3.7,1.135,2.63,3.913c-2.442,6.338-4.874,12.73-6.47,19.273
		c-1.087,4.458-4.824,5.656-8.177,7.463c-6.445,3.473-12.999,6.783-19.589,10.022c-1.829,0.899-2.307,2.02-2.523,3.836
		c-1.135,9.527-2.525,19.028-3.754,28.546c-0.222,1.72-1.452,1.641-2.738,1.643c-4.833,0.009-9.704,0.354-14.489-0.085
		c-5.552-0.51-9.505,1.96-13.942,4.359c-9.422,5.094-13.846,13.906-20.221,21.277c-1.75,2.023-2.907,5.76-5.569,5.43
		c-1.972-0.244-2.114-4.261-2.952-6.617c-1.74-4.892-1.635-4.926-6.649-2.628c-13.073,5.989-26.163,11.948-39.202,18
		c-2.343,1.087-4.668,1.597-7.293,1.543c-5.593-0.114-11.195,0.083-16.786-0.062c-9.123-0.237-18.23-0.994-27.37-0.679
		c-0.892,0.031-1.803,0.03-2.369-0.792c-4.876,2.028-10.375,2.287-15.187,4.495c-4.49,4.268-10.209,7.06-15.276,10.636
		c-3.953,2.789-8.035,5.422-12.029,8.084H250.406z M304.65,653.924c0.313,0.072,0.627,0.144,0.94,0.216
		c-0.618,5.385-1.204,10.773-1.868,16.153c-0.381,3.088-1.165,6.157-1.244,9.246c-0.057,2.214-0.843,3.431-3.042,4.164
		c-5.677,1.894-11.322,3.868-18.092,6.192C289.462,677.366,297.056,665.645,304.65,653.924z"/>
	<path fill="#314374" d="M759.662,665.92c0.335-1.426-2.472-2.906-0.601-3.892c1.575-0.831,2.614,1.371,3.798,2.312
		c6.801,5.407,14.566,9.553,21.995,14.133c5.405,3.332,10.956,6.465,17.371,10.233c-10.767-1.31-20.551-1.94-30.34-2.507
		c0.768,7.007,1.552,14.013,2.287,21.024c0.13,1.24,1.09,1.69,2.017,2.328c9.706,6.675,19.38,13.387,29.058,20.096
		c1.375,0.953,2.893,1.442,4.621,1.286c4.263-0.387,8.555-0.618,12.78-1.231c4.795-0.695,8.574,1.803,12.663,3.119
		c13.498,4.343,26.878,8.998,40.282,13.583c1.647,0.563,3.102,0.552,4.766,0.015c5.379-1.736,10.996-2.952,16.185-5.062
		c8.032-3.267,15.918-3.008,24.288-1.304c12.916,2.629,25.983,4.642,39.002,6.84c2.793,0.472,5.496-0.559,8.219-0.966
		c6.221-0.929,12.464-1.836,18.592-3.161c5.6-1.211,10.45,1.101,15.455,2.298c14.502,3.468,28.894,7.324,43.313,11.078h72.208
		c0.309-0.237,0.614-0.477,0.909-0.728c3.33-2.826,6.931-5.403,10.571-7.897c2.098-1.437,1.727-2.247-0.334-3.132
		c-7.217-3.101-14.433-6.203-21.64-9.324c-11.464-4.966-22.912-9.963-34.392-14.899c-1.154-0.496-1.715-1.778-3.143-1.828
		c-9.718,2.852-19.846,4.174-29.658,6.654c-6.049,1.529-11.059,5.119-16.629,7.615c-2.499,1.12-4.581,1.25-7.164,0.125
		c-15.559-6.775-31.171-13.447-46.826-20.035c-2.822-1.188-5.921-1.825-8.892-2.716c-3.7-0.139-7.124-1.425-10.684-2.147
		c-7.098-1.652-14.144-3.544-21.314-4.868c-4.524-0.835-6.793-3.117-7.711-6.974c-1.76-1.976-4.39-2.67-6.73-3.766
		c-6.196-2.9-12.433-5.726-18.659-9.023c6.841-1.647,13.847-1.925,20.786-2.61c0.016-3.581,0.001-7.162,0.066-10.742
		c0.02-1.104-0.437-2.345,0.766-3.23c-0.081-0.343-0.162-0.687-0.244-1.03c-1.138-0.185-2.276-0.369-3.413-0.554
		c-8.089-0.662-15.823-2.97-23.764-4.339c-10.054-1.733-19.989-4.045-29.969-6.135c-0.576-0.121-1.091-0.483-1.634-0.732
		c-0.949-0.072-1.898-0.145-2.846-0.217c-0.892,0.992-2.125,1.172-3.401,1.095c-5.024-0.302-9.937,0.902-14.938,0.889
		c0.834,2.361,3.516,1.97,5.293,2.899c5.727,2.994,12.035,3.8,18.562,4.005c5.659,0.177,11.294,0.936,16.95,1.309
		c1.611,0.106,2.152,1.01,2.7,2.069c2.058,3.986,4.032,8.01,6.177,11.956c1.972,3.627-1.441,5.554-2.973,7.971
		c-1.565,2.47-3.364,0.119-4.845-0.435c-7.262-2.716-14.438-5.622-21.662-8.422c-0.794-0.308-1.715-0.552-2.558-0.51
		c-8.502,0.429-16.932-1.179-25.427-0.725c-9.388,0.502-18.719-1.003-28.091-0.658c-3.302,0.122-2.81-1.293-2.054-3.139
		c1.901-4.649,4.798-8.948,5.82-13.905c-4.275,0.459-8.619-0.138-12.874,0.86c-3.336,0.783-5.302-1.438-6.884-3.473
		c-3.055-3.932-7.271-6.815-10.656-10.438c-1.276-1.365-3.413-1.301-5.262-1.553c-0.969-0.132-2.104,0.177-2.574-1.001
		c-0.546-0.499-1.091-0.998-1.637-1.498c-1.101-0.299-1.249-1.165-1.428-2.013c-0.429-0.317-0.858-0.634-1.286-0.951
		c-9.093,8.429-18.194,16.851-27.268,25.297c-1.043,0.971-2.457,1.729-2.643,3.292c5.425-0.804,10.927-1.315,16.249-2.504
		C752.622,663.076,756.132,664.111,759.662,665.92z M934.459,721.203c0.477-0.948,1.038-1.86,1.52-2.806
		c2.425-4.761,2.382-4.736,5.781-0.605c5.136,6.241,10.333,12.441,15.504,18.658c-5.958-1.258-10.674-4.417-15.894-6.652
		c-1.597-0.683-3.056-1.63-4.63-2.365C932.36,725.387,932.343,725.404,934.459,721.203z M841.153,682.126
		c6.99,2.27,13.996,4.501,20.967,6.819c6.785,2.256,13.495,4.703,20.322,6.844c2.07,0.649,3.19,1.515,3.532,3.494
		c0.274,1.591,0.947,3.121,1.387,4.691c0.807,2.886-1.673,8.799-4.296,10.458c-0.909,0.575-1.666,0.154-2.508-0.074
		c-6.55-1.771-13.11-3.513-19.66-5.286c-1-0.271-1.724-0.872-2.321-1.695c-5.953-8.188-11.941-16.355-17.919-24.527
		C840.821,682.609,840.987,682.367,841.153,682.126z"/>
	<path fill="#6F80B3" d="M912.388,756.143h57.506c-2.235-0.553-4.519-0.964-6.73-1.578c-8.592-2.384-17.282-4.472-25.883-6.831
		c-2.799-0.768-5.431-0.367-8.196-0.073c-5.889,0.627-11.815,0.961-17.714,1.521c-1.178,0.112-2.81,0.149-3.229,1.357
		c-0.339,0.978,0.69,1.893,1.448,2.689C910.517,754.203,911.461,755.167,912.388,756.143z"/>
	<path fill="#6F80B3" d="M728.017,751.878c-0.978-0.086-1.764-0.229-1.853-1.298c-0.785-0.022-1.57-0.045-2.355-0.067
		c-2.213,2.783-5.578,2.849-8.681,2.514c-4.202-0.453-8.329-1.515-12.473-2.375c-2.653-0.55-3.581,0.192-2.55,2.605
		c0.503,1.191,1.899,1.834,2.63,2.885h53.885C747.141,754.402,737.652,752.728,728.017,751.878z"/>
	<path fill="#6F80B3" d="M684.754,745.661c-0.096,1.611-1.434,1.501-2.484,1.275c-7.519-1.618-15.222-2.497-22.598-4.688
		c-1.141-0.061-2.296-0.038-3.42-0.197c-6.31-0.89-6.364-0.934-9.527,4.23c-1.99,3.25-3.919,6.534-5.75,9.862h55.729
		C692.633,752.763,688.384,749.519,684.754,745.661z"/>
	<path fill="#6F80B3" d="M421.88,756.143c-5.634-0.406-11.264-0.861-16.892-1.353c-7.792-0.682-15.624-0.98-23.434-1.497
		c-5.913-0.392-11.838-0.561-17.732-1.282c-4.673-0.571-9.3,0.605-13.955,0.921c-6.406,0.435-12.736,1.637-19.185,1.7
		c-1.361,0.25-2.71,0.6-4.084,0.737c-2.622,0.262-5.244,0.516-7.866,0.774H421.88z"/>
	<path fill="#6F80B3" d="M290.876,756.143c1.594-2.163,3.979-3.679,5.723-5.711c0.518-0.603,1.276-1.388,0.79-2.189
		c-0.529-0.874-1.542-0.438-2.397-0.282c-14.865,2.715-29.738,5.393-44.586,8.182H290.876z"/>
	<path fill="#6F80B3" d="M618.205,667.72c7.548,5.236,14.483,11.21,21.72,16.825c4.146,3.217,8.347,6.373,12.523,9.557
		c1.165,0.888,2.479,1.672,2.725,3.214c0.219,0.023,0.437,0.051,0.654,0.082c0.982-0.017,1.507,0.444,1.643,1.314
		c18.05,13.096,35.432,26.993,55.012,38.256c2.137,1.229,4.718,2.127,5.975,4.421c0.493,0.015,0.986,0.03,1.478,0.044
		c6.439,3.388,13.597,5.142,20.477,7.527c0.884,0.307,1.657,0.548,1.711,1.546c0.457,0.021,0.915,0.042,1.372,0.063
		c0.129-0.101,0.259-0.201,0.388-0.302c-0.108,0.118-0.216,0.236-0.325,0.356c6.75,0.42,12.104,4.564,18.697,5.419
		c-0.052,0.037-0.103,0.066-0.155,0.101h23.695c-8.359-1.898-16.643-4.102-24.963-6.154c-0.786-0.194-2.044,0.174-2.275-0.852
		c-0.274-1.212,1.191-1.293,1.897-1.868c1.862-1.517,3.794-1.661,6.3-1.1c15.044,3.369,30.105,6.677,45.169,9.974h41.756
		c-0.728-0.452-1.446-0.941-2.152-1.48c-7.088-5.404-14.443-10.518-21.752-15.675c-4.857-3.426-10.994-3.268-16.578-4.428
		c-15.502-3.222-31.094-6.107-46.716-8.81c-7.046-1.219-14.224-1.952-21.38-2.439c-9.211-0.626-17.779-3.088-26.223-6.307
		c-14.032-5.349-28.561-9.593-42.007-16.239c-10.719-5.298-21.558-10.392-32.368-15.535c-1.465-0.697-2.412-1.464-2.464-3.144
		c-0.109-3.555-2.176-6.123-4.9-8.603c-3.089-2.813-7.01-5.018-8.769-8.943c6.297,1.672,12.111,4.459,18.187,6.643
		c3.424,1.231,7.029,1.715,10.497,2.701c1.965,0.559,3.06-0.609,4.385-1.407c4.878-2.935,6.653-2.766,11.065,1.079l1.063,0.76
		c1.562-0.003,2.422,1.222,3.673,1.762c1.248,0.363,2.495,0.725,3.743,1.088c6.259,1.911,11.794,5.224,17.762,7.7
		c4.813,1.996,9.284,4.654,14.326,6.209c-2.504-3.604-6.713-5.361-10.264-7.796c-9.37-6.425-18.884-12.676-28.347-18.987
		c-0.657-0.438-1.027-1-1.149-1.719c-6.336-3.118-11.95-7.166-17.446-11.364c-0.981,0.066-1.535-0.376-1.747-1.227
		c-0.436-0.29-0.871-0.58-1.306-0.87c-1.476,0.055-2.17-0.742-2.51-1.927c-0.193-0.026-0.374-0.083-0.544-0.17
		c-5.74-2.44-10.319-6.454-15.472-9.684c-8.591-5.385-16.995-11.036-25.253-16.842c-2.799-1.968-4.352-1.706-5.972,0.916
		c-0.863,1.397-1.92,2.693-2.889,4.034c-3.119,4.346-6.191,8.72-9.381,13.022c-1.148,1.548-1.291,2.613,0.202,4.222
		C599.345,651.689,607.813,660.511,618.205,667.72z"/>
	<path fill="#6F80B3" d="M502.298,756.143c0.03-0.022,0.061-0.041,0.09-0.064c-0.989,0.017-1.977,0.044-2.966,0.064H502.298z"/>
	<path fill="#787C99" d="M389.366,499.536c-4.764,1.297-7.393,5.179-10.954,7.866c-8.105,6.114-15.565,12.939-23.561,19.181
		c-7.467,5.829-13.669,12.861-21.151,18.593c-8.799,6.741-13.938,15.698-19.555,24.438c-8.289,12.9-16.542,25.82-24.804,38.735
		c-0.641,1.002-1.238,2.027-1.833,3.053c-2.017,3.477-1.761,3.782,2.408,4.218c8.395,0.879,16.779,1.861,25.158,2.865
		c2.49,0.298,3.7,1.135,2.63,3.913c-2.442,6.338-4.874,12.73-6.47,19.273c-1.087,4.458-4.824,5.656-8.177,7.463
		c-6.445,3.473-12.999,6.783-19.589,10.022c-1.829,0.899-2.307,2.02-2.523,3.836c-1.135,9.527-2.525,19.028-3.754,28.546
		c-0.222,1.72-1.452,1.641-2.738,1.643c-4.833,0.009-9.704,0.354-14.489-0.085c-5.552-0.51-9.505,1.96-13.942,4.359
		c-9.422,5.094-13.846,13.906-20.221,21.277c-1.75,2.023-2.907,5.76-5.569,5.43c-1.972-0.244-2.114-4.261-2.952-6.617
		c-1.74-4.892-1.635-4.926-6.649-2.628c-13.073,5.989-26.163,11.948-39.202,18c-2.343,1.087-4.668,1.597-7.293,1.543
		c-5.593-0.114-11.195,0.083-16.786-0.062c-9.123-0.237-18.23-0.994-27.37-0.679c-0.892,0.031-1.803,0.03-2.369-0.792
		c9.795-3.02,19.567-6.106,29.392-9.042c10.578-3.161,21.212-6.164,31.802-9.291c0.923-0.272,1.934-0.78,2.518-1.458
		c9.058-10.51,18.121-21.018,27.025-31.638c3.41-4.067,6.907-7.963,11.828-10.567c3.451-1.826,6.01-4.353,8.228-7.433
		c15.141-21.034,30.432-41.977,45.703-62.932c0.979-1.344,2.198-2.541,3.305-3.806c0.953-0.127,1.337-0.656,1.265-1.505
		c0.02-0.223,0.109-0.419,0.267-0.588c3.886-2.485,6.208-6.226,8.974-9.577c3.54-4.289,7.897-8.016,10.639-12.855
		c24.522-22.99,48.093-46.86,74.865-67.765c1.306-0.033,2.068-0.646,2.306-1.816c0.758-0.559,1.516-1.119,2.274-1.678
		c1.306-0.033,2.067-0.647,2.306-1.816c0.504-0.326,1.009-0.653,1.513-0.979c1.147,0.032,1.78-0.736,2.564-1.32
		c7.622-5.682,15.149-11.479,22.93-16.975c10.383-7.334,20.825-14.613,31.526-21.547c5.109-3.311,9.615-7.469,15.492-9.764
		c-2.263,3.742-6.532,5.504-9.834,8.206c-4.634,3.792-9.7,7.142-14.582,10.681c-7.354,5.422-14.781,10.763-22.039,16.291
		C401.393,488.693,394.723,493.476,389.366,499.536z"/>
	<path fill="#506198" d="M916.11,680.59c0.016-3.581,0.001-7.162,0.066-10.742c0.02-1.104-0.437-2.345,0.766-3.23
		c3.4,0.076,6.596,1.15,9.902,1.674c2.601,0.412,5.331,1.244,7.754-0.615c2.2-0.718,4.409-0.083,6.614-0.039
		c-0.053,2.497,3.13,1.594,3.963,3.16c0.549,2.769,3.474,3.812,5.07,5.834c4.53,5.738,9.886,10.662,16.995,13.746
		c0.042,0.591,0.181,1.135,0.827,1.434l-0.026-0.025c2.205,4.332,5.902,7.768,8.518,11.821c2.082,3.223,5.042,4.99,8.545,6.5
		c8.271,3.565,16.444,7.32,24.697,10.921c3.437,1.5,6.975,2.803,10.468,4.195c-0.047-1.115-0.393-1.749-0.945-2.144
		c-4.84-3.465-9.638-6.987-14.624-10.27c-1.783-1.174-2.589-3.659-5.389-3.502c-0.24-0.028-0.48-0.058-0.719-0.089
		c0,0,0.06,0.042,0.06,0.042c-0.115-1.689-1.798-2.055-2.951-2.786c-1.385-0.878-3.23-1.167-4.053-2.747
		c0.093-3.748,0.186-7.496,0.279-11.244c0.174-0.171,0.347-0.342,0.521-0.513c1.307-0.485,2.614-0.971,3.921-1.456
		c-0.547,2.605,0.691,3.668,3.505,4.198c11.475,2.16,22.897,4.552,34.348,6.823c8.076,1.601,16.165,3.144,24.331,4.729
		c0.164-1.095-0.451-1.545-0.963-2.038c-5.15-4.952-10.309-9.896-15.446-14.859c-0.939-0.907-2.239-1.598-2.377-3.038
		c5.495,2.097,10.655,4.72,15.291,8.165c1.666,4.649,5.436,8.202,7.771,12.491c2.103,3.864,5.843,6.904,6.763,11.349
		c-9.718,2.852-19.846,4.174-29.658,6.654c-6.049,1.529-11.058,5.119-16.629,7.615c-2.499,1.12-4.581,1.25-7.164,0.125
		c-15.559-6.775-31.172-13.447-46.826-20.035c-2.822-1.188-5.921-1.825-8.892-2.716c0.003-1.629-0.158-3.275,0.044-4.882
		c0.361-2.877-0.724-4.523-3.637-6.043c-7.25-3.785-14.041-8.304-21.28-12.108C929.544,683.789,924.394,678.034,916.11,680.59z
		 M1022.857,725.986c-0.063-0.075-0.127-0.15-0.19-0.225c-0.077,0.062-0.153,0.124-0.23,0.186c0.106,0.097,0.212,0.195,0.318,0.292
		C1022.789,726.155,1022.823,726.07,1022.857,725.986z"/>
	<path fill="#8891B3" d="M1055.057,694.494c-4.636-3.445-9.796-6.068-15.29-8.166c-2.82-2.337-6.369-3.641-9.448-5.595
		c-3.019-1.916-5.804-1.392-8.877-0.138c-8.316,3.392-16.71,6.623-25.073,9.919c-1.307,0.485-2.614,0.971-3.92,1.454
		c0.081-1.742,1.795-2.136,2.971-2.895c6.52-4.206,13.06-8.387,19.661-12.486c2.199-1.366,2.591-2.474,0.047-3.785
		c-3.754-1.936-7.523-3.852-11.22-5.877c-1.618-0.886-2.998-0.827-4.583,0.042c-5.544,3.036-11.293,5.781-16.668,9.046
		c-5.564,3.381-10.652,4.332-17.203,1.565c-6.477-2.736-13.186-5.364-20.279-6.78c-0.834-1.566-4.016-0.662-3.963-3.16
		c4.274-0.339,8.545-0.728,12.824-1.009c12.102-0.794,24.236-1.072,36.336-1.996c5.385-0.411,10.832-0.293,16.241-0.775
		c3.389-0.302,6.813,0.207,10.209-0.669c5.755-1.485,9.529,2.266,13.56,4.857c9.263,5.952,18.334,12.155,27.505,18.229
		c11.001,7.286,22.004,14.569,33.047,21.802c7.468,4.891,15.205,9.458,22.448,14.611c5.359,3.813,10.436,8.053,14.186,13.379
		c-0.996,0.962-1.815,0.286-2.613-0.266c-3.229-2.231-6.425-4.501-9.669-6.714c-7.803-5.323-15.4-10.936-23.506-15.84
		c-7.7-4.658-15.854-8.714-23.984-12.739C1063.602,698.431,1059.828,695.557,1055.057,694.494z"/>
	<path fill="#485B93" d="M1069.591,718.335c1.428,0.05,1.989,1.332,3.143,1.828c11.479,4.935,22.927,9.933,34.392,14.899
		c7.206,3.122,14.423,6.223,21.64,9.324c2.061,0.886,2.432,1.695,0.334,3.132c-3.64,2.493-7.24,5.071-10.571,7.897
		c-0.295,0.25-0.6,0.491-0.909,0.728h27.096c-4.204-4.654-8.408-9.309-12.613-13.963c-1.653-0.918-3.583-1.701-2.325-4.027
		c-0.305-1.079-0.97-1.837-2.21-2.086c-0.996,0.962-1.815,0.286-2.613-0.266c-3.229-2.231-6.425-4.502-9.669-6.714
		c-7.803-5.323-15.399-10.936-23.506-15.84c-7.7-4.658-15.854-8.714-23.984-12.739c-4.195-2.077-7.969-4.951-12.739-6.014
		c1.666,4.649,5.436,8.202,7.771,12.491C1064.931,710.849,1068.671,713.889,1069.591,718.335z"/>
	<path fill="#787C99" d="M458.053,447.689c-0.789-0.569-1.495,0.382-2.267,0.104c0.435-1.699,3.185-1.791,3.157-3.812
		c0.594-0.248,1.085-0.118,1.488,0.338c0.019,1.018,0.576,1.469,1.683,1.345c0.227,0.017,0.409,0.108,0.548,0.273
		c0.289,0.494,0.448,1.269,0.888,1.441c4.472,1.755,7.848,5.077,12.158,7.047c5.771,2.639,10.754,6.538,16.765,8.794
		c4.619,2.784,9.382,5.374,13.666,8.604c0.222,1.172,1.221,1.206,2.206,1.263c0,0,0.086,0.08,0.087,0.079
		c0.19,1.208,1.198,1.265,2.21,1.316c0,0,0.08,0.074,0.081,0.074c0.099,1.42,1.46,1.765,2.453,2.438
		c12.685,8.59,25.849,16.559,37.842,26.04c16.044,12.683,32.632,24.788,48.8,37.342c1.995,1.549,5.12,2.37,5.65,5.317l-0.02,0.021
		c-1.423,0.138-2.543-0.696-3.813-0.975c-1.256-0.276-2.518-1.756-3.948-0.293c-5.615-3.704-12.371-5.097-18.535-7.686
		c-0.787-0.33-1.512-0.857-2.145-1.41c-6.337-5.534-12.672-11.071-18.962-16.65c-9.487-8.415-18.707-17.097-28.481-25.221
		c-7.285-6.055-13.877-12.916-22.643-17.405c-7.276-3.725-14.37-7.751-21.683-11.412c-8.385-4.198-15.482-10.012-23.204-15.039
		C460.78,448.807,459.555,448.032,458.053,447.689z"/>
	<path fill="#41517C" d="M719.229,606.505c-3.058-3.546-7.516-5.444-11.408-7.978c-18.053-11.751-36.222-23.353-54.314-35.055
		c-1.636-1.058-3.393-1.48-5.289-1.696c-1.09-2.632-4.615-1.538-6.207-3.4c0.299-0.278,0.598-0.557,0.897-0.835
		c10.153,2.296,20.086,5.272,29.957,8.393c1.777,0.562,2.796,0.59,3.879-0.684c2.694,0.938,5.716,1.139,8,2.994
		c0.11,0.953,0.698,1.315,1.706,1.156c0.968,0.318,1.936,0.636,2.904,0.954c0.015,0.851,0.141,1.6,1.247,1.893
		c4.691,1.245,7.786,4.677,11.568,7.164c1.581,1.04,2.522,3.094,5.057,2.489c0.194,0.005,0.378,0.047,0.552,0.125
		c0.806,3.922,4.373,5.652,7.399,7.81c0.142,0.142,0.256,0.301,0.341,0.477c-0.159,0.816,0.122,1.405,1.029,1.671
		c2.423,2.27,4.845,4.54,7.268,6.81c0.561,2.195,2.323,3.371,4.361,4.315c2.129,2.038,4.257,4.076,6.385,6.114
		c-0.112,0.807,0.178,1.392,1.079,1.639c1.973,1.738,4.333,3.145,5.598,5.488c-1.431,0.037-2.608-0.45-3.902-1.059
		C731.259,612.433,725.718,608.644,719.229,606.505z"/>
	<path fill="#8891B3" d="M1024.411,756.143c-1.237-0.441-2.463-0.914-3.669-1.439c-0.634-0.018-1.384,0.162-1.883-0.084
		c-6.309-3.107-12.55-0.769-18.747,0.25c-2.365,0.389-4.722,0.822-7.075,1.273H1024.411z"/>
	<path fill="#6F80B3" d="M75.118,756.143c3.994-2.662,8.076-5.295,12.029-8.084c5.067-3.576,10.786-6.368,15.276-10.636
		c-0.375-0.008-0.797-0.124-1.119-0.008c-11.065,3.989-22.13,7.978-33.173,12.014c-6.054,2.213-12.092,4.465-18.131,6.713H75.118z"
		/>
	<path fill="#8891B3" d="M642.01,558.376c1.593,1.862,5.117,0.768,6.207,3.4c-9.769-0.71-19.543-1.359-29.302-2.168
		c-2.946-0.244-4.743-2.52-6.826-4.12c-4.798-3.684-10.241-6.668-14.403-11.044c1.43-1.462,2.691,0.018,3.948,0.294
		c1.271,0.279,2.391,1.113,3.813,0.975c0.272,0.173,0.544,0.346,0.816,0.519c0.065-0.088,0.129-0.176,0.194-0.264
		c-0.33-0.092-0.66-0.184-0.99-0.276c-0.53-2.947-3.655-3.768-5.65-5.317c-16.169-12.554-32.756-24.659-48.8-37.342
		c-11.994-9.481-25.157-17.449-37.842-26.04c-0.994-0.673-2.354-1.018-2.453-2.438c8.23,3.643,15.394,8.842,23.064,13.3
		c9.651,5.61,17.82,12.967,26.664,19.526c14.548,10.789,29.061,21.627,43.252,32.803c4.314,3.398,9.051,5.352,14.229,6.987
		c17.138,5.412,34.28,10.82,51.302,16.526c2.524,0.846,5.367-0.288,7.511,1.554c-1.083,1.274-2.102,1.246-3.879,0.684
		c-9.871-3.122-19.804-6.097-29.957-8.393c-3.906-1.783-8.058-2.75-12.431-3.069C634.348,555.739,637.864,557.824,642.01,558.376z
		 M628.615,553.62c-0.103-0.036-0.221-0.122-0.306-0.099c-0.353,0.093-0.369,0.256-0.037,0.401c0.079,0.035,0.231-0.008,0.312-0.063
		C628.632,553.827,628.607,553.703,628.615,553.62z"/>
	<path fill="#414B6A" d="M719.229,606.505c6.489,2.139,12.03,5.928,18.107,8.787c1.294,0.609,2.471,1.096,3.902,1.059
		c0,0,0.192-0.13,0.192-0.13c-0.008,0.768,0.217,1.399,1.137,1.621c1.835,1.645,3.669,3.29,5.504,4.936
		c0.174,0.843,0.268,1.732,1.37,2.056c1.577,1.415,3.154,2.83,4.731,4.245c0.175,0.842,0.273,1.728,1.377,2.046
		c1.907,1.766,4.248,3.155,5.602,5.402c-2.261,2.016-5.22,1.244-7.878,1.61c-5.908,0.814-11.425,2.88-17.119,4.37
		c-2.009,0.526-3.156,0.215-3.835-1.574C727.96,629.455,723.593,617.98,719.229,606.505z"/>
	<path fill="#8891B3" d="M804.622,658.011c-4.275,0.459-8.619-0.138-12.874,0.86c-3.336,0.783-5.302-1.438-6.884-3.473
		c-3.055-3.932-7.271-6.815-10.656-10.438c-1.276-1.365-3.413-1.301-5.262-1.553c-0.969-0.132-2.104,0.177-2.574-1.001
		c9.496,1.015,18.978,2.157,28.492,3.006c7.891,0.704,15.802,1.197,23.645,2.315c11.429,1.629,22.861,3.239,34.293,4.848
		c0.889,0.125,1.775,0.207,2.269,1.036c-0.892,0.992-2.125,1.172-3.401,1.095c-5.024-0.302-9.937,0.902-14.938,0.888
		c-7.36,0.429-14.769,0.527-22.057,1.438C811.323,657.451,807.863,656.872,804.622,658.011z"/>
	<path fill="#8891B3" d="M458.942,443.981c0.029,2.021-2.722,2.113-3.157,3.812c-0.485,0.26-0.969,0.52-1.453,0.78
		c-5.878,2.295-10.383,6.454-15.492,9.764c-10.701,6.934-21.143,14.213-31.526,21.547c-7.78,5.496-15.308,11.292-22.93,16.975
		c-0.784,0.584-1.417,1.352-2.564,1.32c1.245-3.066,4.556-4.282,6.971-6.207c13.239-10.552,26.696-20.874,40.085-31.267
		c4.913-3.813,9.938-7.51,14.74-11.436C448.03,445.662,453.487,444.893,458.942,443.981z"/>
	<path fill="#616B98" d="M1034.172,756.143c-4.454-0.626-8.85-1.747-13.43-1.439c1.206,0.525,2.432,0.998,3.669,1.439H1034.172z"/>
	<path fill="#B2B9D9" d="M1144.716,756.143H1150c-3.706-3.426-7.423-6.844-11.184-10.219c-2.309-2.072-3.517-5.12-6.744-6.37
		c0.011,0.875,0.022,1.75,0.032,2.625C1136.308,746.834,1140.512,751.489,1144.716,756.143z"/>
	<path fill="#8891B3" d="M913.284,665.034c-8.089-0.662-15.823-2.97-23.764-4.339c-10.054-1.733-19.989-4.045-29.969-6.135
		c-0.576-0.12-1.091-0.483-1.635-0.732c4.25-0.313,8.167,1.187,12.2,1.969c13.914,2.699,27.79,5.561,41.685,8.346
		C912.449,664.273,913.026,664.406,913.284,665.034z"/>
	<path fill="#8891B3" d="M298.556,572.235c-2.742,4.84-7.098,8.567-10.639,12.855c-2.766,3.35-5.088,7.092-8.974,9.577
		C284.079,586.162,289.76,578.056,298.556,572.235z"/>
	<path fill="#8891B3" d="M492.473,463.219c-6.011-2.256-10.994-6.155-16.765-8.794c-4.31-1.971-7.685-5.292-12.158-7.047
		c-0.44-0.173-0.599-0.947-0.888-1.441c4.261,0.509,7.048,3.511,10.538,5.307c6.064,3.121,11.593,7.059,17.775,10.034
		C491.657,461.606,491.982,462.557,492.473,463.219z"/>
	<path fill="#787C99" d="M707.227,581.901c-2.535,0.605-3.476-1.449-5.057-2.489c-3.782-2.487-6.877-5.919-11.568-7.164
		c-1.106-0.294-1.232-1.042-1.247-1.893C697.982,570.737,703.154,575.607,707.227,581.901z"/>
	<path fill="#8891B3" d="M934.598,667.677c-2.423,1.859-5.153,1.027-7.754,0.615c-3.306-0.524-6.502-1.598-9.902-1.674
		c-0.081-0.343-0.162-0.687-0.244-1.03C922.733,665.79,928.426,668.451,934.598,667.677z"/>
	<path fill="#8891B3" d="M715.177,589.837c-3.026-2.159-6.593-3.888-7.399-7.81C710.179,584.682,713.582,586.541,715.177,589.837z"
		/>
	<path fill="#8891B3" d="M1132.072,739.554c0.011,0.875,0.022,1.75,0.032,2.625c-1.653-0.918-3.584-1.701-2.326-4.026
		C1130.98,738.017,1131.562,738.736,1132.072,739.554z"/>
	<path fill="#8891B3" d="M728.175,603.109c-2.038-0.943-3.8-2.12-4.361-4.315C725.763,599.814,727.589,600.936,728.175,603.109z"/>
	<path fill="#8891B3" d="M375.727,502.653c-0.239,1.17-1,1.784-2.306,1.816C373.744,503.389,374.28,502.535,375.727,502.653z"/>
	<path fill="#8891B3" d="M380.308,499.158c-0.239,1.17-1,1.783-2.306,1.816C378.324,499.894,378.86,499.041,380.308,499.158z"/>
	<path fill="#8891B3" d="M755.549,631.124c-1.104-0.318-1.202-1.204-1.377-2.046C755.411,629.321,755.583,630.164,755.549,631.124z"
		/>
	<path fill="#8891B3" d="M749.442,624.833c-1.103-0.324-1.197-1.213-1.37-2.056C749.307,623.027,749.479,623.872,749.442,624.833z"
		/>
	<path fill="#8891B3" d="M510.64,474.481c-1.012-0.051-2.02-0.108-2.21-1.316C509.521,473.105,510.35,473.415,510.64,474.481z"/>
	<path fill="#8891B3" d="M508.344,473.086c-0.984-0.057-1.984-0.091-2.206-1.263C507.197,471.771,508.067,471.993,508.344,473.086z"
		/>
	<path fill="#8891B3" d="M764.735,640.908c-1.101-0.299-1.249-1.165-1.428-2.013C764.563,639.102,764.737,639.952,764.735,640.908z"
		/>
	<path fill="#8891B3" d="M742.567,617.842c-0.92-0.222-1.145-0.853-1.137-1.621C742.522,616.342,742.599,617.06,742.567,617.842z"/>
	<path fill="#8891B3" d="M735.64,610.862c-0.901-0.247-1.191-0.833-1.079-1.639C735.532,609.432,735.756,610.053,735.64,610.862z"/>
	<path fill="#8891B3" d="M686.449,569.401c-1.008,0.159-1.596-0.203-1.706-1.156C685.635,568.231,686.292,568.507,686.449,569.401z"
		/>
	<path fill="#8891B3" d="M716.547,591.985c-0.908-0.266-1.189-0.855-1.029-1.671C716.445,590.569,716.678,591.183,716.547,591.985z"
		/>
	<path fill="#8891B3" d="M278.676,595.255c0.072,0.85-0.312,1.378-1.265,1.505C277.26,595.855,277.881,595.494,278.676,595.255z"/>
	<path fill="#8891B3" d="M462.114,445.664c-1.107,0.125-1.665-0.327-1.683-1.345C461.395,444.344,461.945,444.804,462.114,445.664z"
		/>
	<path fill="#464E64" d="M288.135,737.183c4.342,2.31,8.233,5.604,13.407,6.309c6.357,0.867,12.783,1.314,19.14,2.184
		c2.325,0.318,5.265-0.322,6.665,2.316c1.163,2.19,2.228,4.424,3.336,6.639c6.449-0.063,12.778-1.265,19.185-1.7
		c4.654-0.316,9.281-1.493,13.955-0.921c5.894,0.721,11.82,0.89,17.732,1.282c7.81,0.517,15.642,0.815,23.434,1.497
		c5.628,0.492,11.258,0.948,16.892,1.353h77.543c0.989-0.02,1.977-0.047,2.966-0.064c7.206-14.802,14.405-29.607,21.621-44.405
		c3.454-7.084,7.006-14.128,10.379-21.245c1.211-2.554,2.065-1.843,3.113-0.017c1.094-2.792,2.189-5.584,3.64-9.285
		c1.512,9.921,3.59,18.859,4.005,28.017c1.807,0.233,1.527,1.498,1.559,2.622c0.057,1.938,0.133,3.875,0.201,5.813
		c8.37,7.352,15.768,15.524,23.553,23.37c4.161,4.194,8.379,8.34,12.621,12.465c0.915,0.89,1.819,1.783,2.638,2.731h55.256
		c1.831-3.327,3.76-6.612,5.75-9.862c3.163-5.164,3.217-5.12,9.527-4.23c1.124,0.159,2.279,0.136,3.42,0.197
		c-0.836-2.553-2.914-4.348-4.632-6.361c-0.818,1.969-2.517,0.659-3.486,0.492c-9.427-1.629-18.798-3.527-28.217-5.202
		c-2.276-0.405-4.518-1.119-7.029-0.247c-10.903,3.786-21.901,7.344-32.817,11.1c-2.524,0.869-3.96,0.602-5.601-1.621
		c-7.164-9.702-14.689-19.18-21.878-28.867c-1.808-2.435-4.443-4.556-4.752-7.779c-0.784-8.178-1.6-16.355-2.261-24.542
		c-0.175-2.166-1.111-2.231-2.931-1.553c-6.103,2.274-12.234,4.486-18.352,6.725c-1.332,0.487-2.304,1.404-3.336,2.278
		c-6.233,5.282-12.504,10.526-18.748,15.796c-0.878,0.741-1.653,1.512-2.887,0.466c-2.977-2.522-5.971-5.027-8.987-7.51
		c-1.144-0.942-1.155-1.694-0.291-2.964c1.514-2.227,3.912-3.669,5.519-5.753c1.236-1.603,1.511-2.878-1.401-3.331
		c-9.702-1.508-19.396-3.074-29.047-4.833c-5.693-1.038-10.791-1.034-16.254,1.755c-7.95,4.058-16.607,6.938-24.821,10.588
		c-4.068,1.808-8.73,2.881-11.819,6.149c-3.968,4.199-7.658,8.619-11.446,12.959c-1.063,1.218-1.982,1.492-3.429,0.293
		c-3.188-2.641-6.473-5.193-9.84-7.64c-5.167-3.755-9.422-8.778-16.802-9.409c-4.888-0.418-9.722-1.389-14.567-2.182
		c-1.862-0.304-3.556-0.542-1.775-3.048c5.597-7.878,10.975-15.887,16.385-23.875c3.069-4.531,7.271-8.79,8.846-13.737
		c9.729-30.559,18.725-61.308,24.627-92.727c0.282-1.5,0.893-2.561,1.991-3.592c8.337-7.827,16.837-15.52,24.874-23.599
		c3.931-3.952,8.594-7.377,11.867-11.757c8.158-10.918,15.821-22.145,23.758-33.203c1.032-1.438,1.15-2.727,0.499-4.249
		c-3.604-8.427-7.13-16.883-10.826-25.276c-0.518-1.176-0.433-2.892-2.317-3.347c-0.64,4.352-1.105,8.731-1.954,13.048
		c-1.833,9.323-3.677,18.651-5.881,27.904c-1.376,5.776-0.992,12.061-5.582,17.019c-2.203,2.379-4.053,5.033-6.068,7.558
		c-3.7,4.637-7.405,9.272-11.635,14.568c-1.355-7.774-2.563-14.708-3.816-21.9c-1.427,1.041-1.518,2.238-1.892,3.286
		c-2.439,6.839-4.767,13.712-7.28,20.528c-7.297,19.786-13.909,39.767-20.43,59.774c-0.924,2.833-2.392,5.207-4.734,7.355
		c-3.749,3.438-8.17,6.352-10.846,10.696c-4.732,7.684-9.457,15.372-14.099,23.101c-2.073,3.452-4.627,6.83-5.775,10.549
		c-5.329,17.272-10.265,34.645-15.257,52.003c-0.38,1.321-0.883,2.207-2.145,3.034c-10.084,6.609-20.087,13.319-30.118,19.995
		c-6.96,4.632-13.946,9.232-20.846,13.937C288.559,735.492,286.159,736.132,288.135,737.183z M430.135,724.83
		c6.122-10.691,12.249-21.38,18.271-32.118c1.173-2.091,2.451-3.461,5.23-3.938c3.954-0.678,7.779-1.992,11.659-3.031
		c0.862-0.231,1.838-0.499,2.424,0.317c0.607,0.846-0.142,1.498-0.719,2.132c-10.099,11.106-20.191,22.217-30.284,33.328
		c-3.213,3.536-6.423,7.075-9.634,10.612C426.893,729.168,428.816,727.132,430.135,724.83z M394.211,735.307
		c7.551-8.069,15.096-16.143,22.674-24.19c0.369-0.391,1.057-0.795,1.557-0.757c0.761,0.058,0.774,0.841,0.713,1.398
		c-0.396,3.613,0.772,7.126,0.873,11.518c0.885,2.661-1.236,4.218-4.367,5.474c-6.718,2.695-13.336,5.599-20.009,8.39
		c-0.629,0.263-1.38,0.977-2.036,0.268C392.863,736.598,393.634,735.924,394.211,735.307z"/>
	<path fill="#485E99" d="M637.137,673.481c2.724,2.481,4.791,5.049,4.9,8.603c0.052,1.68,0.998,2.447,2.464,3.144
		c10.809,5.143,21.649,10.236,32.368,15.535c13.446,6.647,27.975,10.89,42.007,16.239c8.445,3.219,17.012,5.681,26.223,6.307
		c7.156,0.486,14.335,1.219,21.38,2.439c15.622,2.704,31.214,5.589,46.716,8.81c5.584,1.161,11.721,1.002,16.578,4.428
		c7.31,5.156,14.664,10.271,21.752,15.675c0.707,0.539,1.424,1.029,2.152,1.48h58.71c-0.927-0.976-1.871-1.94-2.798-2.914
		c-0.758-0.797-1.787-1.711-1.448-2.689c0.419-1.208,2.051-1.245,3.229-1.357c5.899-0.56,11.825-0.894,17.714-1.521
		c2.765-0.294,5.397-0.695,8.196,0.073c8.601,2.359,17.29,4.447,25.883,6.831c2.211,0.613,4.495,1.025,6.73,1.578h23.143
		c2.353-0.451,4.71-0.884,7.075-1.273c6.197-1.02,12.438-3.358,18.747-0.25c0.5,0.246,1.25,0.066,1.883,0.084
		c4.58-0.307,8.976,0.814,13.43,1.439h11.24c-14.42-3.754-28.811-7.61-43.313-11.078c-5.005-1.197-9.855-3.509-15.455-2.298
		c-6.128,1.325-12.371,2.232-18.592,3.161c-2.723,0.406-5.425,1.437-8.219,0.966c-13.018-2.198-26.085-4.211-39.002-6.84
		c-8.37-1.704-16.255-1.963-24.288,1.304c-5.189,2.11-10.806,3.327-16.185,5.062c-1.664,0.537-3.119,0.548-4.766-0.015
		c-13.404-4.585-26.784-9.24-40.282-13.583c-4.089-1.316-7.868-3.814-12.663-3.119c-4.225,0.613-8.516,0.844-12.78,1.231
		c-1.727,0.157-3.246-0.333-4.621-1.286c-9.678-6.709-19.352-13.421-29.058-20.096c-0.927-0.638-1.888-1.088-2.017-2.328
		c-0.734-7.01-1.519-14.016-2.287-21.024c-1.26-5.667-5.435-9.98-8.349-14.87c-1.115-1.87-1.843-4.057-3.874-5.409
		c-3.529-1.809-7.039-2.844-11.304-1.892c-5.322,1.189-10.825,1.7-16.249,2.505c-4.526,1.192-8.994,1.612-13.785,0.876
		c-9.187-1.412-18.456-2.438-27.727-3.301c-5.758-0.536-11.434-1.936-17.289-1.537c0.122,0.718,0.492,1.281,1.149,1.719
		c9.463,6.312,18.977,12.562,28.347,18.987c3.551,2.435,7.76,4.192,10.265,7.796c-5.042-1.555-9.513-4.213-14.326-6.209
		c-5.968-2.475-11.502-5.788-17.762-7.7c1.571,2.671,4.79,3.25,7.316,4.594c16.544,8.797,33.205,17.41,49.818,26.098
		c0.279,0.146,0.437,0.485,0.35,1.317c-4.807-1.798-9.501-3.931-14.442-5.331c-15.899-4.503-28.065-14.576-41.368-22.935
		c-1.999-1.256-5.253-1.707-5.416-4.829c-1.252-0.542-2.111-1.767-3.673-1.764c-0.353-0.253-0.706-0.506-1.061-0.76
		c-4.414-3.846-6.189-4.015-11.067-1.08c-1.325,0.797-2.42,1.966-4.385,1.407c-3.467-0.987-7.072-1.47-10.497-2.701
		c-6.076-2.184-11.891-4.97-18.187-6.643C630.127,668.463,634.048,670.669,637.137,673.481z M729.155,673.246
		c-0.288-0.312-0.408-0.753-0.606-1.134c3.633,1.184,5.879,3.75,8.523,5.813c10.86,8.472,21.423,17.264,32.101,25.933
		c0.478,0.388,1.128,0.779,0.712,1.404c-0.472,0.709-1.362,0.556-2.058,0.33c-6.321-2.051-12.74-3.405-17.27-8.983
		C743.944,688.467,736.328,681.009,729.155,673.246z"/>
	<path fill="#485B93" d="M659.672,742.248c-0.836-2.553-2.914-4.348-4.632-6.361c-4.935-4.926-9.93-9.802-14.786-14.793
		c-4.774-4.906-9.391-9.941-14.106-14.895c-5.38-5.652-10.753-11.311-16.219-16.893c-1.593-1.627-3.494-3.001-5.254-4.492
		c-2.409-4.116-5.889-7.619-9.694-10.426c-13.739-10.135-27.924-19.761-41.852-29.684c-5.063-3.607-10.451-6.855-15.035-11.014
		c0.514-3.622,2.731-5.075,6.732-5.678c8.533-1.287,16.957-3.186,25.426-4.832c2.94-0.582,5.883-1.153,8.818-1.752
		c4.777-0.974,9.492-2.135,13.989,1.038c2.059,1.453,4.263,2.947,7.111,2.973c-3.119,4.346-6.191,8.72-9.38,13.022
		c-1.148,1.548-1.291,2.613,0.202,4.222c8.354,9.007,16.822,17.83,27.213,25.038c7.548,5.236,14.483,11.21,21.72,16.825
		c4.146,3.217,8.347,6.373,12.523,9.557c1.165,0.888,2.479,1.672,2.724,3.215c-0.815,0.073-1.429-0.287-2.09-0.68
		c-8.505-5.049-17.021-10.081-25.552-15.093c-3.307-1.943-6.659-3.821-9.991-5.729c-0.212,0.274-0.424,0.549-0.636,0.823
		c3.492,2.544,7.008,5.06,10.471,7.636c13.539,10.072,27.065,20.156,40.584,30.25c3.234,2.415,6.455,4.848,9.61,7.348
		c0.931,0.737,1.676,2.163-0.449,1.968c-4.353-0.399-9.078-0.089-12.829-2.478c-9.555-6.086-18.886-12.465-28.344-18.68
		c-3.792-2.491-7.681-4.858-11.526-7.281c-0.217,0.254-0.435,0.508-0.652,0.762c2.78,2.261,5.56,4.522,8.341,6.782
		c4.598,3.736,9.323,7.35,13.766,11.234c6.345,5.546,12.543,11.219,20.645,14.674c-1.158,0.772-3.09,1.294-0.473,2.776
		c1.645,0.931,3.023,2.262,4.903,2.882c0.255,0.687,0.83,1.008,1.487,1.406c4.556,2.761,8.977,5.688,12.318,9.745
		c-0.095,1.611-1.433,1.501-2.483,1.275C674.751,745.318,667.048,744.439,659.672,742.248z"/>
	<path fill="#314374" d="M538.094,633.689c4.584,4.159,9.971,7.407,15.035,11.014c13.928,9.923,28.112,19.55,41.852,29.684
		c3.805,2.807,7.286,6.31,9.694,10.426c-7.115-3.167-12.751-8.26-19.158-12.349c-2.557-1.632-5.023-3.385-7.53-5.082
		c-0.334,0.302-0.668,0.603-1.002,0.905c12.547,12.221,25.094,24.443,37.641,36.664c-0.255,0.247-0.51,0.493-0.765,0.74
		c-2.18-1.621-4.387-3.213-6.536-4.868c-9.479-7.301-18.904-14.661-28.421-21.92c-9.355-7.137-18.025-14.877-25.856-23.432
		c-3.577-3.908-7.612-7.463-11.339-11.26c-1.565-1.595-2.696-1.204-3.995,0.204c-5.546,6.013-11.118,12.005-16.697,17.993
		c-0.986,1.058-1.948,2.232-3.728,2.102c-3.064-0.223-6.068,0.72-9.052,0.63c-9.15-0.275-18.264,0.519-27.351,0.98
		c-8.575,0.435-17.207-0.123-25.931,0.772c5.045-2.493,10.074-5.014,15.14-7.47c5.831-2.828,11.813-5.412,17.52-8.434
		c10.783-5.709,22.72-8.421,34.49-11.604c3.882-1.05,7.722-2.261,11.654-3.116C535.659,635.856,536.517,634.344,538.094,633.689z"/>
	<path fill="#314374" d="M600.169,625.438c-2.847-0.026-5.051-1.52-7.111-2.973c-4.497-3.173-9.212-2.012-13.989-1.038
		c-2.936,0.599-5.878,1.17-8.818,1.752c1.174-2.358,3.974-2.753,6.039-3.887c6.178-3.391,12.691-6.268,18.947-9.547
		c2.702-1.416,4.514-0.808,6.754,0.865c15.144,11.309,30.389,22.504,45.621,33.713c1.006,0.74,2.068,1.365,2.142,2.691
		c-5.74-2.44-10.319-6.454-15.472-9.684c-8.591-5.385-16.995-11.036-25.253-16.842c-2.799-1.968-4.352-1.706-5.972,0.916
		C602.196,622.8,601.139,624.096,600.169,625.438z"/>
	<path fill="#314374" d="M656.488,610.589c19.348,0.758,42.791,8.314,55.293,17.744C692.77,622.232,674.629,616.411,656.488,610.589
		z"/>
	<path fill="#314374" d="M652.809,649.111c-1.476,0.055-2.17-0.742-2.51-1.927C651.889,647.003,652.654,647.723,652.809,649.111z"/>
	<path fill="#314374" d="M655.862,651.208c-0.981,0.066-1.535-0.376-1.747-1.227C655.172,649.822,655.777,650.205,655.862,651.208z"
		/>
	<path fill="#414B6A" d="M371.865,591.842c-1.521,3.394-4.655,5.692-7.033,8.49c-3.336,3.925-3.202,8.706-4.274,13.102
		c-4.375,17.935-8.301,35.962-12.37,53.959c-0.498,2.205-2.458,3.518-3.855,5.059c-8.803,9.714-17.832,19.256-26.782,28.858
		c-1.262,1.354-2.61,1.986-4.675,1.297c-2.247-0.749-4.613-1.267-6.974-1.642c-3.018-0.479-3.29-1.599-1.587-3.756
		c5.636-7.135,11.021-14.443,16.846-21.444c2.773-3.334,3.908-6.405,2.326-10.542c-1.537-4.021-2.362-8.278-3.372-12.457
		c-0.913-3.777,1.86-6.652,3.283-9.789c2.674-5.894,5.718-11.651,8.712-17.419c0.96-1.849,0.795-3.451-0.021-5.321
		c-3.008-6.893-5.916-13.826-8.681-20.804c-1.452-3.663,0.03-7.386,0.548-11.009c1.521-10.642,3.435-21.236,5.12-31.859
		c0.178-1.122,0.525-2.03,1.491-2.69c10.442-7.127,20.892-14.244,31.349-21.352c0.184-0.125,0.49-0.098,0.739-0.142
		c-0.45,1.32-0.891,2.641-1.353,3.957c-3.396,9.678-8.211,18.906-10.553,28.934c-0.795,3.406-0.452,7.276-3.322,10.109
		c-4.561,4.502-9.226,8.915-13.811,13.396c-0.737,0.72-2.23,1.306-1.753,2.432c0.5,1.18,2.027,0.597,3.085,0.601
		C347.253,591.853,359.559,591.841,371.865,591.842z"/>
	<path fill="#2B3655" d="M371.865,591.842c-12.306-0.002-24.612,0.011-36.918-0.029c-1.058-0.003-2.585,0.579-3.085-0.601
		c-0.477-1.126,1.016-1.712,1.753-2.432c4.586-4.481,9.251-8.894,13.811-13.396c2.87-2.833,2.527-6.703,3.322-10.109
		c2.342-10.028,7.157-19.256,10.553-28.934c0.462-1.316,0.903-2.638,1.353-3.957c5.878-4.156,9.053-10.338,13.748-15.38
		c1.778,0.102,1.705,1.572,2.092,2.561c1.281,3.273,2.333,6.621,3.63,9.888c0.547,1.378,0.504,3.12,2.249,4.188
		c1.098-4.432,2.127-8.583,3.156-12.734c0.271,0.038,0.543,0.076,0.814,0.113c0,8.888,0,17.776,0,27.428
		c-1.422-3.717-2.58-6.743-3.974-10.388c-0.507,1.713-0.848,2.702-1.09,3.71c-2.519,10.484-5.169,20.944-7.473,31.468
		c-1.31,5.985-3.256,11.862-3.855,17.975C371.936,591.425,371.907,591.634,371.865,591.842z"/>
	<path fill="#414B6A" d="M371.952,591.214c0.599-6.113,2.545-11.99,3.855-17.975c2.304-10.524,4.954-20.984,7.473-31.468
		c0.242-1.009,0.583-1.997,1.09-3.71c1.394,3.645,2.552,6.67,3.974,10.388c0-9.652,0-18.54,0-27.428
		c-0.271-0.038-0.543-0.076-0.814-0.113c-1.029,4.151-2.057,8.302-3.156,12.734c-1.746-1.068-1.703-2.811-2.249-4.188
		c-1.297-3.267-2.349-6.615-3.63-9.888c-0.387-0.989-0.314-2.459-2.092-2.561c4.132-5.292,8.275-10.577,12.377-15.888
		c0.336-0.435,0.397-1.048,0.585-1.578c5.357-6.061,12.027-10.844,18.513-15.785c7.257-5.528,14.685-10.869,22.039-16.291
		c1.142,0.076,1.524,0.603,1.291,1.636c-1.479,6.562-2.975,13.121-4.359,19.7c-0.29,1.377-0.818,1.834-2.281,1.364
		c-0.711-0.228-1.483-0.294-2.217-0.468c-9.161-2.178-6.624-2.424-10.756,5.104c-7.967,14.514-9.652,30.584-13.712,46.059
		c-2.564,9.776-4.569,19.674-7.031,29.474c-0.693,2.759-3.355,4.558-5.22,6.717c-3.841,4.448-7.772,8.831-11.73,13.192
		C373.464,590.724,372.613,590.896,371.952,591.214z"/>
	<path fill="#414B6A" d="M305.59,654.141c-0.618,5.385-1.204,10.773-1.868,16.153c-0.381,3.088-1.165,6.157-1.244,9.246
		c-0.057,2.214-0.843,3.431-3.042,4.164c-5.677,1.894-11.322,3.868-18.092,6.192c8.118-12.53,15.712-24.251,23.306-35.972
		C304.963,653.996,305.277,654.068,305.59,654.141z"/>
	<path fill="#2B3655" d="M804.622,658.011c3.241-1.139,6.702-0.56,10.053-0.979c7.288-0.911,14.697-1.008,22.057-1.438
		c0.834,2.362,3.516,1.971,5.293,2.9c5.727,2.994,12.035,3.8,18.562,4.005c5.659,0.177,11.294,0.936,16.95,1.309
		c1.611,0.106,2.152,1.01,2.7,2.069c2.058,3.986,4.032,8.01,6.177,11.956c1.972,3.627-1.441,5.554-2.973,7.971
		c-1.565,2.47-3.364,0.12-4.845-0.435c-7.262-2.716-14.438-5.622-21.662-8.422c-0.794-0.308-1.715-0.552-2.558-0.51
		c-8.502,0.429-16.932-1.179-25.427-0.725c-9.388,0.502-18.719-1.003-28.091-0.658c-3.302,0.122-2.81-1.293-2.054-3.139
		C800.703,667.267,803.599,662.968,804.622,658.011z"/>
	<path fill="#485E99" d="M916.11,680.59c8.284-2.556,13.434,3.199,19.439,6.354c7.239,3.804,14.03,8.323,21.28,12.108
		c2.913,1.521,3.998,3.167,3.637,6.043c-0.201,1.608-0.041,3.253-0.044,4.882c-3.7-0.139-7.124-1.425-10.684-2.147
		c-0.059-1.226-0.867-1.724-2.069-2.129c-8.383-2.823-16.946-5.256-24.754-9.366c-0.606-0.319-1.462-0.241-2.202-0.347
		c-1.76-1.976-4.39-2.67-6.73-3.766c-6.196-2.9-12.433-5.726-18.659-9.023C902.164,681.553,909.171,681.276,916.11,680.59z"/>
	<path fill="#485E99" d="M841.153,682.126c6.99,2.27,13.996,4.501,20.967,6.819c6.784,2.256,13.495,4.703,20.322,6.844
		c2.07,0.649,3.19,1.515,3.532,3.494c0.274,1.591,0.947,3.121,1.387,4.691c0.807,2.886-1.673,8.799-4.296,10.458
		c-0.909,0.575-1.666,0.154-2.508-0.074c-6.551-1.771-13.11-3.513-19.66-5.286c-1-0.271-1.724-0.872-2.321-1.695
		c-5.953-8.188-11.941-16.355-17.919-24.527C840.821,682.609,840.987,682.367,841.153,682.126z"/>
	<path fill="#41517C" d="M771.884,686.199c-1.26-5.667-5.435-9.98-8.349-14.87c-1.115-1.87-1.843-4.057-3.873-5.409
		c0.335-1.426-2.472-2.906-0.601-3.892c1.575-0.831,2.614,1.371,3.798,2.312c6.801,5.407,14.566,9.553,21.995,14.133
		c5.405,3.332,10.956,6.465,17.371,10.233C791.457,687.396,781.673,686.766,771.884,686.199z"/>
	<path fill="#2B3655" d="M957.264,736.45c-5.958-1.258-10.674-4.417-15.894-6.652c-1.597-0.683-3.056-1.63-4.63-2.365
		c-4.381-2.046-4.398-2.03-2.281-6.231c0.477-0.948,1.038-1.86,1.52-2.806c2.425-4.761,2.381-4.736,5.781-0.605
		C946.897,724.034,952.093,730.233,957.264,736.45z"/>
	<path fill="#506198" d="M920.713,695.989c0.74,0.106,1.596,0.028,2.202,0.347c7.809,4.11,16.371,6.543,24.754,9.366
		c1.203,0.405,2.01,0.903,2.069,2.129c-7.098-1.652-14.144-3.545-21.315-4.868C923.9,702.128,921.63,699.846,920.713,695.989z"/>
	<path fill="#787C99" d="M540.576,756.143c0.214-9.152,1.871-18.19,2.863-27.282c0.614-5.631,1.068-11.276,1.594-16.914
		c-3.449-2.415-3.073-6.35-4.335-9.585c-1.499-3.841-2.168-7.954-3.196-11.95c-1.048-1.826-1.903-2.537-3.113,0.018
		c-3.372,7.116-6.924,14.161-10.379,21.245c-7.216,14.798-14.415,29.603-21.621,44.405c-0.029,0.023-0.061,0.042-0.09,0.064H540.576
		z"/>
	<path fill="#41517C" d="M666.519,728.852c-8.102-3.455-14.3-9.128-20.645-14.674c-4.444-3.884-9.168-7.499-13.766-11.234
		c-2.781-2.26-5.561-4.521-8.341-6.782c0.217-0.254,0.435-0.508,0.652-0.762c3.845,2.423,7.734,4.79,11.526,7.281
		c9.458,6.214,18.789,12.594,28.344,18.68c3.751,2.389,8.475,2.079,12.829,2.478c2.125,0.195,1.38-1.231,0.449-1.968
		c-3.156-2.5-6.376-4.933-9.61-7.348c-13.519-10.094-27.046-20.178-40.584-30.25c-3.463-2.576-6.979-5.092-10.471-7.636
		c0.212-0.274,0.424-0.549,0.636-0.823c3.331,1.908,6.683,3.786,9.991,5.729c8.531,5.011,17.048,10.044,25.552,15.093
		c0.661,0.393,1.275,0.753,2.09,0.68c0.22,0.023,0.438,0.05,0.655,0.081c0.059,0.95,0.604,1.39,1.643,1.314
		c18.05,13.096,35.432,26.994,55.012,38.256c2.143,1.233,4.734,2.131,5.987,4.44c-1.528,0.116-2.85-1.434-4.642-0.559
		c0.863,2.964,4.235,4.497,4.603,7.535c-6.851-1.504-13.707-2.99-20.55-4.523c-2.048-0.459-4.062-0.74-6.023-1.809
		C683.507,737.502,674.98,733.227,666.519,728.852z"/>
	<path fill="#5F6681" d="M585.719,756.143c-0.819-0.948-1.723-1.841-2.638-2.731c-4.243-4.124-8.461-8.271-12.621-12.465
		c-7.785-7.846-15.183-16.018-23.553-23.37c-0.063,10.343-0.171,20.686-0.149,31.028c0.004,1.993-0.317,3.702-2.163,4.899
		c-1.109,0.719-1.448,1.65-1.583,2.638H585.719z"/>
	<path fill="#8891B3" d="M760.832,749.989c8.32,2.051,16.604,4.256,24.963,6.154h26.127c-15.064-3.297-30.124-6.605-45.169-9.974
		c-2.506-0.561-4.438-0.417-6.3,1.1c-0.706,0.575-2.171,0.656-1.897,1.868C758.788,750.163,760.046,749.796,760.832,749.989z"/>
	<path fill="#787C99" d="M666.519,728.852c8.461,4.375,16.988,8.65,25.336,13.199c1.961,1.069,3.975,1.35,6.023,1.809
		c6.844,1.533,13.699,3.019,20.55,4.523c1.441,1.457,3.496,1.612,5.381,2.13c-2.214,2.782-5.578,2.849-8.682,2.514
		c-4.202-0.454-8.329-1.515-12.473-2.375c-2.653-0.55-3.581,0.192-2.55,2.605c-1.545-0.566-1.978-2.053-2.921-3.092
		c-6.38-7.031-15.485-10.569-23.484-15.514c-0.654-0.404-1.784-1.06-2.752-0.143c-1.879-0.62-3.258-1.951-4.903-2.882
		C663.429,730.146,665.362,729.624,666.519,728.852z"/>
	<path fill="#314374" d="M680.981,677.166c1.571,2.671,4.79,3.25,7.316,4.594c16.544,8.797,33.205,17.41,49.818,26.098
		c0.279,0.146,0.437,0.485,0.35,1.317c-4.807-1.798-9.501-3.931-14.442-5.331c-15.899-4.503-28.065-14.576-41.368-22.935
		c-1.999-1.256-5.253-1.707-5.416-4.829C678.486,676.44,679.734,676.803,680.981,677.166z"/>
	<path fill="#8891B3" d="M543.011,756.143c0.135-0.988,0.474-1.92,1.583-2.638c1.847-1.197,2.168-2.906,2.163-4.899
		c-0.023-10.343,0.086-20.685,0.149-31.028c-0.068-1.938-0.144-3.875-0.201-5.813c-0.033-1.124,0.248-2.389-1.559-2.622
		c-0.037,0.935-0.074,1.87-0.112,2.804c-0.527,5.638-0.981,11.283-1.595,16.913c-0.992,9.091-2.648,18.13-2.863,27.282H543.011z"/>
	<path fill="#8891B3" d="M672.435,735.916c4.556,2.761,8.977,5.688,12.318,9.744c3.631,3.859,7.879,7.102,11.951,10.482h6.03
		c-0.731-1.051-2.127-1.694-2.63-2.885c-1.545-0.566-1.978-2.053-2.921-3.092c-6.38-7.031-15.485-10.569-23.484-15.514
		c-0.654-0.404-1.784-1.06-2.752-0.143C671.204,735.197,671.779,735.518,672.435,735.916z"/>
	<path fill="#B2B9D9" d="M728.017,751.878c9.635,0.85,19.124,2.524,28.603,4.265h5.479c0.052-0.034,0.103-0.063,0.155-0.101
		c-6.594-0.855-11.947-4.999-18.698-5.418l-0.063-0.055c-0.457-0.021-0.915-0.042-1.372-0.063c-3.105-0.813-6.259-1.499-9.301-2.476
		c-3.185-1.023-5.665-0.999-6.657,2.549C726.253,751.649,727.039,751.792,728.017,751.878z"/>
	<path fill="#616B98" d="M742.121,750.507c-3.105-0.813-6.259-1.499-9.301-2.476c-3.185-1.023-5.665-0.999-6.657,2.549
		c-0.785-0.022-1.57-0.044-2.354-0.066c-1.884-0.518-3.939-0.674-5.38-2.13c-0.368-3.038-3.74-4.571-4.603-7.535
		c1.792-0.875,3.114,0.675,4.642,0.559c0,0-0.037-0.019-0.037-0.019c0.477,0.703,0.976,0.772,1.503,0.045
		c6.439,3.388,13.597,5.142,20.477,7.527C741.295,749.267,742.067,749.508,742.121,750.507z"/>
	<path fill="#485B93" d="M657.469,698.712c-1.039,0.077-1.584-0.364-1.643-1.314C656.808,697.381,657.333,697.842,657.469,698.712z"
		/>
	<path fill="#41517C" d="M719.934,741.433c-0.528,0.727-1.027,0.658-1.503-0.045C718.932,741.403,719.433,741.418,719.934,741.433z"
		/>
	<path fill="#314374" d="M673.565,674.315c-0.353-0.253-0.706-0.506-1.061-0.759C672.857,673.809,673.211,674.062,673.565,674.315z"
		/>
	<path fill="#485E99" d="M628.362,664.525c-0.111-0.05-0.221-0.1-0.332-0.15c0.107,0.053,0.215,0.105,0.322,0.158
		C628.352,664.534,628.362,664.525,628.362,664.525z"/>
	<path fill="#616B98" d="M945.175,670.798c7.093,1.415,13.802,4.044,20.279,6.78c6.551,2.767,11.638,1.815,17.203-1.565
		c5.375-3.265,11.124-6.011,16.668-9.046c1.586-0.868,2.966-0.928,4.583-0.042c3.697,2.025,7.465,3.941,11.22,5.877
		c2.543,1.311,2.152,2.419-0.047,3.785c-6.6,4.099-13.141,8.28-19.661,12.486c-1.176,0.758-2.891,1.152-2.971,2.895
		c-0.175,0.173-0.348,0.344-0.524,0.515c-4.214,0.653-7.082,3.3-10.105,5.714c-0.511,0.001-1.021,0.002-1.532,0.003
		c-3.901-2.428-7.49-5.355-12.246-6.413c0,0,0.026,0.025,0.026,0.025c0.01-0.616-0.166-1.142-0.827-1.434
		c-7.11-3.084-12.466-8.007-16.995-13.746C948.649,674.61,945.724,673.567,945.175,670.798z"/>
	<path fill="#41517C" d="M996.369,690.514c8.363-3.295,16.757-6.527,25.073-9.919c3.073-1.253,5.858-1.777,8.877,0.138
		c3.079,1.954,6.628,3.258,9.448,5.595c0.139,1.441,1.438,2.132,2.377,3.039c5.137,4.963,10.296,9.907,15.446,14.859
		c0.512,0.492,1.127,0.943,0.963,2.038c-8.166-1.585-16.255-3.128-24.331-4.729c-11.45-2.271-22.873-4.663-34.348-6.823
		C997.059,694.182,995.822,693.118,996.369,690.514z"/>
	<path fill="#8891B3" d="M968.041,691.787c4.757,1.057,8.345,3.985,12.246,6.412c0.007,0.944,0.024,1.903,1.105,2.419
		c5.817,2.774,11.018,6.58,17.26,8.643c0,0-0.06-0.042-0.06-0.041c0.192,0.351,0.416,0.492,0.719,0.089
		c2.8-0.157,3.606,2.328,5.389,3.502c4.986,3.282,9.784,6.804,14.624,10.27c0.552,0.395,0.898,1.03,0.945,2.144
		c-3.492-1.392-7.031-2.695-10.468-4.195c-8.253-3.601-16.426-7.356-24.697-10.921c-3.503-1.51-6.464-3.276-8.545-6.5
		C973.943,699.555,970.245,696.119,968.041,691.787z"/>
	<path fill="#8891B3" d="M981.819,698.197c3.024-2.415,5.891-5.061,10.105-5.714c-0.091,3.748-0.184,7.496-0.276,11.244
		C987.847,702.666,984.725,700.593,981.819,698.197z"/>
	<path fill="#B2B9D9" d="M981.819,698.197c2.905,2.397,6.028,4.469,9.829,5.53c0.822,1.58,2.667,1.869,4.052,2.747
		c1.153,0.731,2.836,1.097,2.951,2.786c-6.241-2.063-11.442-5.869-17.259-8.643c-1.081-0.516-1.098-1.474-1.105-2.419
		C980.798,698.199,981.309,698.198,981.819,698.197z"/>
	<path fill="#8891B3" d="M1022.857,725.986c-0.034,0.085-0.068,0.169-0.102,0.254c-0.106-0.097-0.212-0.195-0.318-0.292
		c0.077-0.062,0.153-0.124,0.23-0.186C1022.73,725.836,1022.794,725.911,1022.857,725.986z"/>
	<path fill="#8891B3" d="M967.241,690.377c0.661,0.292,0.836,0.818,0.827,1.434C967.421,691.513,967.282,690.968,967.241,690.377z"
		/>
	<path fill="#B2B9D9" d="M999.311,709.308c-0.304,0.402-0.527,0.262-0.719-0.089C998.831,709.25,999.071,709.28,999.311,709.308z"/>
	<path fill="#5F6681" d="M642.01,558.376c-4.146-0.552-7.662-2.637-11.534-3.903c4.372,0.318,8.525,1.285,12.431,3.069
		C642.609,557.82,642.309,558.098,642.01,558.376z"/>
	<path fill="#5F6681" d="M628.615,553.62c-0.008,0.083,0.017,0.207-0.031,0.239c-0.081,0.054-0.233,0.097-0.312,0.063
		c-0.331-0.145-0.316-0.307,0.037-0.401C628.394,553.499,628.512,553.584,628.615,553.62z"/>
	<path fill="#787C99" d="M605.467,545.692c0.33,0.092,0.66,0.184,0.99,0.276c-0.065,0.088-0.129,0.176-0.194,0.264
		c-0.272-0.173-0.544-0.346-0.816-0.519C605.447,545.714,605.467,545.692,605.467,545.692z"/>
	<path fill="#2B3655" d="M427.082,732.132c-0.189-2.964,1.734-5.001,3.053-7.303c6.122-10.691,12.25-21.38,18.271-32.118
		c1.173-2.091,2.451-3.461,5.23-3.938c3.954-0.678,7.778-1.992,11.659-3.031c0.862-0.231,1.838-0.499,2.424,0.317
		c0.607,0.846-0.142,1.498-0.719,2.132c-10.099,11.106-20.191,22.217-30.284,33.328
		C433.503,725.057,430.293,728.595,427.082,732.132z"/>
	<path fill="#5F6681" d="M420.027,723.276c0.885,2.661-1.236,4.218-4.367,5.474c-6.718,2.695-13.336,5.599-20.009,8.39
		c-0.629,0.263-1.38,0.977-2.036,0.268c-0.751-0.812,0.019-1.486,0.596-2.102c7.551-8.069,15.096-16.143,22.674-24.19
		c0.369-0.391,1.057-0.795,1.557-0.757c0.761,0.058,0.774,0.841,0.713,1.398C418.759,715.372,419.926,718.884,420.027,723.276z"/>
	<path fill="#5F6681" d="M545.146,709.143c-0.037,0.935-0.074,1.87-0.112,2.804c-3.45-2.416-3.074-6.352-4.336-9.586
		c-1.499-3.841-2.168-7.954-3.196-11.95c1.094-2.792,2.189-5.584,3.64-9.285C542.654,691.048,544.731,699.986,545.146,709.143z"/>
	<path fill="#506198" d="M728.549,672.112c3.633,1.184,5.879,3.75,8.523,5.813c10.86,8.472,21.423,17.264,32.101,25.933
		c0.478,0.388,1.128,0.779,0.712,1.404c-0.472,0.709-1.362,0.556-2.058,0.33c-6.321-2.051-12.74-3.405-17.27-8.983
		c-6.612-8.142-14.229-15.6-21.401-23.363C728.868,672.935,728.747,672.493,728.549,672.112z"/>
	<path fill="#6F80B3" d="M713.085,691.096c0.11,0.049,0.22,0.098,0.33,0.147c-0.106-0.053-0.212-0.106-0.317-0.159
		C713.098,691.084,713.085,691.096,713.085,691.096z"/>
</g>
</svg>
