<?xml version="1.0" encoding="utf-8"?>
<!-- Designed by Vexels.com - 2016 All Rights Reserved - https://vexels.com/terms-and-conditions/  -->

<svg version="1.1" id="Layer_1" xmlns="http://www.w3.org/2000/svg" xmlns:xlink="http://www.w3.org/1999/xlink" x="0px" y="0px"
	 width="400px" height="400px" viewBox="0 0 1200 1200" enable-background="new 0 0 1200 1200" xml:space="preserve">
<g>
	<path fill="#222232" d="M349.583,539.232c2.457,14.606,36.549,22.512,35.935,26.766c-0.603,4.266,0.615,9.749,0,20.089
		c-0.603,10.352,5.472,3.06,8.532,6.699c3.036,3.652,0,5.472-1.229,10.364c-1.206,4.868,2.445,4.868,4.892,7.303
		c2.411,2.423,0.591,7.906,0.591,12.172c0,4.254,4.857,4.254,9.134,3.663c4.254-0.614,6.074-6.098,8.52-10.363
		c2.435-4.254,6.689-4.869,6.689-4.869c0,1.82-2.446,14.003-4.857,17.041c-2.435,3.048-3.038,1.82-7.929,16.437
		c-4.868,14.618,12.787,0.615,16.438-4.254c3.663-4.88,6.097-10.954,9.134-20.089c3.06-9.134,6.074-13.411,6.074-13.411
		c8.532-10.931,8.555-0.592,8.555-0.592c-7.314,18.247,2.412,14.618,2.412,14.618c5.483-3.651,9.76-14.026,9.76-14.026l3.641-27.381
		c0,0,40.177,3.06,41.383,9.158c1.24,6.074-4.242,49.903-1.206,67.558c3.038,17.654,0,26.789,11.581,35.924
		c11.557,9.11,8.52,9.725,12.172,23.728c3.651,14.015,4.869,32.886,8.52,48.709c3.639,15.823,8.519,26.789,8.519,26.789
		c0,1.832-1.239,4.254-6.688,3.652c-5.483-0.615-10.364,2.423-11.569,6.086c-1.23,3.651,0.602,17.643,0,26.163
		c-0.603,8.543,1.808,7.928,7.302,9.748c5.471,1.832,27.403,8.532,27.403,8.532c-21.932,25.572-10.375,94.961-4.278,121.148
		c6.098,26.174,3.038,33.466-1.217,51.735c-4.266,18.268-9.737,32.886-12.775,38.369c-3.06,5.448-1.832,10.34-9.134,13.376
		c-7.314,3.038-10.966-0.614-14.003,4.254c-3.06,4.881-6.098,21.921-3.038,26.79c3.038,4.856,2.412,6.096,0.603,19.474
		c-1.437,10.56-6.989,21.364-11.684,29.408h189.308c6.886-4.648,11.001-13.318,10.479-22.709
		c-0.591-10.966-13.991-10.966-24.343-9.737c-10.351,1.194-25.583-1.229-32.886-9.134c-7.291-7.929-1.832-23.137-2.423-33.501
		c-0.614-10.328-1.24-18.246-4.868-24.957c-3.675-6.701-1.23,5.483-7.917,1.229c-6.701-4.266-12.172-16.448-13.4-20.692
		c-1.218-4.265-2.435-17.654,7.302-35.923c9.749-18.269,17.643-38.347,24.957-53.578c7.314-15.208,13.39-45.034,19.486-60.869
		c6.098-15.823,17.041-23.137,17.041-23.137c10.954,4.277,28.608,1.832,29.223-0.591c0.591-2.458,7.906-30.441,9.134-32.273
		c1.218-1.82,3.629-9.134-1.229-10.363c-4.857-1.206-0.614,3.06-8.52-3.629c-7.928-6.723-7.928-18.269-7.928-18.269
		c6.723,1.206,21.306-8.543,21.306-8.543c-3.629-7.906-1.206-91.31,0-101.65c1.24-10.351-0.579-17.654,1.832-42.008
		c2.445-24.343-0.591-41.998-1.206-66.341c-0.626-24.343-4.265-18.269-9.134-28.006c-4.869-9.749-3.038-9.749-1.206-17.052
		c1.821-7.314,11.546-4.869,21.307-5.483c9.725-0.591,7.303-1.832,9.725-12.172c2.445-10.352-6.086-18.257-6.086-18.257
		c1.832-15.835,9.134,11.569,15.22,20.703c6.074,9.135,23.127,45.649,23.127,45.649c-3.038,7.907,8.531,21.307,8.531,21.307
		c-2.445,3.651-1.832,17.654,1.206,26.789c3.036,9.123,3.036,10.966,8.531,15.823c5.472,4.869,3.641,14.606,4.869,20.077
		c1.217,5.507-7.302,12.183-7.302,12.183c-11.57,10.954,3.036,10.363,3.036,10.363l-3.639,5.46
		c-10.955,7.303,2.433,7.917,2.433,7.917c3.652-1.229,14.003-9.725,14.003-9.725c0.603,2.423-6.723,12.773-6.723,12.773
		c-5.459,8.532,4.266,6.098,4.266,6.098s12.184-7.314,17.666-12.797c5.471-5.483,7.906-17.041,12.172-33.477
		c4.266-16.438-4.869-26.79-9.737-38.347c-4.881-11.581-7.917-25.572-7.917-25.572c5.483,1.82,8.543-11.569,8.543-11.569
		c-0.626-27.403-12.172-18.269-15.835-22.535c-3.651-4.242-5.483-9.725-6.7-23.728c-1.23-14.003-4.857-33.477-6.086-62.098
		c-1.24-28.609-15.847-52.35-21.318-63.918c-5.448-11.569,0-20.077,0-20.077s8.531-1.217,23.137-7.929
		c14.629-6.688,9.737-9.134,6.074-17.04c-3.629-7.917-7.303-27.403-13.376-45.649c-6.098-18.269-16.438-49.927-16.438-49.927
		c9.134,3.038,14.606-10.34,20.68-14.617c6.096-4.242,9.76-9.725,9.76-9.725c6.075,2.445,10.967-4.869,19.475-5.484
		c8.519-0.614,17.654-4.265,22.534,0c4.845,4.266,9.715,0.615,9.715,0.615l-24.958-37.129c4.278-17.654,0-51.144,0-51.144
		c-8.52-35.309-64.52-40.804-64.52-40.804c-63.304,2.445-63.304,68.195-63.304,68.195c-6.701,13.991-47.481,5.483-47.481,5.483
		c27.403-60.893-14.618-94.961-14.618-94.961c-29.211-32.886-71.209-4.869-71.209-4.869s-7.302-3.674-13.4-4.265
		c-6.086-0.627-31.043-6.701-45.661-9.761c-14.617-3.038-24.957-7.303-34.092-2.435c-9.122,4.881-22.522,14.015-42.008,36.539
		l-32.249,50.517c-14.594-1.832-32.864,9.725-32.864,9.725c-35.321,23.752-23.125,62.099-20.089,70.642
		c3.038,8.52,9.135,17.041,9.135,21.306c0,4.266-9.135,6.689-14.003,9.726c-4.869,3.06-0.626,6.7,4.868,8.52
		c5.472,1.854,8.509,1.83,19.475,4.277c10.966,2.435,16.437,4.857,16.437,4.857c1.832,5.483-5.471,31.067-10.954,48.721
		c-5.483,17.643-16.45,67.558-16.45,85.826c0,14.455,8.787,60.522,12.439,79.128c-0.475-0.036-0.973-0.036-1.472,0
		c-6.701,0.602-20.692-1.821-31.646,1.832c-8.996,3.002-13.864,15.787-15.336,20.309c1.078-0.418,2.956-0.893,6.201-1.449
		C350.823,500.887,347.172,524.615,349.583,539.232z M410.475,267.726c3.036-1.229,10.351-6.098,10.351-6.098
		c14.606-13.388,14.606,11.557,14.606,11.557c-16.02,16.287-25.618,52.489-31.507,90.14
		C400.773,323.275,410.475,267.726,410.475,267.726z M378.215,421.748c-5.495-43.829,18.871-106.542,18.871-106.542
		c-0.394,12.276,3.582,35.842,6.423,50.854c-1.484,9.818-2.736,19.683-3.757,29.292c-4.566,42.474-5.123,79.892-5.702,84.204
		c-0.766,5.61-3.106,5.019-6.399,3.872L378.215,421.748z" />
	<path fill="#222232" d="M333.169,505.743c0,0,0.161-0.614,0.499-1.611C331.082,505.129,333.169,505.743,333.169,505.743z" />
</g>
</svg>