<?xml version="1.0" encoding="utf-8"?>
<!--Designed by Vexels.com - 2017 All Rights Reserved - https://vexels.com/terms-and-conditions/-->
<svg version="1.1" id="Layer_1" xmlns="http://www.w3.org/2000/svg" xmlns:xlink="http://www.w3.org/1999/xlink" x="0px" y="0px"
	 viewBox="0 0 1200 1200" enable-background="new 0 0 1200 1200" xml:space="preserve">
<g>
	<g>
		<path fill="#FDFDFD" d="M735.752,727.484c-5.293,2.732-10.811,4.892-16.233,7.296c-0.974,0.421-1.969,0.8-2.962,1.182h62.936
			c-10.832-3.18-21.76-5.954-32.636-8.951C743.09,725.19,739.527,725.535,735.752,727.484z"/>
		<path fill="#FDFDFD" d="M871.855,733.176c-3.854,1.999-8.015,0.655-12.05,1.42c-3.669,0.695-7.383,1.078-11.11,1.367h215.456
			c-4.296-0.226-8.595-0.359-12.903-0.176c-10.265,0.437-20.493-1.629-30.778-0.927c-3.312,0.641-4.558-0.826-4.314-4.748
			c0.29-4.666,0.092-9.371,0.106-14.059c-1.646,0.258-3.292,0.518-4.939,0.778c-0.341,1.336-1.395,1.414-2.322,1.768
			c-12.949,4.948-25.893,9.917-38.846,14.852c-0.505,0.192-1.092,0.098-1.641,0.137c-2.247,0.461-4.346,3.892-6.789,0.445
			c-7.074-2.124-13.082-6.966-18.93-11.422c-7.669-5.844-15.682-5.669-23.92-4.974c-3.065,0.259-6.153,0.834-9.222,0.651
			c-11.006-0.656-21.845,2.068-32.816,1.941c-4.011,2.311-8.594-0.149-12.626,1.982c-0.607,0.321-1.208,0.656-1.812,0.984
			c3.257,2.387,7.087,3.807,9.596,7.454l-0.078,0.285l0.11-0.27c0.763,0.205,1.912,0.091,1.821,1.35
			C873.764,733.177,872.618,732.974,871.855,733.176z"/>
		<path fill="#FDFDFD" d="M659.486,726.223c-3.664-1.097-7.283-2.288-11.11-2.243c-1.481,0.032-2.961,0.063-4.442,0.095
			c-9.317,0.678-18.552-1.32-27.886-0.946c-10.552,0.424-20.903,2.652-31.37,3.705c-12.949,1.303-25.366,5.24-37.788,9.128h142.55
			c-0.72-0.343-1.418-0.762-2.08-1.307C677.866,732.724,668.783,729.007,659.486,726.223z"/>
		<path fill="#FDFDFD" d="M501.987,735.962h14.063c-0.568-0.075-1.143-0.13-1.73-0.164
			C510.2,735.557,506.092,735.713,501.987,735.962z"/>
		<path fill="#727A81" d="M1016.263,716.049c-1.646,0.26-3.293,0.52-4.94,0.779c-0.821-0.028-1.67-0.225-2.458-0.056
			c-7.152,1.527-14.294,3.118-21.439,4.69c-3.817-1.128-7.672-2.109-11.442-3.415c-6.903-2.392-13.735-4.931-20.664-0.038
			c-0.761,0.538-1.932,0.315-2.914,0.446c-1.499-1.823-3.541-2.408-5.523-3.044c-3.427-1.099-6.888-2.061-10.335-3.08
			c-0.299-1.72-1.423-2.771-2.488-3.805c-11.809-11.461-24.904-20.906-37.46-31.196c-1.158-0.949-2.391-1.667-3.871-1.76
			c-5.047-0.318-10.049-1.176-15.141-1.079c-3.324,0.063-6.963-0.048-9.937-1.493c-8.02-3.898-15.688-8.703-23.114-13.964
			c1.219-1.571,2.846-0.919,4.303-0.945c4-0.073,8.023,0.264,11.916-1.186c3.702,0.517,7.351,0.115,10.968-0.833
			c3.091,2.637,6.149-0.789,9.321-0.044c3.183,0.747,3.745-1.014,2.838-4.508c-2.269-8.746-4.165-17.619-6.21-26.442
			c2.325,0.06,3.399,2.217,4.586,3.896c5.563,7.871,11.001,15.859,16.472,23.816c0.572,0.831,0.804,2.35,2.107,1.743
			c0.95-0.443,0.573-1.677,0.638-2.593c0.978-13.702-1.805-26.595-6.943-38.801c-4.713-11.196-9.982-22.084-14.833-33.207
			c-1.531-3.511-2.066-3.573-4.762-0.646c-5.708,6.194-8.366,15.963-16.783,18.978c-0.238,0.085-0.518,0.768-0.455,1.089
			c0.55,2.802-0.715,6.067,2.894,7.961c2.821,1.48,5.282,4.363,7.312,7.18c2.509,3.482,6.818,4.818,8.276,9.42
			c-4.961,0.102-9.92,0.203-14.879,0.304c-4.761,0.442-9.776-1.865-14.247,1.72c-8.454,5.627-16.896,11.278-25.373,16.86
			c-1.453,0.957-2.986,2.932-4.611,0.077c-3.575-6.283-7.211-12.521-10.822-18.778c2.565,0.79,5.124,1.608,7.697,2.366
			c6.514,1.918,12.955,6.126,19.596,0.068c2.165-1.974,4.817-3.285,7.323-4.721c2.009-1.151,2.197-2.272,0.933-4.484
			c-1.825-3.195-4.279-6.017-5.064-9.916c3.242-1.508,4.183-3.709,1.696-7.053c-0.631-0.848-1.194-1.812-1.597-2.822
			c-2.188-5.477-6.244-9.906-6.959-16.206c1.393-1.648,3.193-1.014,4.829-1.025c8.63-0.057,17.26-0.027,25.89-0.027
			c-6.536-4.462-13.141-8.067-19.88-11.307c-3.402-1.636-3.508-3.637-1.381-6.506c3.368-4.542,6.741-9.079,10.143-13.588
			c1.09-1.445,2.968-2.919,2.095-4.812c-0.721-1.563-2.957-0.945-4.336-0.567c-7.219,1.981-14.612,0.121-21.887,1.716
			c-8.58,1.881-13.807-5.738-19.988-10.471c0.059-1.905,1.168-2.788,2.53-3.467c4.756-2.369,9.53-4.692,14.247-7.158
			c5.248-2.742,10.42-5.368,16.464-3.233c1.36,0.48,3.256,0.674,5.239-1.138c-4.031-1.599-7.577-2.92-11.062-4.428
			c-1.575-0.682-3.804-0.252-4.363-2.947c7.609,1.362,15.181,3.355,22.836,3.941c12.079,0.925,21.186,8.762,30.809,15.634
			c18.867,13.473,37.792,26.839,56.63,40.364c6.663,4.784,13.143,9.902,19.706,14.867c0.005,1.271,0.748,1.928,1.495,2.739
			c4.8,5.211,10.376,9.34,15.627,13.818c21.781,18.577,43.107,37.837,66.27,54.317c23.696,16.86,46.539,35.286,69.821,52.913
			c2.03,1.537,3.366,3.389,4.188,5.847c1.911,5.722,3.763,11.47,5.64,17.208c-1.861-0.348-3.596,0.258-5.373,0.785
			c-2.428,0.72-4.908,1.725-7.439,0.779c-10.124-3.781-20.228-7.637-30.339-11.466c-1.507-4.573-5.178-7.013-7.918-10.345
			c-4.421-5.376-4.521-5.26-6.399,1.429c-0.299,1.064-0.672,2.1-1.01,3.149c-3.035,1.252-6.076,2.488-9.104,3.763
			c-1.689,0.711-3.612,2.567-5.117,1.475c-4.253-3.086-9.317-4.545-13.059-8.598c0.108-1.809,0.233-4.062-2.114-3.367
			C1027.835,713.317,1021.714,712.99,1016.263,716.049z"/>
		<path fill="#24363B" d="M478.345,472.721c1.669-0.752,3.338-1.503,5.007-2.255c1.3,1.357,2.404,1.966,2.598-0.892
			c0,0,0.008-0.008,0.008-0.008c1.598,2.036,3.268-0.398,4.891,0.104c0.105,1.077-0.298,1.847-1.076,2.421
			c-8.842,6.53-17.761,12.928-26.491,19.647c-5.648,4.347-11.9,7.756-16.656,13.545c-4.363,2.92-8.673,5.951-13.1,8.74
			c-12.446,7.842-24.951,15.563-37.396,23.408c-1.006,0.634-3.606,0.879-2.166,3.007c2.047,3.023,0.159,3.894-1.421,5.135
			c-2.084,1.638-4.206,3.217-6.354,4.743c-2.619,1.862-2.643,3.172,0.309,4.765c9.047,4.881,18.002,9.984,27.017,14.943
			c0.859,0.473,1.887,0.542,2.836,0.796c5.029,3.361,9.937,6.921,14.165,11.57c-0.243,2.209-0.669,4.417-0.683,6.628
			c-0.018,2.845-1.36,3.125-3.306,2.807c-9.663-1.575-19.302-3.428-29.006-4.531c-3.622-0.412-7.424-2.452-11.115-0.043
			c-2.3,0.354-4.197-3.684-6.134-1.725c-3.445,3.483-7.725,3.873-11.67,5.519c-2.832,0.179-5.458-0.328-8.158-1.645
			c-5.993-2.924-6.068-2.724-5.699,4.465c-2.241-0.193-4.403,0.279-6.535,1.01c0.132-1.266,0.17-2.557,0.424-3.79
			c0.226-1.096,0.775-2.257,0.025-3.19c-0.915-1.139-1.797,0.099-2.634,0.455c-2.624,1.117-5.302,2.137-7.799,3.559
			c-2.629,1.498-2.811-0.264-2.95-2.409c0.48-1.44,2.078-2.202,1.883-4.303c-5.024,0.725-8.288,6.644-13.664,6.012
			c-5.624,2.753-10.509,6.975-15.722,10.529c-7.827,5.336-15.001,11.883-23.135,16.686c-5.754,0.51-10.337,4.713-15.678,6.508
			c-7.015,2.357-12.54,6.664-15.891,14.412c-2.851,6.591-7.923,11.62-10.325,18.574c-1.831,2.113-4.619,1.883-6.661,3.58
			c0.059,1.494,2.159,1.561,1.838,3.333c-1.288,1.762-2.451,3.609-2.995,5.868c-2.255,0.974-2.489,3.875-4.199,5.573
			c-10.142,10.07-21.403,18.709-30.184,30.532c-2.578-0.186-3.697,2.658-5.787,3.614c-13.638,6.242-26.418,14.997-41.372,17.326
			c-10.672,1.662-21.116,5.02-31.999,5.262c-4.592,0.102-9.168,1.159-13.752,1.781c0.356-2.382,2.279-2.247,3.63-2.667
			c6.787-2.114,13.616-4.056,20.442-6.003c1.553-0.443,2.874-1.234,4.063-2.453c13.43-13.765,26.82-27.584,40.372-41.19
			c2.245-2.254,4.218-5.969,7.492-5.775c7.415,0.438,14.8,1.577,22.192,2.483c1.124,0.138,2.523,0.792,3.223-0.24
			c0.95-1.401-0.675-2.133-1.259-3.122c-2.391-4.052-5.812-7.056-8.478-10.788c-3.586-5.018-7.948-9.21-11.427-14.275
			c-5.077-7.393-5.25-7.545-10.72-0.709c-8.801,11-8.864,11.03-3.956,24.589c0.963,2.66,0.763,4.5-1.053,6.455
			c-6.581,7.084-12.99,14.382-19.681,21.325c-1.756,1.822-3.514,4.021-5.959,4.938c-1.026-1.969,0.072-3.439,0.505-4.822
			c2.518-8.045,5.23-16.011,7.828-24.024c0.36-1.11,1.747-2.352,0.611-3.431c-1.305-1.241-2.295,0.551-3.261,1.302
			c-7.692,5.979-15.375,11.975-23.001,18.062c-4.383,3.499-8.47,7.276-11.401,12.646c-2.825,5.175-6.4,9.807-9.39,14.876
			c-1.795,3.044-3.444,3.285-6.225,1.564c-6.813-4.218-13.421-8.902-20.586-12.357c2.509-2.89,5.672-4.787,8.88-6.105
			c9.54-3.918,16.612-11.961,24.571-18.515c1.165-0.959,2.235-1.921,3.648-2.273c3.853-0.441,7.539-1.773,10.678-4.221
			c2.307-1.799,5.647-2.513,6.401-6.415l-0.029,0.015c1.019,0.128,1.984,0.051,2.71-0.933c1.36,0.062,2.323-0.902,3.449-1.569
			c3.057-1.811,4.897-5.353,7.684-7.281c14.566-10.075,29.344-19.751,43.95-29.754c2.42-1.658,5.657-2.31,6.838-5.919
			c8.18-3.515,16.851-4.957,25.196-7.785c4.177-1.416,7.446-4.177,10.026-8.114c5.229-2.61,9.14-7.199,13.223-11.528
			c9.163-7.645,17.957-15.818,26.523-24.315c2.511-0.363,3.755-3.037,5.956-4.157c9.337-4.753,18.555-9.816,27.777-14.859
			c1.807-0.988,3.635-1.645,5.605-1.873c4.464,1.947,8.284,0.909,12.209-2.301c4.107-3.359,8.907-5.588,13.152-8.753
			c5.255-3.918,11.37-6.297,15.871-11.556c2.313-1.475,4.626-2.95,6.938-4.425c0.255-0.136,0.511-0.271,0.766-0.407
			c3.47-0.297,6.249-2.56,9.234-4.24c8.101-4.079,16.201-8.158,24.302-12.237c1.86,0.775,3.087-0.079,3.905-1.985
			c0.681-0.31,1.362-0.619,2.043-0.929c1.188,0.846,2.155-0.061,3.164-0.541c20.103-9.56,40.264-18.967,60.254-28.826
			C470.514,477.401,475.255,476.878,478.345,472.721z M292.972,582.349c-3.885,3.611-7.788,7.199-11.642,10.853
			c-0.816,0.774-1.401,1.919-0.014,2.673c1.289,0.701,2.862,2.871,4.089,0.989C288.301,592.425,291.859,588.433,292.972,582.349z"/>
		<path fill="#656D77" d="M446.627,505.283c4.757-5.789,11.008-9.198,16.656-13.545c8.73-6.719,17.65-13.117,26.491-19.647
			c0.777-0.574,1.181-1.344,1.076-2.422c0.985-0.454,1.971-0.907,2.956-1.359c0.545-0.235,1.09-0.47,1.635-0.705
			c1.161-0.016,2.251-0.154,2.421-1.86c0,0,0.064-0.061,0.063-0.061c1.002-0.057,2.022-0.073,2.472-1.402
			c0.803,0.255,1.606,0.509,2.409,0.764c4.306,6.69,9.138,12.555,16.421,15.094c3.491,1.217,6.772,3.228,10.265,4.434
			c6.033,2.082,11.543,5.923,17.897,6.886c6.843,2.982,13.645,6.069,20.044,10.191c0.008,1.626,1.247,2.094,2.139,2.753
			c14.32,10.592,28.727,21.033,42.959,31.778c3.189,2.408,5.626,2.075,8.894,0.286c9.038-4.948,17.453-11.294,26.806-15.509
			c1.739,2.038,1.934,5.373,4.38,6.817c-0.434,3.796-0.44,7.743-1.409,11.351c-1.239,4.613,0.633,6.047,3.941,7.033
			c5.677,1.691,11.355,3.409,16.784,6.022c0.734,9.921,2.891,19.597,3.92,29.451c0.406,3.891,1.784,6.388,4.412,8.565
			c11.263,9.333,22.474,18.75,33.677,28.178c5.4,4.544,10.266,9.957,17.339,11.348c6.906,1.359,13.713,3.363,20.584,4.966
			c2.554,0.596,3.604,1.342,2.368,4.784c-2.135,5.947-5.281,11.408-6.573,17.753c-2.347,0.118-3.88-1.761-5.565-3.118
			c-14.479-11.662-28.871-23.471-44.53-33.05c-0.086-2.031-1.463-3.1-2.591-4.249c-7.146-7.279-14.238-14.639-21.593-21.633
			c-1.973-1.876-3.649-5.178-6.485-4.977c-6.005,0.424-12.001,1.31-17.944,2.409c-2.578,0.477-4.681,0.194-6.718-1.617
			c-10.656-9.477-21.266-19.023-32.027-28.343c-5.596-4.847-10.466-11.147-17.042-14.108c-19.134-8.617-38.473-16.64-57.71-24.959
			c-2.548-1.102-3.743-0.568-3.676,2.763c0.085,4.203,0.075,8.412-0.015,12.614c-0.029,1.337,0.713,3.269-0.823,3.865
			c-1.216,0.471-2.287-0.859-3.296-1.758c-2.219-1.977-4.654-3.675-6.701-5.856c-2.013-2.145-3.404-1.516-4.969,0.468
			c-4.339,5.5-8.716,10.96-13.078,16.436c-0.589-0.3-1.177-0.601-1.766-0.901c0.019-10.176-0.113-20.358,0.132-30.527
			c0.099-4.12-0.994-4.724-4.056-3.227c-6.728,3.289-13.479,6.523-20.291,9.574c-2.324,1.041-4.56,3.203-7.137,2.599
			c-4.665-1.094-9.773-1.757-13.621-4.543c-2.024-1.466-1.77-7.042-2.552-10.761c-0.263-1.25-0.604-2.481-0.811-3.742
			C451.697,503.922,451.707,503.919,446.627,505.283z"/>
		<path fill="#4A564F" d="M314.939,735.962c0.496-0.349,0.985-0.732,1.469-1.167c8.957-8.067,17.947-16.086,26.959-24.072
			c3.445-3.052,3.93-2.868,5.333,2.034c1.712,5.978,3.376,11.977,4.916,18.015c0.697,2.733,1.94,3.402,4.356,2.892
			c10.626-2.243,21.279-4.32,31.936-6.372c1.065-0.205,2.248,0.017,3.322,0.306c8.903,2.389,17.778,4.92,26.703,7.196
			c0.966,0.246,1.603,0.554,1.931,1.167h22.544c0.501-1.358,2.052-1.45,3.162-1.878c12.153-4.682,24.334-9.272,36.512-13.871
			c1.877-0.709,3.721-1.469,5.283-2.912c-2.079-6.739-5.374-12.75-8.497-18.882c-2.177-4.275-3.998-8.788-6.164-13.608
			c3.668-0.536,6.123,1.81,8.573,3.151c7.059,3.866,14.414,6.513,22.001,8.385c3.332,0.822,5.987,2.517,8.249,5.41
			c1.277,1.633,2.394,3.699,4.57,4.104c-1.446-5.318-4.818-9.322-7.366-13.867c-7.354-13.115-14.921-26.072-22.444-39.062
			c-0.868-1.499-1.704-2.944-1.746-4.804c-6.026-1.745-11.898-0.472-17.563,1.729c-3.419,1.328-6.547,3.631-9.816,5.472
			c-1.321,0.744-2.719,1.587-3.004-1.183c-3.72,0.117-7.192,1.508-10.594,2.992c-6.821,2.976-14.06,2.699-21.115,3.826
			c-4.156,0.664-8.361,0.913-12.519,1.563c-2.37,0.371-3.094,1.584-1.429,4.226c4.437,7.039,8.671,14.244,12.981,21.386
			c0.992,1.644,2.448,3.843-0.811,3.873c-12.413,0.112-24.828-0.06-37.242-0.153c-0.238-0.002-0.473-0.321-0.71-0.492
			c-2.398,0.299-2.426-3.011-4.223-3.628c-1.015,2.513-2.51,1.239-3.909,0.639c-5.539-2.375-11.062-4.798-16.618-7.121
			c-2.75-1.15-4.026-2.801-4.334-6.601c-0.342-4.209,0.793-9.064-2.316-12.697c-3.025,10.186-7.241,20.146-8.76,30.618
			c-1.723,11.881-9.035,15.991-16.594,20.862c-11.483,7.399-22.875,14.981-34.288,22.523H314.939z"/>
		<path fill="#9FA1A2" d="M671.925,552.182c-5.428-2.613-11.106-4.331-16.783-6.022c-3.309-0.986-5.18-2.42-3.941-7.033
			c0.969-3.608,0.975-7.555,1.408-11.351c1.217-1.259,0.489-3.087,1.029-4.569c1.579-4.331-0.162-5.597-3.712-5.088
			c-3.365-0.991-7.351,2.041-10.237-2.064c8.524-5.533,17.141-10.862,25.949-15.792c2.325-1.302,4.366,0.133,6.543,0.253
			c4.204,0.232,8.419,0.224,12.629,0.314c0.15,4.302,0.869,7.993,4.583,10.587c4.51,3.151,7.593,8.795,12.983,10.485
			c12.747,3.997,25.515,7.918,38.329,11.62c2.758,0.797,3.756,2.182,3.584,5.313c-0.496,9.039,1.408,17.991,0.857,27.046
			c-0.05,0.826-0.313,2.047,1.301,2.174c2.517-7.571,5.153-15.188,7.549-22.902c0.708-2.278,1.802-3.056,3.722-2.849
			c0.68,5.839-0.512,11.612-0.938,17.343c-0.555,7.467,2.295,10.937,7.841,12.906c1.228,2.625,1.48,5.605,1.601,8.408
			c0.127,2.939,0.948,4.69,3.116,6.224c14.033,9.926,27.975,20.019,41.989,29.979c3.838,2.728,4.157,2.44,4.339-2.815
			c3.92,3.067,7.502,2.266,11.269-0.713c3.059-2.419,6.516-4.179,9.797-6.231c0.786,3.9,3.24,6.722,5.065,9.917
			c1.264,2.212,1.076,3.333-0.933,4.484c-2.507,1.437-5.159,2.747-7.323,4.721c-6.641,6.057-13.082,1.85-19.596-0.068
			c-2.573-0.758-5.132-1.576-7.697-2.366c-6.976-2.568-13.796-5.773-21.16-6.751c-3.785-3.137-8.805-2.817-12.589-6.269
			c-8.442-7.702-17.038-15.196-25.771-22.461c-3.205-2.667-5.709-6.758-10.096-7.345c-0.115-2.072-1.682-2.431-2.906-3.056
			c-3.842-1.962-7.673-3.981-11.61-5.667c-6.544-2.803-12.581-7.084-19.509-8.755c-1.142-1.565-2.769-2.269-4.36-2.813
			C689.492,557.979,680.703,555.101,671.925,552.182z M695.818,522.934c-0.046-0.109-0.075-0.235-0.144-0.32
			c-0.043-0.053-0.144-0.043-0.219-0.062c0.116,0.133,0.233,0.265,0.349,0.398c-0.145,1.549,0.346,2.76,1.275,3.917
			c5.706,7.104,11.28,14.35,17.058,21.377c6.135,7.462,6.213,7.379,13.706,0.814c2.922-2.56,2.834-4.941-0.33-6.999
			c-2.569-1.671-5.157-3.315-7.801-4.822C711.664,532.65,704.249,526.68,695.818,522.934z"/>
		<path fill="#B1B1AF" d="M697.557,621.057c15.659,9.58,30.051,21.388,44.53,33.051c1.685,1.357,3.218,3.236,5.565,3.117
			c0.279,0.71,0.382,1.73,0.862,2.086c7.201,5.352,14.036,11.199,20.226,18.059c6.257,6.934,12.727,13.619,19.138,20.371
			c1.727,1.818,1.069,2.684-0.654,3.876c-3.949,2.733-8.146,5.064-11.565,8.724c-4.782,2.253-9.122,5.358-13.418,8.634
			c-2.338,1.783-2.273,2.294,0.211,3.586c3.811,1.983,8.022,2.829,11.593,5.451c-0.62,1.178-1.658,0.973-2.616,1.036
			c-6.668-1.19-13.333-2.398-20.005-3.56c-1.7-0.296-3.71-1.581-4.566,1.524c-3.768-1.821-7.331-1.476-11.106,0.472
			c-5.293,2.732-10.811,4.892-16.232,7.297c-1.075-2.188-4.357,0.799-4.867-2.715c12.616-7.246,25.215-14.531,37.865-21.697
			c1.953-1.106,2.105-2.413,0.947-4.114c-0.925-1.358-1.363-3.263-3.037-3.858c-0.382-2.748-1.99-4.565-3.677-6.321
			c0.205-1.858-1.053-2.98-1.809-4.254c-5.775-9.748-11.828-19.286-17.442-29.152c-5.53-9.719-13.847-14.193-23.054-17.298
			c-8.19-5.775-8.872-5.678-15.606,1.659c-1.32,1.438-3.028,2.445-4.22,3.991c-1.738,2.256-3.342,2.236-5.566,0.917
			c-7.661-4.545-15.445-8.819-23.116-13.343c-2.471-1.457-4.925-2.392-7.708-1.899c-5.176,1.421-10.645,4.498-15.576,3.238
			c-8.008-2.046-16.006-4.972-23.5-9.167c4.875-1.691,10.011-1.618,14.934-1.675c15.108-0.175,30.064-1.387,44.845-5.047
			c0.822-0.204,1.82-0.032,2.025-1.257c0.202-1.202-0.723-1.622-1.452-2.098c-3.306-2.158-6.612-4.319-9.929-6.455
			c-12.287-7.914-24.576-15.824-36.873-23.719c-1.48-0.95-2.871-1.661-4.767-0.789c-5.358,2.466-10.813,4.661-16.252,6.894
			c-0.995,0.408-1.879,0.737-1.907,2.165c-4.548-1.107-7.988-5.366-12.75-5.865c-0.406-1.125-1.272-1.612-2.143-2.173
			c-5.15-3.319-8.2-8.889-11.508-14.177c6.558,1.334,13.056,4.067,19.763,0.642c9.116-4.656,16.998-2.431,24.739,4.659
			c8.076,7.397,17.481,11.83,27.805,14.344c12.08,2.941,24.067,6.566,34.747,14.48C685.814,614.685,691.513,618.329,697.557,621.057
			z M734.061,652.227c-0.105-0.418-0.211-0.837-0.316-1.255c-0.107,0.08-0.214,0.159-0.32,0.239
			c0.209,0.342,0.419,0.684,0.628,1.026c1.138,3.112,2.181,6.275,3.432,9.326c4.009,9.774,8.139,19.482,12.113,29.274
			c0.797,1.964,1.418,1.298,2.287,0.296c0.463,0.763,0.901,1.848,1.849,1.48c1.122-0.435,0.517-1.502,0.332-2.374
			c-0.499-2.349-1.587-4.304-3.01-6.046c0.703-5.941-0.514-11.127-4.498-15.28c-0.613-0.639-0.96-1.602-1.545-2.287
			C741.119,662.068,738.783,655.958,734.061,652.227z"/>
		<path fill="#273932" d="M251.389,679.935c7.431,4.329,14.911,8.549,22.356,12.848c1.328,0.767,2.953,1.165,3.082,3.5
			c0.522,9.464,1.034,18.931,1.739,28.378c0.299,4.001-0.66,6.511-4.376,7.231c-1.658,0.321-3.303,0.999-4.164,2.951
			c0.484,0.523,1.026,0.863,1.593,1.12h22.061c11.412-7.542,22.805-15.123,34.288-22.523c7.559-4.871,14.871-8.98,16.594-20.862
			c1.519-10.472,5.735-20.432,8.76-30.618c-0.016-3.917,0.283-7.864-0.852-11.674c-2.265-8.242-3.414-16.781-5.133-25.168
			c-0.152-0.741-0.551-1.415-0.836-2.12c-0.527,0.052-1.055,0.104-1.582,0.156c-2.676,5.106-7.234,7.97-11.023,11.66
			c-12.868,12.534-26.128,24.506-39.975,35.649c-4.178,3.362-7.834,3.799-12.205,1.886c-1.52,0.575-3.04,1.15-4.558,1.728
			c-2.266,3.385-4.408,5.762-9.006,4.747c-6.623-1.463-13.5-1.421-20.269-2.021C248.295,678.943,250.076,679.17,251.389,679.935z"/>
		<path fill="#858993" d="M757.719,542.304c-1.919-0.207-3.013,0.572-3.721,2.85c-2.396,7.714-5.032,15.331-7.549,22.902
			c-1.614-0.127-1.352-1.348-1.301-2.174c0.551-9.055-1.352-18.007-0.857-27.046c0.172-3.13-0.826-4.516-3.584-5.313
			c-12.814-3.702-25.582-7.623-38.329-11.62c-5.389-1.69-8.473-7.334-12.983-10.485c-3.714-2.594-4.433-6.285-4.583-10.587
			c14.187,0.178,28.447-2.039,42.453,3.171c3.466,1.289,7.788-0.177,11.683-0.702c8.509-1.145,16.992-2.562,25.58-2.682
			c9.062-0.127,17.815,2.572,26.669,4.152c11.346,2.024,22.609,4.68,33.998,6.463c1.098,0.172,2.149,0.747,3.221,1.135
			c0.56,2.695,2.789,2.265,4.363,2.947c3.484,1.508,7.03,2.829,11.062,4.428c-1.982,1.812-3.879,1.618-5.239,1.138
			c-6.044-2.135-11.216,0.491-16.464,3.233c-4.717,2.465-9.491,4.789-14.247,7.158c-1.362,0.679-2.471,1.562-2.529,3.466
			c-4.557-2.585-9.157-0.016-13.725,0.004c-7.71,0.034-15.409,0.955-22.783,3.922c-3.09-0.021-4.688-3.527-7.498-4.2
			c-0.295-0.1-0.59-0.199-0.885-0.299c-0.208-1.187-0.678-2.314-1.868-1.991c-0.998,0.271-0.741,1.555-0.763,2.47
			C757.777,537.196,757.756,539.75,757.719,542.304z"/>
		<path fill="#B1B1AF" d="M844.537,659.034c7.426,5.262,15.094,10.067,23.114,13.964c2.974,1.445,6.612,1.556,9.937,1.493
			c5.093-0.096,10.094,0.761,15.141,1.079c1.48,0.093,2.713,0.811,3.871,1.76c12.556,10.29,25.651,19.734,37.46,31.196
			c1.065,1.034,2.189,2.085,2.487,3.806c-1.916-0.49-3.815-1.085-5.747-1.455c-7.468-1.429-14.694-5.564-22.399-4.039
			c-7.994,1.582-16.093-0.315-24.024,1.713c-1.651,0.422-3.455,0.061-5.189,0.061c3.475-3.216,2.208-5.688,0.335-8.6
			c-2.501-3.888-4.757-8.005-6.858-12.194c-0.697-1.389-1.669-1.674-2.673-2.04c-9.943-3.628-19.909-7.174-29.857-10.786
			c-1.889-0.686-3.248-0.338-4.222,1.825c-1.421,3.157-2.887,6.301-4.527,9.313c-1.619,2.973-1.449,4.829,1.674,6.274
			c3.4,1.572,6.618,3.668,9.893,5.585c10.951,6.412,21.896,12.835,32.828,19.289c0.993,0.586,3.201,0.81,1.053,2.95
			c-4.011,2.311-8.594-0.149-12.626,1.982c-0.607,0.321-1.208,0.656-1.812,0.984c-1.866-1.635-3.141-3.935-5.218-5.405
			c-10.759-7.616-21.319-15.608-32.177-23.031c-5.497-3.758-10.701-8.25-16.936-10.492c-2.266-1.719-4.532-3.437-6.797-5.156
			c-0.95-2.385-3.237-2.32-4.89-3.324c-10.28-6.237-19.115-14.687-27.73-23.455c-2.024-2.06-5.314-2.991-5.637-6.792
			c-0.665-7.827-1.403-15.662-1.652-23.513c-0.101-3.202-1.701-6.333-0.405-10.482c4.494,11.413,8.865,22.026,12.805,32.844
			c1.048,2.876,2.478,4.525,4.8,5.553c9.977,4.42,19.953,8.844,29.941,13.231c1.676,0.736,3.5,1.887,4.686-0.916
			c0.54-0.074,1.08-0.148,1.62-0.222c1.118,1.37,1.479,0.395,1.784-0.754c3.782-0.132,7.48-0.864,11.162-1.846
			C833.311,657.95,838.865,654.719,844.537,659.034z"/>
		<path fill="#132626" d="M52.647,735.742c2.542,0.099,5.112-0.17,7.629,0.144c0.206,0.026,0.413,0.051,0.619,0.077h35.197
			c3.86-0.956,7.677-1.337,11.545-1.174c0.356-2.383,2.279-2.248,3.629-2.668c6.787-2.114,13.616-4.056,20.442-6.003
			c1.553-0.443,2.874-1.234,4.063-2.453c13.43-13.765,26.82-27.584,40.372-41.19c2.245-2.254,4.218-5.969,7.492-5.776
			c7.415,0.438,14.8,1.577,22.192,2.483c1.124,0.138,2.523,0.792,3.223-0.24c0.95-1.401-0.675-2.133-1.259-3.122
			c-2.391-4.052-5.812-7.056-8.478-10.788c-3.586-5.018-7.948-9.21-11.427-14.275c-5.077-7.393-5.25-7.545-10.72-0.709
			c-8.801,11-8.864,11.03-3.956,24.589c0.963,2.66,0.763,4.5-1.053,6.455c-6.581,7.084-12.99,14.382-19.681,21.325
			c-1.756,1.822-3.514,4.021-5.959,4.938c-1.026-1.969,0.072-3.439,0.505-4.822c2.518-8.045,5.23-16.011,7.828-24.024
			c0.36-1.11,1.747-2.352,0.611-3.431c-1.305-1.241-2.295,0.551-3.261,1.302c-7.692,5.979-15.375,11.975-23.001,18.063
			c-4.383,3.499-8.47,7.276-11.401,12.646c-2.825,5.176-6.4,9.807-9.39,14.876c-1.795,3.044-3.444,3.285-6.225,1.564
			c-6.813-4.218-13.421-8.902-20.586-12.357c-10.536,6.068-20.125,13.949-30.301,20.708c-0.556,0.37-1.362,1.552-1.292,1.65
			C50.701,734.51,51.402,735.694,52.647,735.742z"/>
		<path fill="#91928F" d="M489.365,717.301c3.297,4.591,1.223,9.5,0.286,14.112c-0.452,2.221-3.006,2.344-5.027,2.508
			c-1.412,0.115-3.578-1.138-3.845,2.013c0.008,0.012,0.017,0.017,0.026,0.029h21.183c4.105-0.249,8.213-0.405,12.332-0.164
			c0.588,0.034,1.163,0.089,1.73,0.164h30.84c12.422-3.889,24.839-7.826,37.788-9.128c10.466-1.053,20.818-3.281,31.37-3.705
			c9.334-0.375,18.569,1.624,27.885,0.945c-0.025-1.203-0.049-2.407-0.073-3.61c-1.54-4.199-4.37-7.864-4.058-12.829
			c-0.162-0.047-0.327-0.067-0.494-0.06c-2.431-1.772-4.75,0.366-7.133,0.269c-1.288,1.059-2.648,1.919-4.28,2.031
			c-10.864,5.39-21.571,11.529-34.027,9.262c-10.309,0.057-20.618,0.174-30.927,0.13c-2.743-0.012-5.346,0.386-7.787,1.78
			c-4.646,2.651-9.47,2.699-14.418,1.518c-0.957-0.228-1.968-0.411-2.93-0.312c-9.685,0.99-13.135-7.896-17.901-14.704
			c-0.908-0.136-1.566-0.62-1.804-1.69c-2.177-0.404-3.293-2.469-4.571-4.103c-2.262-2.893-4.917-4.587-8.249-5.41
			c-7.587-1.872-14.942-4.519-22.001-8.385c-2.45-1.342-4.905-3.688-8.573-3.151c2.166,4.821,3.987,9.333,6.164,13.608
			C483.991,704.551,487.286,710.562,489.365,717.301z"/>
		<path fill="#4A564F" d="M639.307,707.575c-2.431-1.772-4.75,0.366-7.134,0.268c-0.21-1.479,0.63-2.359,1.364-3.368
			c2.249-3.092,4.35-6.328,6.665-9.351c1.385-1.809,1.227-3.427,0.239-5.264c-1.551-2.884-3.324-5.66-4.544-8.721
			c-2.45-6.151-6.4-11.397-8.145-17.95c8.832,1.271,17.664,2.541,26.496,3.811c0.005,1.131-0.117,2.286,0.036,3.391
			c1.917,13.8,4.008,27.571,5.716,41.404c0.38,3.075,1.327,3.697,3.699,3.659c7.222-0.115,14.447-0.057,21.67-0.036
			c5.664,0.016,11.405-0.581,16.972,0.278c7.721,1.191,15.521-0.117,23.182,1.627c2.482,0.565,3.568-0.733,3.471-3.776
			c-0.175-5.502-0.074-11.015-0.088-16.523c5.251,1.038,10.125,3.534,15.225,5.137c2.013,0.633,4.147,2.331,6.296,0.233
			c1.673,0.598,2.111,2.503,3.036,3.861c1.158,1.701,1.006,3.008-0.947,4.114c-12.651,7.166-25.25,14.451-37.866,21.696
			c-3.596,2.332-7.548,1.665-11.42,1.884c-5.289,0.299-10.633-0.968-15.871,0.706c-9.494-1.931-18.577-5.648-27.874-8.432
			c-3.664-1.097-7.283-2.288-11.11-2.243c1.05-11.47,2.1-22.94,3.15-34.411C646.528,695.091,642.709,701.157,639.307,707.575z"/>
		<path fill="#C2C2C0" d="M876.836,720.227c2.148-2.14-0.061-2.364-1.053-2.95c-10.932-6.454-21.877-12.878-32.828-19.289
			c-3.275-1.918-6.493-4.013-9.893-5.585c-3.124-1.444-3.293-3.3-1.674-6.274c1.64-3.012,3.105-6.156,4.527-9.313
			c0.974-2.163,2.332-2.511,4.222-1.825c9.948,3.612,19.914,7.158,29.857,10.786c1.003,0.366,1.976,0.652,2.673,2.04
			c2.102,4.189,4.357,8.306,6.858,12.194c1.873,2.912,3.14,5.383-0.335,8.6c1.734,0,3.538,0.361,5.189-0.061
			c7.931-2.029,16.03-0.131,24.024-1.713c7.705-1.525,14.932,2.611,22.399,4.039c1.932,0.37,3.831,0.965,5.747,1.455
			c3.448,1.018,6.909,1.98,10.336,3.079c1.982,0.635,4.024,1.221,5.523,3.043c3.097,5.2,7.175,9.632,9.318,15.578
			c-7.074-2.124-13.082-6.966-18.931-11.422c-7.669-5.844-15.682-5.669-23.92-4.974c-3.065,0.259-6.153,0.834-9.222,0.651
			C898.647,717.631,887.808,720.355,876.836,720.227z"/>
		<path fill="#4A564F" d="M207.665,735.962h63.955c-0.567-0.257-1.109-0.597-1.593-1.12c-9.286-2.02-18.155-5.741-27.207-8.718
			c-4.972-1.639-9.942-3.29-14.919-4.91c-1.45-0.472-2.323-1.302-1.53-3.117c4.387-10.036,8.456-20.267,13.815-29.71
			c0.125-0.221,0.503-0.254,0.763-0.374c-0.112-4.354,2.847-7.416,3.659-11.381c-3.902-2.263-6.626-1.285-9.181,3.067
			c-9.094,15.49-18.464,30.767-27.802,46.067c-1.631,2.672-3.007,4.992-0.599,8.094C207.589,734.589,207.813,735.38,207.665,735.962
			z"/>
		<path fill="#4A564F" d="M200.906,735.962c-4.083-0.415-8.162-0.277-12.24,0H200.906z"/>
		<path fill="#9FA1A2" d="M959.892,589.913c4.8,5.211,10.376,9.34,15.627,13.818c21.781,18.577,43.107,37.837,66.27,54.317
			c23.696,16.86,46.539,35.286,69.821,52.913c2.03,1.537,3.366,3.389,4.188,5.847c1.911,5.722,3.763,11.47,5.64,17.208
			c0.114,0.669,0.356,1.305,0.571,1.947H1150c-18.472-14.611-36.919-29.265-55.449-43.779c-24.284-19.02-48.641-37.92-72.976-56.855
			c-16.537-12.868-33.049-25.778-49.664-38.513c-4.404-3.376-8.446-7.466-13.514-9.64
			C958.402,588.445,959.145,589.102,959.892,589.913z"/>
		<path fill="#32433D" d="M421.864,735.962c-0.329-0.613-0.965-0.921-1.931-1.167c-8.925-2.276-17.8-4.808-26.703-7.196
			c-1.074-0.288-2.257-0.511-3.322-0.306c-10.656,2.051-21.309,4.129-31.936,6.372c-2.415,0.51-3.659-0.159-4.356-2.892
			c-1.54-6.038-3.205-12.037-4.916-18.015c-1.403-4.902-1.888-5.086-5.333-2.034c-9.012,7.985-18.002,16.005-26.959,24.072
			c-0.483,0.435-0.972,0.818-1.469,1.167H421.864z"/>
		<path fill="#556054" d="M1051.248,735.786c4.308-0.183,8.607-0.05,12.903,0.176h57.856c-0.216-0.642-0.457-1.278-0.571-1.947
			c-1.861-0.348-3.596,0.258-5.373,0.785c-2.428,0.72-4.908,1.725-7.439,0.779c-10.124-3.781-20.228-7.637-30.339-11.466
			c-5.154-1.768-10.523-2.787-15.328-5.767c-3.035,1.252-6.076,2.488-9.104,3.763c-1.689,0.711-3.612,2.567-5.117,1.475
			c-4.253-3.086-9.317-4.545-13.059-8.598c-5.016,2.581-7.079,8.475-10.584,12.726c-1.685,2.044-4.391,3.701-4.623,7.146
			C1030.755,734.157,1040.983,736.223,1051.248,735.786z"/>
		<path fill="#C2C2C0" d="M403.102,508.737c-0.681,0.31-1.362,0.619-2.043,0.928c-1.757-0.51-2.945,0.446-3.905,1.986
			c-8.101,4.079-16.201,8.158-24.302,12.237c-3.679-0.299-7.001,0.418-9.234,4.24c-0.255,0.136-0.511,0.271-0.767,0.405
			c-0.899-2.727-2.502-1.235-3.856-0.782c-14.825,4.966-29.657,9.907-44.455,14.973c-10.573,3.619-21.331,6.426-29.12,16.967
			c-2.437,3.298-5.119,7.751-9.645,8.692c0.134-1.217,0.862-2.003,1.561-2.81c6.961-8.041,14.328-15.667,20.496-24.536
			c4.355-6.26,10.151-8.659,16.633-10.298c22.657-5.728,45.405-11.089,67.841-17.807c11.669-3.494,22.718-9.651,34.122-14.366
			c3.917-1.62,7.549-4.397,11.941-4.342c-3.831,3.274-8.441,4.784-12.61,7.289C411.583,504.023,406.73,504.979,403.102,508.737z"/>
		<path fill="#32433D" d="M168.284,735.962c0.198-0.044,0.395-0.089,0.593-0.133c4.932,0.057,9.861,0.141,14.741-0.958
			c0.835-0.188,1.673-0.127,2.218-1.081c5.065-8.88,10.774-17.3,14.709-26.987c-2.577-0.185-3.696,2.659-5.785,3.615
			c-13.638,6.242-26.418,14.997-41.372,17.326c-10.672,1.662-21.116,5.02-31.999,5.262c-4.592,0.102-9.169,1.159-13.751,1.782
			c-3.868-0.163-7.685,0.218-11.545,1.174H168.284z"/>
		<path fill="#9FA1A2" d="M275.775,568.383c4.526-0.941,7.208-5.394,9.645-8.692c7.789-10.541,18.547-13.347,29.12-16.967
			c14.799-5.066,29.631-10.007,44.455-14.973c1.354-0.453,2.956-1.945,3.856,0.782c-2.313,1.477-4.625,2.952-6.938,4.425
			c-0.905-0.353-1.634,0.186-2.397,0.598c-10.304,5.563-20.644,11.044-30.895,16.733c-2.741,1.521-5.823,2.489-7.94,5.28
			c-1.97,0.228-3.798,0.884-5.605,1.873c-9.222,5.044-18.44,10.107-27.777,14.859c-2.201,1.12-3.445,3.794-5.957,4.157
			c-1.547-0.202-2.892,0.436-4.201,1.279c-1.479,0.953-1.882-0.152-2.128-1.512C271.268,573.612,273.522,570.998,275.775,568.383z"
			/>
		<path fill="#91928F" d="M639.691,516.055c2.886,4.105,6.871,1.073,10.237,2.063c0.111,1.475-1.17,1.863-1.696,2.84
			c-9.353,4.215-17.768,10.561-26.806,15.509c-3.268,1.789-5.705,2.122-8.894-0.286c-14.232-10.745-28.639-21.186-42.959-31.778
			c-0.892-0.66-2.131-1.127-2.139-2.754c6.856,1.529,13.069,5.204,18.988,8.994c9.769,6.256,20.186,5.685,30.643,5.949
			c2.628-0.094,4.994,1.183,7.121,2.551c3.78,2.432,7.068,1.886,10.532-0.648C636.217,517.399,638.023,516.852,639.691,516.055z"/>
		<path fill="#727A81" d="M800.991,731.19c0.647,1.116,1.884,2.028,1.048,3.7c0.894,0.524,1.826,0.847,2.776,1.072h43.879
			c3.728-0.289,7.441-0.671,11.11-1.367c4.035-0.765,8.197,0.578,12.05-1.42c0.056-0.837,0.112-1.674,0.169-2.512
			c0.002-0.002-0.109,0.269-0.109,0.269l0.078-0.285c-7.905,0.827-15.571-0.362-22.998-3.566c-1.754,0.622-3.503,0.747-5.244-0.064
			c-2.949,2.62-5.934,0.126-8.884-0.006c-4.603-0.205-9.199-0.737-13.784-1.282c-9.496-1.129-16.273-8.934-24.489-13.218
			c-2.782-1.451-5.428-3.245-8.136-4.883l-0.022,0.026c-0.316,1.982,0.823,3.307,1.661,4.755
			C793.722,718.675,797.364,724.928,800.991,731.19z"/>
		<path fill="#C2C2C0" d="M617.065,516.593c-10.457-0.264-20.874,0.307-30.643-5.949c-5.919-3.791-12.132-7.465-18.988-8.994
			c-6.4-4.121-13.202-7.208-20.046-10.187c-0.652-1.892-2.305-2.265-3.648-3.039c-10.188-5.87-20.406-11.669-30.589-17.55
			c-1.328-0.767-3.037-1.057-3.618-3.034c8.129,1.488,15.385,5.964,23.071,8.958c13.315,5.186,26.543,10.727,39.593,16.728
			c14.227,6.543,28.215,13.769,42.294,20.731C615.499,514.754,616.628,515.209,617.065,516.593z"/>
		<path fill="#91928F" d="M871.994,730.647c-7.905,0.827-15.571-0.362-23-3.566c-3.86-4.044-8.923-5.878-13.099-9.337
			c-4.949-4.099-11.318-5.796-14.924-12.215c-4.076-7.256-9.404-13.535-12.903-21.264c6.234,2.242,11.438,6.734,16.935,10.492
			c10.858,7.423,21.418,15.415,32.177,23.031c2.077,1.47,3.353,3.77,5.218,5.405C865.654,725.581,869.485,727,871.994,730.647z"/>
		<path fill="#4A564F" d="M200.377,628.202c-1.181,3.61-4.418,4.262-6.838,5.919c-14.606,10.003-29.383,19.678-43.95,29.754
			c-2.787,1.928-4.627,5.47-7.684,7.281c-1.126,0.667-2.089,1.631-3.451,1.569c-1.296-1.176-1.975-0.019-2.708,0.933
			c0,0,0.029-0.015,0.029-0.015c-2.414,0.495-4.13,2.531-6.236,3.711c-2.39,1.338-4.372,3.965-7.469,2.928
			c10.749-9.349,21.49-18.709,32.248-28.043c6.33-5.492,12.678-10.956,19.042-16.395c0.65-0.555,1.467-0.854,2.207-1.272
			c0.545-0.075,1.099-0.098,1.632-0.234C184.94,632.364,192.452,629.263,200.377,628.202z"/>
		<path fill="#32433D" d="M479.855,735.962c0.308-0.009,0.616-0.02,0.923-0.029c0.267-3.151,2.433-1.898,3.845-2.013
			c2.02-0.164,4.575-0.287,5.027-2.508c0.938-4.612,3.011-9.521-0.286-14.112c-1.562,1.443-3.406,2.203-5.283,2.912
			c-12.178,4.6-24.358,9.189-36.512,13.871c-1.11,0.428-2.661,0.52-3.162,1.878H479.855z"/>
		<path fill="#9FA1A2" d="M961.725,734.032c-2.143-5.946-6.222-10.378-9.318-15.578c0.981-0.129,2.152,0.093,2.913-0.445
			c6.928-4.893,13.76-2.354,20.664,0.038c3.77,1.306,7.625,2.288,11.441,3.414c-0.782,2.498-2.986,2.6-4.645,3.646
			c-4.695,2.961-10.286,3.951-14.266,8.481C966.267,734.048,964.168,737.479,961.725,734.032z"/>
		<path fill="#9FA1A2" d="M200.377,628.202c-7.925,1.061-15.437,4.162-23.177,6.135c-0.533,0.136-1.088,0.159-1.632,0.234
			c3.297-3.951,6.804-7.352,11.657-8.804c13.975-4.182,27.881-8.668,41.835-12.943c2.108-0.646,4.271-1.87,6.538-0.521
			c-2.579,3.937-5.849,6.698-10.025,8.114C217.228,623.245,208.557,624.686,200.377,628.202z"/>
		<path fill="#656D77" d="M804.815,735.962c-0.95-0.225-1.882-0.548-2.776-1.072c-4.202-0.708-8.404-1.417-12.607-2.125
			c-2.09-0.317-4.181-0.634-6.271-0.951c-3.832-1.361-8.001-0.853-11.734-2.767c-6.668-1.19-13.334-2.398-20.005-3.56
			c-1.7-0.296-3.71-1.581-4.566,1.524c10.875,2.996,21.804,5.771,32.636,8.951H804.815z"/>
		<path fill="#C2C2C0" d="M1035.677,714.987c-5.016,2.581-7.079,8.475-10.584,12.726c-1.685,2.044-4.391,3.701-4.623,7.146
			c-3.312,0.641-4.558-0.826-4.314-4.748c0.29-4.666,0.092-9.371,0.106-14.06c5.452-3.06,11.573-2.734,17.301-4.431
			C1035.911,710.925,1035.785,713.178,1035.677,714.987z"/>
		<path fill="#656D77" d="M403.102,508.737c3.628-3.759,8.481-4.714,12.657-7.224c4.169-2.505,8.779-4.015,12.61-7.289
			c15.656-7.617,31.437-14.863,47.566-21.084c0.788-0.304,1.518-0.936,2.41-0.419c-3.09,4.157-7.831,4.679-11.825,6.649
			c-19.991,9.859-40.151,19.266-60.254,28.826C405.256,508.676,404.29,509.584,403.102,508.737z"/>
		<path fill="#B1B1AF" d="M639.307,707.575c3.402-6.418,7.221-12.484,12.219-18.005c-1.05,11.47-2.1,22.94-3.15,34.411
			c-1.481,0.032-2.961,0.063-4.442,0.094c-0.025-1.204-0.049-2.407-0.073-3.612c2.308-3.667-0.428-7.017-0.488-10.53
			c-0.056-3.229-1.604-3.116-3.571-2.298C639.639,707.587,639.474,707.567,639.307,707.575z"/>
		<path fill="#858993" d="M509.533,467.838c0.581,1.977,2.29,2.267,3.618,3.034c10.182,5.882,20.401,11.681,30.589,17.55
			c1.343,0.774,2.996,1.147,3.648,3.039c-6.352-0.966-11.862-4.807-17.895-6.889c-3.494-1.206-6.774-3.217-10.265-4.434
			c-7.283-2.539-12.115-8.404-16.421-15.094C505.349,465.028,507.221,467.124,509.533,467.838z"/>
		<path fill="#656D77" d="M716.557,735.962c0.993-0.383,1.988-0.762,2.962-1.182c-1.075-2.188-4.357,0.799-4.868-2.716
			c-3.596,2.332-7.548,1.665-11.42,1.884c-5.289,0.299-10.633-0.968-15.871,0.706c0.662,0.545,1.36,0.964,2.08,1.307H716.557z"/>
		<path fill="#C2C2C0" d="M968.514,733.587c3.98-4.529,9.571-5.519,14.266-8.481c1.659-1.046,3.864-1.149,4.645-3.646
			c7.146-1.57,14.287-3.161,21.44-4.688c0.789-0.168,1.637,0.028,2.458,0.056c-0.341,1.337-1.395,1.415-2.322,1.77
			c-12.949,4.948-25.893,9.917-38.846,14.852C969.651,733.643,969.063,733.548,968.514,733.587z"/>
		<path fill="#C2C2C0" d="M269.014,576.227c0.246,1.359,0.649,2.465,2.128,1.512c1.309-0.843,2.653-1.481,4.201-1.279
			c-8.566,8.497-17.359,16.67-26.522,24.315c1.272-3.622,3.476-6.478,5.937-9.047C259.603,586.671,263.486,580.458,269.014,576.227z
			"/>
		<path fill="#656D77" d="M122.07,680.281c3.096,1.037,5.079-1.59,7.469-2.928c2.107-1.18,3.822-3.216,6.236-3.711
			c-0.754,3.902-4.093,4.616-6.4,6.415c-3.14,2.448-6.825,3.781-10.678,4.221C118.551,681.544,120.537,681.162,122.07,680.281z"/>
		<path fill="#858993" d="M493.806,468.31c-0.985,0.453-1.97,0.906-2.956,1.359c-1.623-0.502-3.294,1.933-4.892-0.103
			C488.432,467.986,490.71,464.807,493.806,468.31z"/>
		<path fill="#91928F" d="M871.855,733.176c0.056-0.837,0.112-1.674,0.169-2.512c0.764,0.203,1.914,0.089,1.823,1.348
			C873.764,733.177,872.618,732.974,871.855,733.176z"/>
		<path fill="#858993" d="M485.951,469.574c-0.194,2.858-1.298,2.249-2.598,0.892C483.904,468.969,484.967,469.424,485.951,469.574z
			"/>
		<path fill="#858993" d="M500.397,464.281c-0.451,1.329-1.47,1.345-2.472,1.402C498.38,464.365,499.083,463.619,500.397,464.281z"
			/>
		<path fill="#858993" d="M497.861,465.745c-0.169,1.706-1.259,1.844-2.421,1.86C495.608,465.895,496.714,465.784,497.861,465.745z"
			/>
		<path fill="#4A564F" d="M814.809,662.034c-0.54,0.074-1.08,0.148-1.62,0.22c-3.336-0.16-6.147-1.684-8.926-3.792
			c-5.846-4.435-11.751-8.819-17.9-12.661c-3.688-2.304-4.292-5.262-3.661-9.489c0.94-6.295,1.607-12.643,2.39-18.969
			c7.364,0.978,14.184,4.183,21.16,6.751c3.611,6.257,7.247,12.495,10.822,18.778c1.625,2.855,3.158,0.88,4.611-0.077
			c8.476-5.583,16.919-11.233,25.373-16.86c0.045,4.169,2.872,6.815,4.29,10.232c2.921,7.038,7.659,12.999,9.409,20.735
			c-3.893,1.45-7.915,1.113-11.916,1.186c-1.457,0.027-3.084-0.626-4.303,0.945c-5.672-4.315-11.227-1.084-16.783,0.399
			c-3.682,0.983-7.38,1.714-11.162,1.845C815.813,660.961,815.176,661.083,814.809,662.034z"/>
		<path fill="#B1B1AF" d="M768.853,538.665c7.374-2.969,15.074-3.89,22.784-3.924c4.568-0.02,9.169-2.589,13.725-0.004
			c6.181,4.735,11.407,12.354,19.987,10.472c7.275-1.595,14.668,0.265,21.887-1.716c1.379-0.378,3.615-0.996,4.336,0.567
			c0.873,1.892-1.005,3.367-2.095,4.812c-3.402,4.508-6.775,9.045-10.143,13.588c-2.127,2.869-2.022,4.87,1.381,6.506
			c6.74,3.24,13.345,6.845,19.88,11.307c-8.63,0-17.261-0.031-25.89,0.027c-1.636,0.011-3.435-0.623-4.827,1.025
			c-3.105-2.111-4.715-5.328-4.852-9.362c-0.153-4.516-0.046-9.043-0.036-13.566c0.004-1.709-0.057-3.17-2.096-3.372
			c-7.543-0.747-15.06-1.879-22.653-1.807c-0.499,0.001-0.998,0.002-1.497,0.002c-2.582-1.897-5.469-1.056-8.219-1.071
			C781.15,552.1,774.237,547.027,768.853,538.665z"/>
		<path fill="#B1B1AF" d="M876.185,623.91c-1.46-4.601-5.769-5.938-8.278-9.419c-2.03-2.817-4.491-5.7-7.312-7.18
			c-3.609-1.893-2.344-5.158-2.894-7.961c-0.063-0.321,0.216-1.004,0.455-1.089c8.417-3.015,11.075-12.783,16.783-18.978
			c2.697-2.927,3.231-2.865,4.762,0.646c4.851,11.122,10.12,22.011,14.833,33.207c5.138,12.205,7.921,25.099,6.943,38.801
			c-0.065,0.916,0.312,2.151-0.638,2.593c-1.304,0.607-1.536-0.912-2.107-1.743c-5.471-7.956-10.909-15.944-16.472-23.816
			c-1.187-1.679-2.261-3.836-4.586-3.897C877.177,624.686,876.681,624.298,876.185,623.91z"/>
		<path fill="#C2C2C0" d="M800.242,553.218c7.593-0.071,15.11,1.06,22.653,1.807c2.039,0.202,2.1,1.663,2.096,3.372
			c-0.01,4.522-0.117,9.05,0.036,13.566c0.137,4.034,1.747,7.252,4.852,9.362c0.713,6.301,4.769,10.729,6.957,16.206
			c0.404,1.01,0.967,1.974,1.597,2.822c2.487,3.344,1.546,5.544-1.696,7.053c-3.282,2.051-6.739,3.811-9.798,6.23
			c-3.767,2.979-7.349,3.781-11.269,0.713c-0.019-1.777,0.177-3.5,0.45-5.27c0.715-4.636,0.884-9.344-0.782-13.823
			c-2.045-5.495-4.387-10.855-6.235-16.433C806.258,570.237,802.226,562.189,800.242,553.218z"/>
		<path fill="#32433D" d="M860.756,656.903c-1.75-7.736-6.488-13.697-9.409-20.735c-1.418-3.417-4.245-6.063-4.29-10.232
			c4.471-3.585,9.486-1.278,14.249-1.721c3.329,7.321,8.373,13.187,12.815,19.546c5.581,7.988,5.709,7.87-2.122,11.948
			c-0.116,0.06-0.185,0.239-0.275,0.362C868.107,657.018,864.458,657.419,860.756,656.903z"/>
		<path fill="#656D77" d="M871.724,656.07c0.091-0.123,0.159-0.302,0.275-0.362c7.831-4.078,7.703-3.96,2.122-11.948
			c-4.442-6.358-9.487-12.224-12.815-19.546c4.957-0.1,9.917-0.201,14.877-0.303c0.498,0.387,0.994,0.776,1.49,1.164
			c2.045,8.823,3.94,17.696,6.21,26.442c0.906,3.493,0.345,5.255-2.838,4.508C877.873,655.28,874.815,658.706,871.724,656.07z"/>
		<path fill="#656D77" d="M1078.285,724.114c-5.154-1.768-10.523-2.787-15.328-5.767c0.339-1.049,0.712-2.085,1.01-3.149
			c1.878-6.689,1.978-6.805,6.399-1.429C1073.107,717.101,1076.778,719.541,1078.285,724.114z"/>
		<path fill="#888B8C" d="M446.627,505.283c5.081-1.364,5.07-1.361,6.161,5.302c0.207,1.261,0.548,2.493,0.811,3.742
			c0.782,3.719,0.528,9.295,2.552,10.761c3.847,2.786,8.955,3.448,13.621,4.543c2.576,0.604,4.813-1.558,7.137-2.599
			c6.812-3.051,13.563-6.285,20.291-9.574c3.062-1.497,4.155-0.893,4.056,3.227c-0.245,10.169-0.112,20.35-0.131,30.526
			c-5.259-0.992-10.497-2.179-15.782-2.936c-12.544-1.798-25.105-3.477-37.758-3.915c-1.826-0.063-2.294-0.997-2.572-2.919
			c-0.618-4.274-1.676-8.465-2.298-12.738c-0.383-2.631-1.354-3.208-3.461-2.413c-12.324,4.649-24.651,9.288-37.01,13.813
			c-2.896,1.06-2.385,2.431-0.775,4.389c3.574,4.347,7.06,8.79,10.659,13.11c1.484,1.781,2.908,3.532,3.326,6.048
			c-2.674,2.881,1.058,4.707,0.903,7.173c-0.95-0.257-1.978-0.326-2.837-0.799c-9.015-4.959-17.97-10.062-27.017-14.943
			c-2.953-1.593-2.929-2.903-0.309-4.765c2.148-1.527,4.27-3.105,6.354-4.743c1.58-1.242,3.467-2.112,1.421-5.135
			c-1.44-2.128,1.16-2.373,2.166-3.007c12.445-7.845,24.949-15.566,37.396-23.408C437.953,511.234,442.263,508.203,446.627,505.283z
			"/>
		<path fill="#556054" d="M386.409,587.253c3.691-2.411,7.493-0.37,11.115,0.042c9.704,1.103,19.344,2.955,29.006,4.531
			c1.946,0.317,3.288,0.038,3.306-2.807c0.014-2.211,0.44-4.419,0.684-6.629c0.331-0.053,0.66-0.105,0.99-0.157
			c0,0-0.004-0.002-0.004-0.002c1.331,2.12,2.55,4.392,5.074,4.892c6.308,6.388,8.57,15.666,12.809,23.531
			c2.992,5.552,5.165,11.442,4.152,18.232c-3.015,2.404-5.381,5.642-8.286,8.236c-5.203,4.645-5.25,4.838-8.024-2.037
			c-0.29-0.72-0.42-1.524-0.625-2.29c0.974-0.919,1.165-2.358-0.044-2.612c-2.896-0.609-3.822-3.203-4.767-5.61
			c-1.394-3.549-3.864-4.918-6.934-5.333c-3.208-0.434-6.436-0.668-9.65-1.05c-3.278-0.39-6.18-1.43-8.55-4.475
			c-4.785-6.147-9.825-12.035-14.801-17.985C389.716,593.166,387.637,590.575,386.409,587.253z"/>
		<path fill="#888B8C" d="M354.748,593.866c-0.369-7.189-0.294-7.389,5.699-4.465c2.699,1.317,5.326,1.824,8.158,1.645
			c0.26,2.452,2.265,2.09,3.554,2.744c2.044,1.037,4.378,1.315,6.17,3.032c7.106,6.81,14.46,13.315,21.236,20.53
			c6.744,7.18,14.084,11.473,23.527,11.822c4.168,0.154,9.079-0.487,12.628,3.614c-9.472,1.079-18.97,1.941-28.396,3.406
			c-2.088,0.324-5.043-0.817-6.437,2.446c-2.352-3.448-4.263-7.235-5.696-11.247c-2.038-5.709-5.253-10.369-9.361-14.123
			c-2.36-2.156-4.368-5.054-8.299-6.909c7.074,12.347,14.812,22.594,20.833,34.196c-4.425,0.463-4.617,1.034-3.549,5.902
			c1.215,5.535,3.55,10.782,3.419,16.675c-4.016-3.684-6.549-8.768-9.042-13.672c-4.588-9.023-11.855-13.672-19.764-17.581
			c-2.806-1.419-4.705-4.787-8.105-4.928c-0.892-7.612-2.158-15.126-4.497-22.358C356.759,600.86,355.822,597.345,354.748,593.866z"
			/>
		<path fill="#727A81" d="M188.666,735.962c4.078-0.277,8.157-0.415,12.24,0h6.758c0.149-0.582-0.076-1.373-0.641-2.101
			c-2.408-3.102-1.032-5.422,0.599-8.094c9.338-15.3,18.709-30.578,27.802-46.067c2.555-4.352,5.279-5.33,9.181-3.067
			c1.092,0.055,2.185,0.111,3.277,0.167c6.769,0.602,13.646,0.56,20.269,2.023c4.598,1.015,6.741-1.362,9.008-4.745
			c-0.183-0.242-0.367-0.482-0.554-0.719c-3.078,0.89-5.873-0.781-8.525-1.844c-7.678-3.077-15.236-0.636-22.835-0.141
			c-1.475,0.096-2.919,0.77-4.613-0.27c1.21-1.924,3.185-2.203,4.548-3.469c-0.378-1.951-1.209-3.202-3.182-2.668
			c-2.586,1.539-3.718,5.424-7.068,5.732c-2.256,0.974-2.49,3.875-4.2,5.573c-10.142,10.07-21.403,18.709-30.186,30.531
			c-3.935,9.686-9.644,18.107-14.709,26.987c-0.545,0.955-1.382,0.893-2.218,1.081c-4.879,1.099-9.809,1.016-14.741,0.958
			c0.041,0.053,0.085,0.085,0.127,0.133H188.666z"/>
		<path fill="#B1B1AF" d="M323.498,591.21c5.377,0.632,8.64-5.287,13.664-6.012c0.195,2.1-1.403,2.863-1.883,4.304
			c-4.677,3.818-8.836,8.298-12.838,12.995c-1.078,1.265-1.675,2.662-1.363,4.31c0.845,4.466,0.872,9.125,2.403,13.428
			c0.118,2.135,0.705,4.463-1.744,5.541c-18.721,2.821-37.335,6.421-55.947,10.04c2.013-4.374,5.103-7.316,9.141-8.999
			c0.957,2.105,1.963,1.904,3.69,0.73c9.063-6.159,17.584-13.375,27.092-18.65c6.067-3.366,10.809-8.74,16.237-13.063
			C323.552,594.558,323.562,593,323.498,591.21z"/>
		<path fill="#656D77" d="M435.72,632.787c-3.549-4.101-8.46-3.46-12.628-3.614c-9.443-0.349-16.783-4.642-23.527-11.822
			c-6.777-7.214-14.131-13.72-21.236-20.53c-1.792-1.718-4.126-1.995-6.17-3.032c-1.289-0.654-3.294-0.292-3.554-2.744
			c3.945-1.645,8.225-2.035,11.67-5.518c1.937-1.958,3.834,2.08,6.134,1.725c1.228,3.323,3.307,5.914,5.45,8.477
			c4.975,5.95,10.016,11.838,14.801,17.985c2.371,3.046,5.272,4.086,8.55,4.475c3.214,0.382,6.442,0.616,9.65,1.05
			c3.069,0.415,5.54,1.784,6.934,5.333c0.945,2.407,1.871,5.001,4.767,5.61c1.209,0.254,1.018,1.693,0.044,2.612
			C436.31,632.792,436.015,632.79,435.72,632.787z"/>
		<path fill="#32433D" d="M323.482,620.234c-1.531-4.303-1.558-8.962-2.403-13.428c-0.312-1.648,0.285-3.045,1.363-4.31
			c4.002-4.697,8.16-9.177,12.838-12.995c0.139,2.143,0.32,3.905,2.949,2.407c2.498-1.423,5.175-2.443,7.799-3.559
			c0.837-0.356,1.719-1.594,2.634-0.455c0.75,0.934,0.201,2.094-0.025,3.19c-0.254,1.233-0.292,2.524-0.424,3.79
			c0,0-0.006,0.007-0.006,0.007c-5.807,0.145-5.934,0.29-5.942,6.788c-0.005,4.176-0.008,8.352-0.012,12.527
			c-2.172,3.618-3.93,3.526-5.424-0.672c-0.737-2.071-1.655-4.074-2.638-6.01c-0.66-1.299-0.731-3.637-2.42-3.468
			c-1.641,0.164-2.275,2.228-2.82,3.865C327.511,612.248,325.924,616.486,323.482,620.234z"/>
		<path fill="#727A81" d="M274.933,626.817c-4.038,1.682-7.128,4.625-9.141,8.998c-1.847,4.133-3.673,8.279-5.553,12.393
			c-0.481,1.051-1.819,1.916-0.281,3.169c-5.616,2.595-11.309,4.928-17.21,6.542c2.402-6.954,7.474-11.983,10.325-18.574
			c3.351-7.748,8.876-12.055,15.891-14.412c5.341-1.794,9.924-5.998,15.678-6.508C282.129,622.317,277.982,623.737,274.933,626.817z
			"/>
		<path fill="#DCDBDC" d="M242.748,657.918c5.901-1.614,11.594-3.947,17.21-6.542c6.467-2.367,12.935-4.733,19.402-7.099
			c1.226,3.403-0.099,5.189-2.77,6.707c-7.682,4.366-15.284,8.919-22.855,13.533c-2.712,1.653-5.128,4.106-8.548,3.118
			c-0.384-1.95-1.216-3.201-3.189-2.668c-1.304-2.144-2.715-0.096-4.073-0.136c0.321-1.772-1.779-1.839-1.838-3.333
			C238.128,659.801,240.917,660.031,242.748,657.918z"/>
		<path fill="#DCDBDC" d="M274.933,626.817c3.05-3.079,7.196-4.499,9.709-8.392c8.134-4.803,15.308-11.35,23.135-16.686
			c5.213-3.553,10.098-7.775,15.722-10.529c0.064,1.791,0.054,3.349-1.547,4.624c-5.428,4.323-10.17,9.697-16.237,13.063
			c-9.508,5.275-18.029,12.491-27.092,18.65C276.895,628.72,275.89,628.922,274.933,626.817z"/>
		<path fill="#4A564F" d="M314.682,555.57c2.118-2.791,5.2-3.759,7.94-5.28c10.251-5.689,20.59-11.17,30.895-16.733
			c0.762-0.412,1.492-0.951,2.397-0.598c-4.501,5.261-10.616,7.639-15.871,11.557c-4.245,3.165-9.045,5.394-13.152,8.753
			C322.965,556.479,319.146,557.517,314.682,555.57z"/>
		<path fill="#32433D" d="M354.748,593.866c1.073,3.48,2.011,6.994,2.08,10.728c-3.753,2.199-6.77,5.952-11.123,6.881
			c0.25-5.646,2.605-10.877,2.502-16.593c0,0,0.006-0.007,0.006-0.007C350.345,594.144,352.508,593.672,354.748,593.866z"/>
		<path fill="#656D77" d="M431.509,582.231c-0.33,0.052-0.659,0.104-0.99,0.157c-4.229-4.648-9.137-8.208-14.166-11.569
			c0.157-2.464-3.576-4.289-0.902-7.169c3.914,3.635,7.828,7.268,11.743,10.902C427.44,577.988,431.295,578.771,431.509,582.231z"/>
		<path fill="#132626" d="M292.972,582.349c-1.113,6.083-4.671,10.076-7.567,14.515c-1.227,1.882-2.8-0.288-4.089-0.989
			c-1.387-0.754-0.802-1.9,0.014-2.673C285.184,589.548,289.087,585.961,292.972,582.349z"/>
		<path fill="#C2C2C0" d="M237.924,664.831c1.358,0.04,2.769-2.008,4.073,0.136c-2.586,1.539-3.718,5.424-7.068,5.732
			C235.474,668.44,236.636,666.593,237.924,664.831z"/>
		<path fill="#9FA1A2" d="M363.618,528.129c2.232-3.822,5.555-4.539,9.234-4.24C369.867,525.568,367.088,527.832,363.618,528.129z"
			/>
		<path fill="#656D77" d="M397.154,511.651c0.961-1.54,2.148-2.496,3.905-1.986C400.241,511.572,399.014,512.426,397.154,511.651z"
			/>
		<path fill="#656D77" d="M135.746,673.657c0.733-0.952,1.412-2.109,2.708-0.933C137.73,673.708,136.765,673.785,135.746,673.657z"
			/>
		<path fill="#B1B1AF" d="M427.193,574.552c-3.914-3.633-7.829-7.267-11.743-10.902c-0.416-2.517-1.841-4.268-3.325-6.049
			c-3.599-4.32-7.084-8.763-10.659-13.11c-1.61-1.958-2.121-3.329,0.775-4.389c12.359-4.525,24.686-9.164,37.01-13.813
			c2.107-0.795,3.078-0.218,3.461,2.413c0.622,4.274,1.68,8.464,2.298,12.738c0.278,1.922,0.747,2.856,2.572,2.919
			c12.652,0.438,25.214,2.117,37.758,3.915c5.285,0.757,10.523,1.944,15.782,2.936c0.588,0.301,1.177,0.602,1.766,0.902
			c5.111,2.293,10.221,4.586,15.332,6.878c-0.021,1.14-0.224,2.162-0.77,3.197c-5.006,9.485-9.407,19.441-17.639,26.151
			c-1.946,1.586-3.325,3.492-5.828,1.51c-0.954-0.756-2.154-0.71-2.041,0.977c0.128,1.899-1.474,3.588-0.4,5.611
			c1.192,0.144,1.847-0.802,2.453-1.622c1.872-2.535,3.875-2.084,6.023-0.566c6.826,4.823,13.559,9.835,20.534,14.358
			c5.094,3.303,9.622,7.836,15.436,9.635c0.283,0.017,0.564,0.056,0.843,0.117c1.707,3.868,4.07,5.471,7.781,3.234
			c3.739-2.254,7.533-4.396,11.35-6.472c1.884-1.025,2.422-2.164,1.438-4.518c-3.092-7.399-6.587-14.68-8.809-22.426
			c-2.539-8.854-7.498-13.317-15.164-14.855c-5.098-1.023-7.061-5.187-7.537-10.62c1.383,0.189,2.829,0.144,4.139,0.604
			c11.211,3.94,22.646,6.879,34.013,10.12c-0.476,2.489-0.897,4.992-1.439,7.462c-1.517,6.913-1.474,6.775,4.057,10.185
			c2.373,1.463,5.605,1.725,6.746,5.22c2.593,7.944,5.111,15.92,7.66,23.884c-2.637-1.435-4.352-0.471-5.753,2.411
			c-2.601,5.35-5.636,10.432-8.094,15.861c-1.722,3.803-3.711,4.61-7.153,3.092c-9.072-3.999-18.245-7.694-27.368-11.543
			c-3.473-1.465-6.827-2.302-10.621-0.921c-7.909,2.877-15.951,5.271-23.923,7.923c-2.239,0.745-4.338,1.324-6.319-0.806
			c-3.078-3.31-6.407-6.332-9.342-9.795c-12.191-14.386-25.162-27.744-39.539-39.214
			C437.693,582.986,433.165,577.582,427.193,574.552z M491.345,575.222c0.191-0.34,0.383-0.681,0.574-1.021
			c-2.316-2.691-4.639-5.375-6.947-8.075c-1.101-1.288-2.19-2.551-3.969-2.348c-5.798,0.663-11.486-1.464-17.268-0.944
			c-2.853,0.257-5.257-0.873-7.557-2.544c-2.614-1.898-5.181-3.883-7.816-5.741c-4.802-3.384-9.64-6.701-14.463-10.046
			c-0.204,0.323-0.408,0.646-0.611,0.969c6.182,6.41,12.459,12.706,18.51,19.273c3.654,3.966,7.694,6.125,12.792,6.065
			c2.341-0.027,4.682,0.897,7.036,1.281C478.194,573.165,484.771,574.182,491.345,575.222z M471.977,609.216
			c0.354-0.196,0.709-0.393,1.063-0.589c-2.486-8.468-4.922-16.955-7.493-25.389c-0.616-2.021-8.813-2.958-9.842-1.261
			c-0.465,0.768-0.276,1.54,0.164,2.225C461.235,592.544,466.607,600.879,471.977,609.216z"/>
		<path fill="#91928F" d="M785.092,617.343c-0.783,6.326-1.45,12.674-2.39,18.969c-0.631,4.227-0.027,7.185,3.661,9.489
			c6.15,3.842,12.055,8.226,17.9,12.661c2.778,2.108,5.589,3.632,8.926,3.792c-1.186,2.805-3.01,1.654-4.686,0.918
			c-9.988-4.387-19.964-8.811-29.941-13.231c-2.322-1.029-3.753-2.677-4.8-5.553c-3.94-10.818-8.31-21.43-12.805-32.844
			c-1.295,4.149,0.304,7.281,0.405,10.482c0.249,7.851,0.987,15.685,1.652,23.513c0.323,3.801,3.613,4.732,5.637,6.792
			c8.615,8.768,17.45,17.218,27.73,23.455c1.654,1.003,3.94,0.938,4.891,3.326c-0.397,0.656-1.032,1.258-1.154,1.973
			c-1.385,8.156-2.729,16.322-3.998,24.502c-0.398,2.563,0.953,3.588,2.973,4.366c11.971,4.613,23.663,10.149,35.936,13.778
			c2.932,0.867,6.104,1.214,8.725,3.287c-2.949,2.62-5.934,0.126-8.884-0.006c-4.603-0.205-9.199-0.737-13.784-1.282
			c-9.496-1.129-16.273-8.934-24.489-13.218c-2.782-1.451-5.428-3.245-8.136-4.882c-0.128-0.069-0.256-0.138-0.384-0.208
			c0.121,0.078,0.241,0.156,0.362,0.234c-0.316,1.982,0.823,3.307,1.661,4.755c3.625,6.265,7.266,12.517,10.894,18.78
			c0.647,1.116,1.884,2.028,1.048,3.7c-4.202-0.708-8.404-1.417-12.608-2.124c-0.016-1.703-0.84-2.895-1.724-4.198
			c-4.083-6.017-8.044-12.142-12.049-18.228c3.419-3.66,7.616-5.991,11.565-8.724c1.723-1.192,2.381-2.058,0.654-3.876
			c-6.411-6.752-12.88-13.436-19.138-20.371c-6.19-6.86-13.025-12.707-20.226-18.059c-0.48-0.357-0.583-1.376-0.862-2.086
			c1.292-6.344,4.438-11.806,6.573-17.752c1.236-3.442,0.186-4.188-2.368-4.784c-6.871-1.603-13.678-3.607-20.584-4.966
			c-7.073-1.391-11.939-6.804-17.339-11.348c-11.203-9.428-22.413-18.845-33.677-28.178c-2.627-2.177-4.005-4.674-4.412-8.565
			c-1.029-9.854-3.186-19.531-3.92-29.451c8.777,2.92,17.566,5.798,26.324,8.794c1.591,0.544,3.218,1.248,4.36,2.813
			c-3.032,3.11-7.097,3.836-10.561,5.962c-2.059,1.264-2.878,2.424-0.942,4.697c8.275,9.721,16.498,19.501,24.749,29.25
			c0.882,1.042,1.755,2.219,3.267,1.603c4.592-1.87,8.889-4.376,13.287-7.378c-2.38-2.083-3.725,1.222-6.052,0.058
			c3.004-6.015,6.046-11.811,10.277-16.714c4.387,0.586,6.891,4.678,10.096,7.345c8.733,7.265,17.328,14.76,25.771,22.461
			C776.287,614.526,781.306,614.206,785.092,617.343z"/>
		<path fill="#858993" d="M564.042,573.426c-11.367-3.24-22.803-6.18-34.013-10.12c-1.31-0.46-2.756-0.415-4.139-0.603
			c-1.934-0.812-1.848-3.099-2.536-4.76c-1.046-2.524-1.962-3.482-3.568-0.546c-0.356,0.65-1.034,1.069-1.564,1.595
			c-5.111-2.293-10.221-4.586-15.332-6.878c4.362-5.476,8.739-10.936,13.078-16.436c1.565-1.984,2.956-2.613,4.969-0.468
			c2.047,2.181,4.482,3.878,6.701,5.856c1.009,0.899,2.081,2.229,3.296,1.758c1.536-0.596,0.795-2.527,0.823-3.865
			c0.09-4.203,0.1-8.411,0.015-12.614c-0.067-3.332,1.128-3.865,3.676-2.763c19.237,8.319,38.576,16.342,57.71,24.959
			c6.575,2.961,11.446,9.262,17.042,14.108c10.76,9.32,21.371,18.866,32.027,28.343c2.037,1.811,4.14,2.094,6.718,1.617
			c5.943-1.1,11.94-1.985,17.944-2.409c2.836-0.2,4.512,3.101,6.485,4.977c7.356,6.994,14.447,14.353,21.593,21.633
			c1.128,1.149,2.504,2.218,2.591,4.249c-6.044-2.728-11.743-6.373-17.128-10.363c-10.68-7.914-22.667-11.539-34.747-14.48
			c-10.324-2.514-19.729-6.947-27.805-14.344c-7.741-7.09-15.623-9.315-24.739-4.659c-6.707,3.426-13.204,0.692-19.762-0.643
			c-3.448-1.323-4.232-6.283-7.787-7.693C565.028,570.525,564.535,571.975,564.042,573.426z"/>
		<path fill="#888B8C" d="M648.231,520.958c0.526-0.977,1.807-1.365,1.696-2.84c3.55-0.509,5.291,0.757,3.712,5.088
			c-0.54,1.482,0.187,3.31-1.029,4.569C650.165,526.331,649.97,522.996,648.231,520.958z"/>
		<path fill="#888B8C" d="M427.193,574.552c5.972,3.03,10.499,8.434,15.761,12.632c14.377,11.47,27.348,24.828,39.539,39.214
			c2.935,3.463,6.264,6.485,9.342,9.795c1.981,2.13,4.08,1.551,6.319,0.806c7.972-2.652,16.014-5.046,23.923-7.923
			c3.794-1.38,7.149-0.544,10.621,0.921c9.122,3.849,18.296,7.544,27.368,11.543c3.442,1.518,5.431,0.711,7.153-3.092
			c2.458-5.428,5.493-10.511,8.094-15.861c1.401-2.881,3.117-3.846,5.753-2.411c1.234,3.487,2.587,6.556,6.61,6.774
			c7.261,0.393,14.473,1.406,21.477,3.815c7.493,4.194,15.492,7.12,23.5,9.167c4.931,1.26,10.4-1.818,15.576-3.238
			c0.132,2.157,1.859,2.667,3.036,3.609c4.098,3.278,8.221,6.533,12.491,9.502c1.838,1.278,2.498,2.81,2.358,5.064
			c-7.862-3.374-16.246-4.909-23.929-8.906c-0.81-0.421-1.737-0.824-2.292,0.135c-0.51,0.881,0.047,1.823,0.556,2.651
			c2.346,3.823,4.697,7.644,6.976,11.52c0.714,1.214,1.688,2.109,2.807,1.609c5.368-2.397,10.58,1.115,15.88,0.368
			c0.281,1.172,0.562,2.345,0.843,3.518c-0.987,0.674-0.858,1.783-0.85,2.845c-3.951-0.536-7.903-1.071-11.854-1.607
			c-8.832-1.271-17.664-2.541-26.496-3.814c-2.103-0.053-4.28,0.279-6.297-0.225c-6.987-1.747-14.128-1.978-21.186-2.741
			c-8.076-0.873-16.052-2.215-24.032-3.764c-7.676-1.49-15.401-2.648-23.105-3.953c-5.023-0.651-10.084-0.932-15.095-1.471
			c-5.332-0.574-10.663-0.519-15.982-1.006c-6.977-0.639-13.976-0.972-20.966-1.436c-4.849-0.154-9.698-0.309-14.548-0.463
			c-6.026-1.745-11.897-0.472-17.563,1.729c-3.419,1.328-6.547,3.631-9.816,5.472c-1.321,0.744-2.719,1.587-3.004-1.183
			c-0.324-4.742-0.102-9.649-1.142-14.177c-0.851-3.706,0.562-7.697-1.478-11.083c1.013-6.79-1.16-12.681-4.152-18.232
			c-4.238-7.865-6.501-17.143-12.809-23.531c-0.657-3.035-2.198-4.869-5.074-4.892c0,0,0.004,0.002,0.004,0.002
			C431.295,578.771,427.44,577.988,427.193,574.552z"/>
		<path fill="#727A81" d="M453.54,628.885c2.04,3.386,0.627,7.377,1.478,11.083c1.039,4.528,0.818,9.434,1.142,14.177
			c-3.72,0.117-7.192,1.508-10.594,2.992c-6.822,2.976-14.06,2.699-21.115,3.826c-4.156,0.664-8.361,0.913-12.519,1.563
			c-2.37,0.371-3.094,1.584-1.429,4.226c4.437,7.039,8.671,14.244,12.981,21.386c0.992,1.644,2.448,3.843-0.811,3.873
			c-12.413,0.112-24.828-0.06-37.242-0.153c-0.237-0.002-0.473-0.321-0.709-0.494c1.867-2.437,4.426-3.881,6.537-5.945
			c3.439-3.364,8.147-4.977,10.454-9.893c1.513-1.14,1.825-2.442,0.761-4.295c-1.508-2.627-2.834-5.392-4.238-8.098
			c0.132-5.895-2.204-11.142-3.418-16.677c-1.068-4.867-0.876-5.439,3.548-5.902c1.181,1.2,2.363,2.4,4.367,4.436
			c-0.838-2.886-1.341-4.619-1.845-6.353c1.394-3.263,4.349-2.121,6.437-2.446c9.426-1.465,18.924-2.327,28.396-3.406
			c0.294,0.003,0.589,0.005,0.884,0.008c0.205,0.765,0.335,1.57,0.625,2.29c2.774,6.875,2.821,6.682,8.024,2.037
			C448.159,634.527,450.525,631.289,453.54,628.885z M403.714,647.006c-0.02-0.108-0.009-0.265-0.067-0.314
			c-0.083-0.07-0.217-0.062-0.329-0.088c0.031,0.18,0.062,0.361,0.093,0.541C403.512,647.099,403.613,647.052,403.714,647.006z"/>
		<path fill="#556054" d="M345.706,611.475c4.353-0.929,7.37-4.682,11.123-6.881c2.339,7.232,3.606,14.746,4.498,22.358
			c0.857,2.565,1.715,5.129,2.572,7.694c-0.044,0.647-0.087,1.294-0.131,1.942c-0.089,2.249-0.484,4.548-0.213,6.738
			c0.966,7.798,1.301,15.648,1.529,23.49c0.092,3.166,1.106,5.26,2.779,7.655c3.638,5.211,9.63,7.373,12.637,13.269
			c-1.015,2.513-2.51,1.239-3.909,0.639c-5.539-2.375-11.062-4.798-16.618-7.121c-2.75-1.15-4.025-2.801-4.334-6.601
			c-0.342-4.209,0.793-9.064-2.316-12.697c-0.016-3.917,0.283-7.864-0.852-11.674c1.271-1.317,0.735-2.899,0.564-4.478
			c-0.788-7.262-1.515-14.533-2.288-21.797c-0.14-1.31,0.591-3.278-1.208-3.564c-1.424-0.226-2.751,0.567-3.036,2.55
			c-0.527,0.052-1.055,0.104-1.583,0.155c-7.727,3.56-15.897,5.315-23.914,7.693c0.245-1.69,0.49-3.381,0.734-5.071
			c2.45-1.077,1.862-3.405,1.744-5.539c2.442-3.748,4.028-7.987,5.47-12.322c0.545-1.637,1.179-3.7,2.82-3.865
			c1.689-0.169,1.76,2.168,2.42,3.468c0.983,1.936,1.9,3.939,2.638,6.01c1.494,4.198,3.253,4.29,5.424,0.673
			C343.857,614.041,345.319,613.649,345.706,611.475z"/>
		<path fill="#32433D" d="M486.541,648.127c4.849,0.154,9.698,0.309,14.548,0.461c0.209,1.915,1.605,2.453,2.817,3.274
			c8.823,5.977,17.607,12.029,26.454,17.958c1.641,1.099,2.751,2.096,1.946,4.519c-3.594,10.813-7.134,21.65-10.693,32.478
			c-0.658-0.027-1.317-0.054-1.71,0.731c-0.908-0.135-1.566-0.62-1.805-1.689c-1.446-5.317-4.818-9.321-7.367-13.866
			c-7.354-13.115-14.921-26.073-22.444-39.062C487.419,651.432,486.583,649.987,486.541,648.127z"/>
		<path fill="#9FA1A2" d="M380.499,687.739c-3.007-5.896-8.999-8.058-12.637-13.269c-1.673-2.395-2.687-4.489-2.779-7.655
			c-0.227-7.842-0.563-15.692-1.529-23.49c-0.271-2.191,0.123-4.489,0.211-6.738c0.738,0.203,1.137,0.714,1.452,1.546
			c5.649,14.957,11.415,29.857,16.944,44.871c1.056,2.867,1.99,3.268,4.298,1.855c5.083-3.113,9.857-6.892,15.253-9.332
			c-2.307,4.915-7.015,6.529-10.454,9.893c-2.111,2.065-4.669,3.508-6.537,5.945C382.323,691.666,382.296,688.355,380.499,687.739z"
			/>
		<path fill="#DCDBDC" d="M800.242,553.218c1.984,8.971,6.016,17.018,8.86,25.605c1.847,5.577,4.19,10.938,6.235,16.433
			c1.667,4.479,1.497,9.187,0.782,13.823c-0.273,1.769-0.468,3.493-0.45,5.27c-0.182,5.256-0.501,5.543-4.339,2.815
			c-14.015-9.96-27.957-20.053-41.989-29.979c-2.168-1.534-2.989-3.284-3.116-6.224c-0.121-2.803-0.374-5.783-1.601-8.408
			c-0.072-2.39-0.118-4.749-0.416-7.157c-1.286-10.403-3.458-20.673-3.737-31.232c0.295,0.1,0.59,0.199,0.884,0.3
			c-0.143,3.743-0.169,7.669,2.552,10.232c9.854,9.28,19.863,18.344,29.804,27.502c1.752,1.614,2.852,1.924,3.284-1.318
			c0.781-5.866,1.625-11.713,1.749-17.66C799.243,553.22,799.742,553.219,800.242,553.218z"/>
		<path fill="#656D77" d="M736.636,581.267c-4.231,4.902-7.273,10.699-10.277,16.714c2.327,1.164,3.671-2.142,6.052-0.058
			c-4.398,3.003-8.695,5.509-13.287,7.378c-1.512,0.616-2.385-0.561-3.267-1.603c-8.251-9.749-16.474-19.528-24.749-29.25
			c-1.935-2.274-1.116-3.434,0.942-4.697c3.464-2.126,7.529-2.853,10.561-5.962c6.928,1.672,12.965,5.952,19.509,8.755
			c3.937,1.687,7.768,3.705,11.61,5.667C734.954,578.836,736.521,579.195,736.636,581.267z"/>
		<path fill="#C2C2C0" d="M695.818,522.934c8.431,3.746,15.845,9.716,23.893,14.304c2.644,1.507,5.232,3.152,7.801,4.822
			c3.164,2.057,3.253,4.438,0.33,6.999c-7.493,6.565-7.571,6.648-13.706-0.814c-5.778-7.027-11.352-14.272-17.058-21.377
			c-0.929-1.157-1.42-2.368-1.275-3.917L695.818,522.934z"/>
		<path fill="#C2C2C0" d="M760.47,534.164c0.28,10.559,2.452,20.829,3.737,31.232c0.298,2.409,0.344,4.767,0.416,7.157
			c-5.546-1.969-8.397-5.439-7.841-12.906c0.426-5.731,1.619-11.505,0.938-17.343c0.036-2.554,0.057-5.109,0.119-7.661
			c0.022-0.915-0.235-2.199,0.763-2.47C759.792,531.85,760.262,532.977,760.47,534.164z"/>
		<path fill="#C2C2C0" d="M695.804,522.95c-0.116-0.133-0.233-0.265-0.349-0.398c0.075,0.018,0.177,0.009,0.219,0.062
			c0.069,0.085,0.098,0.211,0.144,0.32C695.818,522.934,695.804,522.95,695.804,522.95z"/>
		<path fill="#C2C2C0" d="M609.153,630.766c-7.004-2.409-14.215-3.422-21.477-3.815c-4.022-0.218-5.375-3.287-6.61-6.774
			c-2.549-7.963-5.067-15.939-7.66-23.883c-1.141-3.495-4.372-3.757-6.746-5.22c-5.532-3.41-5.574-3.272-4.057-10.185
			c0.542-2.469,0.963-4.973,1.439-7.462c0.493-1.451,0.986-2.902,1.547-4.551c3.556,1.41,4.34,6.37,7.787,7.693
			c3.308,5.29,6.358,10.86,11.508,14.179c0.871,0.561,1.737,1.048,2.143,2.173c0.005,9.192-0.004,18.384,0.037,27.575
			c0.005,1.044-0.469,2.5,0.724,2.992c1.107,0.457,1.86-0.777,2.341-1.63c3.003-5.326,7.701-8.904,10.876-14.068
			c3.322-5.402,3.436-5.311-1.228-9.005c0.028-1.428,0.913-1.757,1.907-2.165c5.439-2.232,10.894-4.428,16.252-6.894
			c1.896-0.873,3.287-0.161,4.767,0.789c12.297,7.895,24.586,15.805,36.873,23.719c3.317,2.136,6.622,4.297,9.929,6.455
			c0.728,0.475,1.653,0.896,1.452,2.098c-0.206,1.225-1.203,1.054-2.025,1.257c-14.782,3.66-29.737,4.873-44.845,5.047
			C619.164,629.148,614.028,629.075,609.153,630.766z"/>
		<path fill="#727A81" d="M666.113,654.868c0.14-2.253-0.52-3.786-2.358-5.064c-4.27-2.969-8.394-6.223-12.491-9.502
			c-1.177-0.942-2.904-1.451-3.036-3.609c2.783-0.494,5.237,0.441,7.708,1.899c7.671,4.524,15.455,8.798,23.116,13.343
			c2.224,1.319,3.828,1.339,5.566-0.917c1.191-1.546,2.9-2.553,4.22-3.991c6.734-7.336,7.416-7.433,15.605-1.658
			c0.005,0.321-0.072,0.683,0.03,0.956c4.588,12.25,9.189,24.493,13.796,36.733c0.395,1.049,0.878,2.065,1.896,2.467
			c8.867,3.497,17.339,8.3,26.584,10.548c1.688,1.756,3.295,3.573,3.677,6.321c-2.148,2.096-4.282,0.397-6.295-0.236
			c-5.1-1.603-9.974-4.099-15.225-5.138c-2.1-0.906-4.15-2.363-6.31-2.621c-8.427-1.006-12.025-7.245-14.489-15.608
			c-1.17-3.972-2.478-8.27-5.573-11.178c-1.241-6.213-3.671-11.772-6.85-17.781c-1.866,4.671-3.609,8.36-4.809,12.266
			c-0.831,2.705-1.912,3.889-4.498,3.808c-6.472-0.203-12.951-0.116-19.426-0.145c-0.281-1.172-0.562-2.345-0.843-3.518
			c5.885-0.535,11.749,1.965,18.293,0.17C677.922,659.74,672.017,657.304,666.113,654.868z"/>
		<path fill="#9FA1A2" d="M746.75,696.075c-9.246-2.248-17.717-7.051-26.584-10.548c-1.018-0.401-1.501-1.417-1.896-2.467
			c-4.607-12.24-9.208-24.483-13.796-36.733c-0.102-0.274-0.025-0.635-0.03-0.956c9.209,3.105,17.525,7.579,23.055,17.298
			c5.614,9.866,11.667,19.404,17.442,29.152C745.696,693.095,746.955,694.216,746.75,696.075z"/>
		<path fill="#DCDBDC" d="M599.777,598.785c4.664,3.694,4.55,3.603,1.228,9.005c-3.176,5.164-7.873,8.742-10.876,14.068
			c-0.481,0.852-1.234,2.087-2.341,1.63c-1.193-0.492-0.719-1.948-0.724-2.992c-0.041-9.191-0.032-18.383-0.037-27.575
			C591.789,593.419,595.229,597.678,599.777,598.785z"/>
		<path fill="#727A81" d="M775.659,710.34c4.005,6.086,7.966,12.211,12.049,18.228c0.885,1.304,1.708,2.495,1.724,4.198
			c-2.089-0.318-4.179-0.635-6.268-0.951c-2.558-2.774-5.794-3.431-9.12-3.805c-3.57-2.622-7.782-3.468-11.593-5.451
			c-2.483-1.292-2.548-1.803-0.211-3.586C766.537,715.698,770.877,712.593,775.659,710.34z"/>
		<path fill="#C2C2C0" d="M751.885,691.133c-0.869,1.001-1.49,1.667-2.287-0.296c-3.973-9.792-8.104-19.501-12.113-29.274
			c-1.251-3.051-2.294-6.214-3.432-9.326l0.008-0.01c4.722,3.731,7.058,9.84,10.952,14.4c0.585,0.685,0.932,1.648,1.545,2.287
			c3.983,4.153,5.201,9.339,4.498,15.281C750.697,686.608,751.354,688.861,751.885,691.133z"/>
		<path fill="#9FA1A2" d="M774.044,728.011c3.326,0.374,6.561,1.031,9.12,3.805c-3.834-1.363-8.003-0.854-11.735-2.769
			C772.386,728.984,773.424,729.189,774.044,728.011z"/>
		<path fill="#DCDBDC" d="M751.885,691.133c-0.531-2.273-1.188-4.525-0.829-6.938c1.423,1.741,2.511,3.696,3.01,6.044
			c0.185,0.872,0.79,1.939-0.332,2.374C752.785,692.981,752.348,691.896,751.885,691.133z"/>
		<path fill="#C2C2C0" d="M734.053,652.237c-0.209-0.342-0.419-0.684-0.628-1.026c0.107-0.08,0.214-0.159,0.32-0.239
			c0.105,0.418,0.211,0.837,0.316,1.255C734.061,652.227,734.053,652.237,734.053,652.237z"/>
		<path fill="#132626" d="M244.606,676.633c1.092,0.055,2.185,0.111,3.277,0.167c0.412,2.143,2.193,2.37,3.506,3.135
			c7.431,4.329,14.911,8.549,22.356,12.848c1.328,0.767,2.953,1.165,3.082,3.5c0.522,9.464,1.034,18.931,1.739,28.378
			c0.299,4.001-0.66,6.511-4.376,7.231c-1.658,0.321-3.303,0.999-4.164,2.951c-9.286-2.021-18.155-5.741-27.207-8.718
			c-0.156-0.613-0.156-1.383-0.491-1.815c-3.917-5.061-4.315-10.68-3.126-17.167c1.144-6.241,1.207-12.742,1.745-19.129
			C240.835,683.66,243.794,680.598,244.606,676.633z"/>
		<path fill="#4A564F" d="M321.004,630.845c8.017-2.378,16.187-4.133,23.914-7.693c-2.675,5.106-7.233,7.971-11.022,11.661
			c-12.868,12.534-26.128,24.506-39.975,35.649c-4.178,3.362-7.834,3.799-12.204,1.889c0.107-0.766,0.212-1.535,0.317-2.305
			c2.733,0.272,4.38-1.196,5.093-4.161c2.199-0.364,5.121,1.149,6.504-0.829c3.118-4.455,7.051-8.118,9.626-13.084
			c2.352-4.537,4.671-10.763,8.652-11.776C317.229,638.844,319.25,635.576,321.004,630.845z"/>
		<path fill="#4A564F" d="M346.501,622.997c0.285-1.983,1.612-2.776,3.036-2.55c1.799,0.286,1.069,2.253,1.208,3.564
			c0.774,7.264,1.5,14.535,2.288,21.797c0.171,1.579,0.707,3.161-0.564,4.478c-2.265-8.242-3.414-16.781-5.133-25.168
			C347.185,624.376,346.786,623.702,346.501,622.997z"/>
		<path fill="#727A81" d="M282.035,670.047c-0.105,0.769-0.211,1.537-0.317,2.303c-1.522,0.573-3.042,1.148-4.56,1.725
			c-0.181-0.24-0.365-0.48-0.55-0.714c0.931-1.189,1.86-2.381,2.789-3.574C280.276,669.874,281.155,669.961,282.035,670.047z"/>
		<path fill="#C2C2C0" d="M798.744,553.221c-0.124,5.947-0.968,11.794-1.749,17.66c-0.432,3.242-1.533,2.931-3.284,1.318
			c-9.942-9.158-19.951-18.222-29.804-27.502c-2.722-2.563-2.695-6.489-2.552-10.232c2.812,0.671,4.41,4.177,7.499,4.199
			c5.383,8.364,12.296,13.437,21.671,13.487C793.275,552.165,796.162,551.323,798.744,553.221z"/>
		<path fill="#556054" d="M843.752,727.018c-2.62-2.073-5.792-2.42-8.725-3.287c-12.273-3.629-23.965-9.165-35.936-13.778
			c-2.02-0.778-3.371-1.804-2.973-4.366c1.27-8.18,2.613-16.346,3.998-24.502c0.122-0.716,0.757-1.317,1.154-1.973
			c2.265,1.717,4.531,3.436,6.797,5.154c3.499,7.729,8.827,14.008,12.903,21.264c3.606,6.419,9.975,8.116,14.924,12.215
			c4.176,3.459,9.239,5.293,13.099,9.337C847.242,727.704,845.492,727.828,843.752,727.018z"/>
		<path fill="#91928F" d="M814.809,662.034c0.368-0.95,1.004-1.072,1.783-0.756C816.288,662.428,815.927,663.403,814.809,662.034z"
			/>
		<path fill="#556054" d="M521.613,706.817c3.56-10.828,7.1-21.664,10.693-32.478c0.805-2.422-0.305-3.419-1.946-4.519
			c-8.847-5.929-17.631-11.981-26.454-17.958c-1.212-0.821-2.608-1.359-2.817-3.274c6.989,0.466,13.988,0.799,20.965,1.438
			c5.318,0.487,10.65,0.433,15.982,1.006c5.011,0.539,10.072,0.82,15.094,1.47c-2.562,6.913-7.158,12.328-10.507,18.662
			c-0.558,1.056-1.924,2.005-1.215,3.363c0.936,1.792,2.377,0.216,3.396-0.062c10.683-2.914,21.344-5.938,31.963-9.143
			c2.791-0.842,4.125-0.354,4.69,3.14c1.098,6.794,2.745,13.479,3.706,20.293c0.398,2.822,1.556,3.687,3.601,4.492
			c10.274,4.045,20.528,8.159,30.728,12.44c2.855,1.198,5.941,1.907,8.4,4.188c-10.864,5.39-21.571,11.529-34.028,9.264
			c-0.091-0.302-0.115-0.808-0.281-0.88c-9.676-4.171-18.861-10.683-30.064-6.496c-5.022,1.877-10.617,4.074-15.597,3.265
			C538.976,713.574,530.143,710.578,521.613,706.817z"/>
		<path fill="#32433D" d="M627.894,709.875c-2.459-2.281-5.546-2.99-8.4-4.188c-10.2-4.281-20.454-8.395-30.728-12.44
			c-2.045-0.805-3.203-1.67-3.601-4.492c-0.961-6.815-2.608-13.499-3.706-20.293c-0.565-3.493-1.9-3.982-4.69-3.14
			c-10.619,3.205-21.28,6.229-31.963,9.143c-1.019,0.278-2.46,1.854-3.396,0.062c-0.709-1.358,0.656-2.307,1.215-3.363
			c3.348-6.334,7.945-11.749,10.507-18.662c7.704,1.306,15.429,2.465,23.106,3.954c7.98,1.549,15.956,2.891,24.032,3.764
			c7.058,0.763,14.199,0.994,21.186,2.741c2.017,0.505,4.194,0.172,6.297,0.225c1.745,6.555,5.695,11.801,8.145,17.952
			c1.219,3.061,2.992,5.836,4.544,8.721c0.988,1.837,1.146,3.455-0.239,5.264c-2.315,3.024-4.416,6.259-6.665,9.351
			c-0.734,1.01-1.574,1.889-1.364,3.368C630.886,708.903,629.526,709.763,627.894,709.875z"/>
		<path fill="#656D77" d="M521.613,706.817c8.53,3.762,17.363,6.757,26.311,8.212c4.979,0.81,10.575-1.388,15.597-3.265
			c11.203-4.188,20.389,2.325,30.064,6.496c0.167,0.072,0.191,0.578,0.281,0.88c-10.309,0.055-20.618,0.172-30.927,0.128
			c-2.743-0.012-5.346,0.387-7.787,1.78c-4.646,2.652-9.47,2.699-14.418,1.518c-0.957-0.228-1.968-0.411-2.93-0.312
			c-9.685,0.99-13.135-7.896-17.901-14.704C520.296,706.763,520.955,706.79,521.613,706.817z"/>
		<path fill="#C2C2C0" d="M639.801,707.635c1.967-0.818,3.515-0.932,3.571,2.298c0.06,3.513,2.796,6.862,0.488,10.53
			C642.32,716.265,639.49,712.6,639.801,707.635z"/>
		<path fill="#24363B" d="M702.536,667.615c3.095,2.908,4.403,7.207,5.573,11.178c2.464,8.363,6.062,14.602,14.489,15.608
			c2.159,0.258,4.21,1.714,6.31,2.621c0.014,5.509-0.088,11.022,0.087,16.523c0.097,3.043-0.989,4.341-3.471,3.776
			c-7.661-1.744-15.461-0.436-23.182-1.627c-5.567-0.859-11.309-0.261-16.972-0.278c-7.224-0.021-14.448-0.079-21.67,0.036
			c-2.372,0.038-3.319-0.584-3.699-3.659c-1.707-13.833-3.799-27.604-5.716-41.404c-0.153-1.105-0.031-2.26-0.036-3.391
			c3.952,0.537,7.903,1.072,11.854,1.609c9.938,7.53,19.891,15.034,29.801,22.61c1.934,1.478,3.07,2.704,3.475-1.509
			C700.092,682.301,701.449,674.975,702.536,667.615z"/>
		<path fill="#273932" d="M240.947,688.014c-0.538,6.387-0.601,12.887-1.745,19.129c-1.189,6.487-0.791,12.106,3.126,17.167
			c0.334,0.432,0.335,1.202,0.491,1.815c-4.973-1.639-9.942-3.29-14.919-4.91c-1.45-0.472-2.323-1.302-1.53-3.117
			c4.387-10.036,8.456-20.266,13.815-29.71C240.309,688.167,240.687,688.134,240.947,688.014z"/>
		<path fill="#656D77" d="M431.505,582.229c2.876,0.023,4.418,1.857,5.074,4.892C434.055,586.621,432.836,584.35,431.505,582.229z"
			/>
		<path fill="#C2C2C0" d="M401.712,675.527c-5.396,2.44-10.17,6.219-15.253,9.332c-2.308,1.414-3.242,1.012-4.298-1.855
			c-5.529-15.014-11.295-29.914-16.944-44.871c-0.314-0.832-0.713-1.343-1.452-1.546c0.045-0.647,0.088-1.295,0.131-1.942
			c1.586-0.172,2.166,1.108,2.778,2.435c2.294,4.98,4.494,10.024,6.969,14.885c3.424,6.723,6.107,13.949,10.641,20.216
			c0.47-5.426,0.134-10.828,0.564-16.148c0.436-5.396-1.684-8.582-5.162-11.685c-3.932-3.509-7.937-7.136-10.256-12.468
			c7.909,3.909,15.176,8.557,19.764,17.581c2.493,4.904,5.026,9.988,9.042,13.672c1.403,2.708,2.728,5.472,4.237,8.099
			C403.537,673.085,403.225,674.387,401.712,675.527z"/>
		<path fill="#DCDBDC" d="M369.431,631.88c2.319,5.332,6.324,8.959,10.256,12.468c3.478,3.104,5.598,6.289,5.162,11.685
			c-0.43,5.32-0.094,10.722-0.564,16.148c-4.534-6.267-7.217-13.493-10.641-20.216c-2.475-4.86-4.675-9.905-6.969-14.885
			c-0.611-1.327-1.191-2.607-2.778-2.435c-0.857-2.565-1.714-5.129-2.571-7.694C364.725,627.093,366.625,630.461,369.431,631.88z"/>
		<path fill="#9FA1A2" d="M400.888,638.639c0.503,1.733,1.007,3.466,1.845,6.353c-2.004-2.036-3.186-3.236-4.367-4.436
			c-6.021-11.602-13.759-21.848-20.833-34.196c3.931,1.855,5.939,4.753,8.299,6.909c4.108,3.753,7.323,8.414,9.361,14.123
			C396.625,631.404,398.536,635.191,400.888,638.639z"/>
		<path fill="#C2C2C0" d="M279.396,669.788c-0.929,1.192-1.858,2.384-2.789,3.574c-3.08,0.887-5.875-0.784-8.527-1.847
			c-7.678-3.077-15.236-0.636-22.835-0.141c-1.475,0.096-2.919,0.77-4.613-0.27c1.21-1.924,3.185-2.203,4.548-3.469
			c3.426,0.987,5.842-1.465,8.554-3.119c7.571-4.615,15.173-9.167,22.855-13.533c2.671-1.518,3.996-3.305,2.77-6.707
			c2.701-1.64,5.45-3.137,8.507-3.71c3.153,1.041,3.187,2.848,1.745,6.017C286.118,654.263,283.476,662.437,279.396,669.788z"/>
		<path fill="#656D77" d="M287.866,640.567c-3.057,0.573-5.806,2.071-8.507,3.71c-6.467,2.366-12.935,4.732-19.402,7.099
			c-1.539-1.253-0.2-2.118,0.281-3.169c1.88-4.114,3.707-8.26,5.553-12.393c18.612-3.618,37.227-7.218,55.947-10.039
			c-0.246,1.689-0.49,3.379-0.735,5.069c-1.753,4.731-3.774,7.999-9.094,9.352c-3.981,1.013-6.3,7.239-8.652,11.776
			c-2.575,4.966-6.508,8.629-9.626,13.084c-1.384,1.978-4.305,0.465-6.505,0.829c0.845-7.313,3.029-14.222,4.939-21.208
			c0.409-1.498,1.67-3.223,0.409-4.384C291.211,639.129,289.342,639.063,287.866,640.567z"/>
		<path fill="#24363B" d="M345.706,611.475c-0.386,2.174-1.849,2.566-3.451,2.724c0.004-4.177,0.007-8.353,0.012-12.529
			c0.008-6.498,0.135-6.643,5.942-6.788C348.311,600.598,345.956,605.829,345.706,611.475z"/>
		<path fill="#C2C2C0" d="M518.221,558.992c0.53-0.525,1.209-0.944,1.564-1.595c1.606-2.936,2.522-1.978,3.568,0.546
			c0.688,1.661,0.602,3.948,2.536,4.76c0.477,5.432,2.44,9.596,7.538,10.619c7.667,1.538,12.625,6.001,15.164,14.855
			c2.222,7.746,5.716,15.027,8.809,22.426c0.984,2.354,0.445,3.493-1.438,4.518c-3.817,2.077-7.611,4.218-11.35,6.472
			c-3.711,2.237-6.075,0.634-7.781-3.236c4.037-4.492,7.419-9.604,10.808-14.72c0.901-1.361,1.145-2.329,0.046-3.757
			c-5.384-7.002-10.677-14.095-16.026-21.133c-0.441-0.58-0.996-1.313-1.795-0.841c-0.758,0.448-0.665,1.376-0.528,2.136
			c0.396,2.198,0.954,4.359,1.307,6.565c1.688,10.565,4.434,20.898,5.345,31.634c-5.813-1.799-10.341-6.332-15.436-9.635
			c-6.975-4.522-13.708-9.535-20.534-14.358c-2.148-1.518-4.151-1.969-6.023,0.566c-0.606,0.82-1.261,1.765-2.453,1.622
			c-1.074-2.023,0.528-3.712,0.4-5.611c-0.113-1.687,1.087-1.732,2.041-0.977c2.503,1.982,3.882,0.076,5.828-1.51
			c8.233-6.71,12.633-16.666,17.639-26.151C517.997,561.154,518.2,560.132,518.221,558.992z"/>
		<path fill="#C2C2C0" d="M491.345,575.222c-6.574-1.039-13.151-2.056-19.721-3.13c-2.354-0.385-4.695-1.309-7.036-1.281
			c-5.098,0.06-9.138-2.099-12.792-6.065c-6.051-6.568-12.328-12.863-18.51-19.273c0.204-0.323,0.408-0.646,0.611-0.969
			c4.823,3.345,9.661,6.663,14.463,10.046c2.636,1.857,5.202,3.842,7.816,5.741c2.301,1.671,4.704,2.8,7.557,2.544
			c5.782-0.52,11.469,1.607,17.268,0.944c1.779-0.203,2.868,1.06,3.969,2.348c2.308,2.7,4.63,5.384,6.947,8.075
			C491.728,574.541,491.537,574.881,491.345,575.222z"/>
		<path fill="#DCDBDC" d="M535.988,618.242c-0.911-10.737-3.656-21.069-5.345-31.634c-0.352-2.206-0.911-4.367-1.307-6.565
			c-0.137-0.76-0.229-1.688,0.528-2.136c0.799-0.472,1.354,0.261,1.795,0.841c5.348,7.038,10.642,14.131,16.026,21.133
			c1.099,1.429,0.855,2.397-0.046,3.757c-3.389,5.116-6.771,10.228-10.808,14.72C536.552,618.299,536.271,618.26,535.988,618.242z"
			/>
		<path fill="#C2C2C0" d="M471.977,609.216c-5.37-8.337-10.743-16.672-16.107-25.014c-0.441-0.685-0.63-1.457-0.164-2.225
			c1.028-1.696,9.226-0.759,9.842,1.261c2.571,8.434,5.007,16.921,7.493,25.389C472.686,608.824,472.332,609.02,471.977,609.216z"/>
		<path fill="#727A81" d="M788.436,707.656c-0.121-0.078-0.241-0.156-0.362-0.234c0.128,0.069,0.256,0.139,0.384,0.208
			C788.459,707.629,788.436,707.656,788.436,707.656z"/>
		<path fill="#9FA1A2" d="M702.536,667.615c-1.087,7.36-2.444,14.687-3.157,22.094c-0.405,4.213-1.542,2.987-3.475,1.509
			c-9.911-7.576-19.864-15.08-29.801-22.61c-0.008-1.062-0.137-2.171,0.85-2.845c6.476,0.028,12.955-0.058,19.427,0.144
			c2.587,0.081,3.667-1.102,4.498-3.808c1.2-3.906,2.943-7.595,4.809-12.266C698.865,655.843,701.295,661.402,702.536,667.615z"/>
		<path fill="#DCDBDC" d="M666.113,654.868c5.904,2.436,11.809,4.872,18.289,7.546c-6.543,1.795-12.408-0.705-18.293-0.17
			c-5.3,0.748-10.512-2.764-15.88-0.367c-1.119,0.5-2.093-0.395-2.807-1.609c-2.279-3.876-4.63-7.696-6.976-11.52
			c-0.508-0.828-1.066-1.77-0.556-2.651c0.555-0.959,1.482-0.556,2.292-0.135C649.867,649.959,658.251,651.494,666.113,654.868z"/>
		<path fill="#9FA1A2" d="M403.714,647.006c-0.101,0.047-0.202,0.093-0.303,0.14c-0.031-0.18-0.062-0.361-0.093-0.541
			c0.112,0.025,0.246,0.017,0.329,0.088C403.705,646.741,403.694,646.897,403.714,647.006z"/>
		<path fill="#B1B1AF" d="M287.866,640.567c1.476-1.504,3.345-1.438,4.608-0.274c1.261,1.162,0.001,2.886-0.409,4.384
			c-1.91,6.987-4.094,13.896-4.939,21.208c-0.712,2.964-2.359,4.432-5.092,4.161c-0.879-0.085-1.759-0.172-2.638-0.258
			c4.079-7.35,6.722-15.525,10.215-23.204C291.053,643.414,291.019,641.608,287.866,640.567z"/>
	</g>
</g>
</svg>
